<svg width="254" height="253" viewBox="0 0 254 253" fill="none" xmlns="http://www.w3.org/2000/svg">
<path d="M252.378 146.656C263.582 77.7483 216.711 12.82 147.69 1.63465C78.668 -9.55067 13.6326 37.2427 2.42881 106.151C-8.77497 175.058 38.0956 239.987 107.117 251.172C176.139 262.357 241.174 215.564 252.378 146.656Z" fill="url(#paint0_linear_0_1)"/>
<path d="M250.125 146.291C261.127 78.6254 215.101 14.8677 147.324 3.88409C79.5469 -7.09956 15.684 38.8501 4.6822 106.516C-6.31958 174.181 39.7059 237.939 107.483 248.922C175.26 259.906 239.123 213.956 250.125 146.291Z" fill="url(#paint1_linear_0_1)"/>
<g style="mix-blend-mode:screen">
<path d="M127.423 248.534H125.976L126.202 227.574H127.391L127.423 248.534ZM128.838 248.534L128.613 227.574H129.77L130.285 248.534H128.838ZM124.53 248.534H123.115L123.855 227.574H125.044L124.53 248.534ZM131.699 248.534L130.992 227.574H132.149L133.146 248.502L131.699 248.534ZM121.7 248.534H120.254L121.475 227.607H122.633L121.7 248.534ZM134.561 248.534L133.339 227.639H134.529L135.975 248.566L134.561 248.534ZM118.839 248.534H117.392L119.096 227.671H120.286L118.839 248.534ZM137.422 248.534L135.718 227.639H136.908L138.837 248.502L137.422 248.534ZM115.978 248.534L114.531 248.374L116.717 227.542H117.907L115.978 248.534ZM140.284 248.374L138.097 227.542H139.255L141.698 248.342L140.284 248.374ZM113.116 248.213H111.701L114.37 227.414L115.56 227.574L113.116 248.213ZM143.113 248.213L140.444 227.414H141.634L144.56 248.181L143.113 248.213ZM110.255 248.021L108.872 247.828L112.087 227.093L113.277 227.253L110.255 248.021ZM145.942 247.796L142.727 227.093L143.852 226.9L147.293 247.571L145.942 247.796ZM107.361 247.604L105.946 247.347L109.612 226.708L110.769 226.9L107.361 247.604ZM148.739 247.347L145.074 226.708L146.264 226.483L150.122 247.09L148.739 247.347ZM104.564 247.09L103.117 246.833L107.297 226.258L108.422 226.483L104.564 247.09ZM151.569 246.801L147.389 226.258L148.579 226.034L152.951 246.512L151.569 246.801ZM101.735 246.544L100.352 246.223L104.95 225.777L106.107 226.034L101.735 246.544ZM154.366 246.223L149.736 225.777L150.893 225.488L155.909 245.196L154.366 246.223ZM98.9376 245.902L97.5551 245.581L102.603 225.231L103.792 225.52L98.9376 245.902ZM157.131 245.549L152.051 225.231L153.208 224.91L158.513 245.196L157.131 245.549ZM96.044 245.196L94.6294 244.843L100.224 224.621L101.349 224.942L96.044 245.196ZM159.799 244.811L154.205 224.621L155.362 224.3L161.182 244.426L159.799 244.811ZM93.2468 244.458L91.8965 244.041L97.9409 223.979L99.0662 224.3L93.2468 244.458ZM162.564 244.009L156.488 223.947L157.613 223.594L164.043 243.591L162.564 244.009ZM90.514 243.623L89.1315 243.174L95.5617 223.273L96.687 223.626L90.514 243.623ZM165.265 243.174L158.835 223.241L159.928 222.856L166.712 242.693L165.265 243.174ZM87.7491 242.725L86.3987 242.243L93.4076 222.503L94.5329 222.888L87.7491 242.725ZM168.126 242.243L161.117 222.471L162.243 222.086L169.477 241.762L168.126 242.243ZM85.177 241.762L83.8266 241.28L91.2856 221.668L92.4109 222.086L85.177 241.762ZM170.827 241.248L163.336 221.668L164.461 221.251L172.177 240.735L170.827 241.248ZM82.4763 240.735L81.1581 240.221L89.0673 220.802L90.1925 221.251L82.4763 240.735ZM173.496 240.221L165.554 220.128L166.615 219.678L174.782 238.937L173.496 240.221ZM79.8078 239.643L78.4896 239.098L86.881 219.839L87.9741 220.32L79.8078 239.643ZM176.261 239.098L167.901 219.839L168.769 218.876L177.354 238.135L176.261 239.098ZM77.3322 238.52L76.0461 237.91L84.8876 218.908L85.9486 219.389L77.3322 238.52ZM178.897 237.91L170.055 218.908L171.116 218.394L180.183 237.3L178.897 237.91ZM74.7279 237.3L73.4419 236.658L82.7335 217.881L83.7945 218.394L74.7279 237.3ZM181.469 236.69L171.984 217.207L173.078 216.693L182.562 235.374L181.469 236.69ZM72.1559 236.016L70.8698 235.374L80.5151 216.79L81.5761 217.335L72.1559 236.016ZM184.041 235.406L174.396 216.822L175.2 215.666L185.134 234.122L184.041 235.406ZM69.616 234.7L68.3621 234.026L78.4896 215.666L79.5506 216.244L69.616 234.7ZM186.549 234.058L176.389 215.698L177.418 215.12L187.803 233.352L186.549 234.058ZM67.076 233.32C66.6902 233.063 66.2723 232.838 65.8543 232.614L76.4319 214.511L77.4608 215.088L67.076 233.32ZM189.024 232.646L178.415 213.869L179.443 213.259L190.246 231.234L189.024 232.646ZM64.6004 231.876L63.3787 231.137L74.4064 213.291L75.4031 213.901L64.6004 231.876ZM191.468 231.169L180.504 213.323L181.501 212.681L192.69 230.431L191.468 231.169ZM62.1569 230.367L60.9352 229.597L72.4131 212.007L73.3776 212.649L62.1569 230.367ZM193.976 229.661L182.562 212.071L183.527 211.397L195.165 228.858L193.976 229.661ZM59.8099 228.794L58.6203 227.992L70.4519 210.691L71.4485 211.365L59.8099 228.794ZM196.323 228.088L184.555 210.723L185.488 210.081L197.512 227.253L196.323 228.088ZM57.4307 227.189L56.2733 226.355L68.5228 209.343L69.4873 210.017L57.4307 227.189ZM198.702 226.419L186.452 209.407L187.417 208.701L199.859 225.584L198.702 226.419ZM55.1159 225.52L53.9906 224.686L66.5938 207.898L67.5583 208.637L55.1159 225.52ZM201.017 224.75L188.381 207.995L189.314 207.288L202.174 223.851L201.017 224.75ZM52.8332 223.787L51.6757 222.888L64.729 206.486L65.6614 207.192L52.8332 223.787ZM203.267 222.984L190.085 206.037L191.05 205.298L204.232 221.604L203.267 222.984ZM50.5826 222.021L49.4895 221.123L62.8642 205.074L63.7966 205.844L50.5826 222.021ZM205.486 221.187L192.111 205.138L193.011 204.4L206.611 220.449L205.486 221.187ZM48.3642 220.192L47.3032 219.261L61.0638 203.437L61.964 204.207L48.3642 220.192ZM207.672 219.357L193.783 202.827L194.651 202.057L208.604 217.72L207.672 219.357ZM46.2101 218.298L45.1491 217.367L59.2955 201.864L60.1636 202.666L46.2101 218.298ZM209.826 217.431L195.68 201.96L196.58 201.126L210.887 216.469L209.826 217.431ZM43.9274 215.666L42.8664 214.671L57.3986 199.553C57.6928 199.804 57.9719 200.072 58.2345 200.355L43.9274 215.666ZM211.755 214.799L197.287 199.617L198.123 198.783L212.784 213.804L211.755 214.799ZM41.8697 213.708L40.8409 212.713L55.6625 197.852L56.5305 198.718L41.8697 213.708ZM213.813 212.777L198.959 197.98L199.827 197.113L214.809 211.782C214.488 212.167 214.134 212.456 213.781 212.809L213.813 212.777ZM39.8442 211.686L38.8475 210.659L54.0227 196.183L54.8587 197.049L39.8442 211.686ZM215.806 210.755L200.631 196.407L201.467 195.573L216.803 209.856L215.806 210.755ZM37.8508 209.6L36.8863 208.54L52.4152 194.449L53.219 195.316L37.8508 209.6ZM217.896 208.669L202.367 194.546L203.203 193.647L218.86 207.609L217.896 208.669ZM36.0504 207.481L35.0859 206.39L50.9684 192.684L51.7401 193.551L36.0504 207.481ZM219.793 206.518L203.975 192.748L204.746 191.849L220.822 205.427L219.793 206.518ZM34.1856 205.331L33.2533 204.239L49.3287 190.886L50.1003 191.785L34.1856 205.331ZM221.658 204.335L205.582 190.951C205.839 190.662 206.064 190.341 206.322 190.02L222.622 203.244C222.14 203.629 221.85 204.014 221.529 204.368L221.658 204.335ZM32.3531 203.116L31.4528 202.024L47.9141 189.185L48.6857 190.116L32.3531 203.116ZM223.458 202.121L207.029 189.089L207.736 188.19L224.358 201.029L223.458 202.121ZM30.5526 200.901L29.6845 199.745L46.4673 187.163L47.1746 188.094L30.5526 200.901ZM225.194 199.842L208.411 187.227L209.151 186.264L226.062 198.718L225.194 199.842ZM28.8164 198.59L27.9805 197.467L45.0527 185.237L45.76 186.2L28.8164 198.59ZM226.898 197.531L209.826 185.334L210.533 184.338L227.734 196.375L226.898 197.531ZM27.0481 196.407C26.7909 196.022 26.5016 195.637 26.2444 195.22L43.6059 183.44L44.2489 184.403L27.0481 196.407ZM228.441 195.316L211.112 183.568L211.787 182.573L229.245 194.193C228.988 194.449 228.699 194.835 228.441 195.22V195.316ZM25.4406 194.032C25.1834 193.647 24.9262 193.23 24.6368 192.844L42.2877 181.45L42.9307 182.445L25.4406 194.032ZM230.049 192.941L212.43 181.514L213.073 180.519L230.821 191.721L230.049 192.941ZM23.8974 191.657L23.1257 190.437L41.0016 179.46L41.6447 180.455L23.8974 191.657ZM231.56 190.533L213.781 179.428L214.391 178.4L232.396 189.185L231.56 190.533ZM22.3863 189.217L21.6468 187.966L39.812 177.437L40.3908 178.432L22.3863 189.217ZM233.039 188.062L214.938 177.47L215.517 176.442L233.778 186.81L233.039 188.062ZM20.8752 186.778L20.2 185.558L38.5582 175.383L39.1369 176.442L20.8752 186.778ZM234.422 185.59L216.031 175.447L216.61 174.42L235.097 184.338L234.422 185.59ZM19.4927 184.274L18.8175 183.022L37.4329 173.393C37.6258 173.746 37.8187 174.099 37.9795 174.452L19.4927 184.274ZM235.772 183.055L217.156 173.425C217.349 173.072 217.542 172.719 217.703 172.366L236.415 181.995C236.286 182.092 236.061 182.509 235.836 182.926L235.772 183.055ZM18.1745 181.771C17.9494 181.321 17.7565 180.904 17.5315 180.487L36.3719 171.21L36.8863 172.27L18.1745 181.771ZM237.058 180.519L218.25 171.243L218.764 170.183L237.701 179.203C237.572 179.524 237.347 179.941 237.122 180.358L237.058 180.519ZM16.9206 179.203L16.3097 177.919L35.3431 169.06L35.8575 170.151L16.9206 179.203ZM238.312 177.919L219.278 169.092L219.761 168.001L239.051 176.603C238.762 176.924 238.569 177.373 238.376 177.79L238.312 177.919ZM15.6989 176.603L15.1202 175.287L34.4107 166.941L34.893 168.001L15.6989 176.603ZM239.501 175.287L220.211 166.909L220.693 165.85L239.984 173.971C239.951 174.292 239.759 174.741 239.501 175.158V175.287ZM14.445 174.003C14.2521 173.554 14.0592 173.104 13.8984 172.655L33.189 164.759C33.3583 165.114 33.5086 165.479 33.6391 165.85L14.445 174.003ZM240.466 172.655L221.175 164.727C221.336 164.374 221.465 163.988 221.625 163.635L241.141 171.307C241.045 171.628 240.852 172.077 240.659 172.526L240.466 172.655ZM13.3519 171.339C13.1911 170.889 12.9982 170.472 12.8374 170.023L32.4495 162.544L32.8996 163.667L13.3519 171.339ZM241.623 169.959L221.979 162.544C221.979 162.159 222.268 161.774 222.397 161.421L242.106 168.643L241.623 169.959ZM12.3873 168.675L11.9051 167.327L31.71 160.329L32.0958 161.453L12.3873 168.675ZM242.588 167.262L222.815 160.297L223.201 159.174L243.07 165.914L242.588 167.262ZM11.455 165.978L10.9727 164.63L30.9384 158.211L31.3242 159.334L11.455 165.978ZM243.52 164.566L223.587 158.147C223.587 157.793 223.812 157.408 223.94 157.055L243.97 163.475C243.938 163.507 243.81 163.988 243.649 164.309L243.52 164.566ZM10.5547 163.25C10.3939 162.801 10.2654 162.319 10.1368 161.87L30.2311 155.835C30.2311 156.189 30.4561 156.574 30.5526 156.959L10.5547 163.25ZM244.388 161.806L224.294 155.771C224.294 155.386 224.519 155.001 224.615 154.648L244.806 160.425C244.806 160.779 244.645 161.1 244.517 161.677L244.388 161.806ZM9.68666 160.49L9.30082 159.142L29.5238 153.524L29.8452 154.68L9.68666 160.49ZM245.16 159.077L224.905 153.492C224.905 153.107 225.13 152.722 225.226 152.337L245.514 157.697C245.578 157.89 245.449 158.468 245.321 158.949L245.16 159.077ZM8.91502 157.729C8.91502 157.28 8.68997 156.798 8.56136 156.349L28.9129 151.245C28.9129 151.631 29.1058 152.016 29.2344 152.401L8.91502 157.729ZM245.899 156.285L225.516 151.213L225.805 150.058L246.221 154.905C246.285 155.226 246.157 155.707 245.932 156.156L245.899 156.285ZM8.2077 154.969C8.2077 154.487 8.01482 154.038 7.88622 153.589L28.3663 148.934L28.6557 150.09L8.2077 154.969ZM246.542 153.492L226.062 148.902C226.062 148.517 226.223 148.132 226.319 147.747L246.864 152.112C246.928 152.433 246.8 152.915 246.703 153.364L246.542 153.492ZM7.59682 152.176L7.30748 150.764L27.884 146.623L28.1091 147.779L7.59682 152.176ZM247.153 150.7L226.577 146.559C226.577 146.174 226.577 145.789 226.802 145.404L247.41 149.288C247.475 149.641 247.41 150.122 247.314 150.571L247.153 150.7ZM7.01813 149.384C7.01813 148.902 6.85737 148.421 6.76092 147.939L27.4339 144.312C27.4339 144.698 27.434 145.083 27.659 145.468L7.01813 149.384ZM247.668 147.875L226.995 144.248L227.188 143.061L247.925 146.463C247.989 146.816 247.925 147.297 247.828 147.747L247.668 147.875ZM6.53584 146.559C6.53584 146.078 6.37511 145.596 6.31081 145.115L27.0481 141.905L27.241 143.061L6.53584 146.559ZM248.15 145.083L227.38 141.873L227.573 140.685L248.343 143.606L248.15 145.083ZM6.08573 143.702L5.89283 142.29L26.7267 139.626C26.7267 140.011 26.7267 140.396 26.7267 140.782L6.08573 143.702ZM248.536 142.226L227.702 139.562C227.702 139.177 227.702 138.759 227.863 138.374L248.729 140.814L248.536 142.226ZM5.73207 140.878C5.73207 140.396 5.73211 139.915 5.57135 139.466L26.4373 137.251V138.438L5.73207 140.878ZM248.857 139.369L227.991 137.187C227.991 136.801 227.991 136.416 227.991 136.031L248.889 137.957C249.147 138.31 249.147 138.791 249.147 139.241L248.857 139.369ZM5.41059 138.021V136.609L26.3087 134.876V136.095L5.41059 138.021ZM249.147 136.545L228.216 134.811V133.656L249.147 135.1V136.545ZM5.18551 135.164V133.72L26.1479 132.532C26.1479 132.918 26.1479 133.303 26.1479 133.688L5.18551 135.164ZM249.34 133.688L228.377 132.468C228.377 132.083 228.377 131.698 228.377 131.281L249.34 132.243C249.565 132.597 249.532 133.078 249.5 133.56L249.34 133.688ZM4.99261 132.308C4.99261 131.826 4.99261 131.345 4.99261 130.863L25.9871 130.157C25.9871 130.574 25.9871 130.96 25.9871 131.345L4.99261 132.308ZM249.34 130.831L228.345 130.093V128.905L249.34 129.387C249.661 129.74 249.661 130.221 249.629 130.703L249.34 130.831ZM4.79971 129.451C4.79971 129.002 4.79971 128.52 4.79971 128.039L25.7943 127.782C25.7943 128.167 25.7943 128.584 25.7943 128.97L4.79971 129.451ZM249.404 127.974L228.409 127.718V126.402H249.404V127.974ZM4.76758 126.594V125.182L25.7621 125.407V126.53L4.76758 126.594ZM228.409 125.214C228.409 124.829 228.409 124.444 228.409 124.026L249.404 123.545C249.404 124.026 249.404 124.508 249.404 124.957L228.409 125.214ZM25.8586 124.219L4.86403 123.738C4.86403 123.256 4.86403 122.775 4.86403 122.293L25.8586 123.031C26.0836 123.32 26.0836 123.705 26.0836 124.091L25.8586 124.219ZM228.409 122.839C228.409 122.454 228.409 122.068 228.409 121.683L249.372 120.688C249.372 121.17 249.372 121.651 249.372 122.101L228.409 122.839ZM25.8586 121.844L4.89616 120.881C4.89616 120.399 4.89616 119.95 4.89616 119.469L25.8586 120.656C26.1801 120.913 26.1801 121.33 26.1479 121.715L25.8586 121.844ZM228.249 120.496V119.308L249.211 117.832V119.244L228.249 120.496ZM26.2765 119.372L5.34627 117.928V116.516L26.2765 118.185V119.372ZM228.377 117.992C228.377 117.607 228.377 117.222 228.377 116.837L249.275 114.879C249.275 115.36 249.275 115.841 249.275 116.323L228.377 117.992ZM26.4694 117.029L5.57135 115.071C5.57135 114.622 5.57135 114.14 5.57135 113.659L26.4694 115.809V117.029ZM228.152 115.649C228.152 115.264 228.152 114.879 228.152 114.493L248.986 112.022C248.986 112.503 248.986 112.985 248.986 113.466L228.152 115.649ZM26.7267 114.654L5.8607 112.246L6.05359 110.802L26.8552 113.498C26.8231 113.851 26.7588 114.237 26.7267 114.622V114.654ZM227.863 113.306C227.863 112.888 227.863 112.503 227.702 112.118L248.504 109.197L248.696 110.61L227.863 113.306ZM27.016 112.279L6.21436 109.422C6.21436 108.94 6.37509 108.459 6.43939 107.977L27.1768 111.187C27.3054 111.508 27.0803 111.861 27.016 112.246V112.279ZM227.541 110.963L227.348 109.775L248.053 106.373C248.053 106.822 248.054 107.303 248.279 107.785L227.541 110.963ZM27.3053 109.935L6.66447 106.533C6.66447 106.052 6.66444 105.602 6.8895 105.121L27.5626 108.78L27.3053 109.935ZM227.091 108.587L226.866 107.432L247.507 103.516C247.507 103.965 247.668 104.447 247.764 104.896L227.091 108.587ZM27.7555 107.592L7.11458 103.708L7.40393 102.296L27.9805 106.437C27.9484 106.822 27.8519 107.207 27.7876 107.592H27.7555ZM226.673 106.244C226.673 105.859 226.673 105.474 226.416 105.089L246.96 100.691L247.25 102.104L226.673 106.244ZM28.2377 105.281L7.69327 100.916L7.98267 99.5036L28.4949 104.094L28.2377 105.281ZM226.159 103.933L225.901 102.778L246.317 97.9308C246.317 98.3802 246.542 98.8295 246.639 99.311L226.159 103.933ZM28.7521 102.97L8.30415 98.1234C8.30415 97.6419 8.52921 97.1926 8.65781 96.7111L29.0415 101.815L28.7521 102.97ZM225.612 101.622L225.323 100.499L245.61 95.1383C245.61 95.5876 245.867 96.0691 245.964 96.5185L225.612 101.622ZM29.3309 100.659L9.01147 95.3308L9.39727 93.9507L29.6202 99.5036L29.3309 100.659ZM225.001 99.3431C224.913 98.9634 224.806 98.5885 224.68 98.2197L244.838 92.3778C244.999 92.8272 245.128 93.2766 245.256 93.7581L225.001 99.3431ZM29.9417 98.3802L9.78311 92.5704L10.1689 91.1902L30.2954 97.2247C30.1989 97.6098 30.1025 97.995 29.9739 98.3802H29.9417ZM224.358 97.0642L224.005 95.9407L244.035 89.5211C244.035 89.9705 244.292 90.452 244.453 90.9014L224.358 97.0642ZM30.649 96.1012L10.5869 89.6816C10.7476 89.2323 10.8762 88.7829 11.037 88.3335L31.0027 94.7531C30.9062 95.3309 30.7777 95.716 30.6812 96.1012H30.649ZM223.555 94.8173L223.426 93.6939L243.295 86.9212C243.456 87.3706 243.585 87.8199 243.745 88.2693L223.555 94.8173ZM31.2921 93.8222L11.3907 87.0817L11.8729 85.7336L31.6779 92.6988L31.2921 93.8222ZM222.783 92.5704C222.783 92.1852 222.494 91.8322 222.365 91.447L242.073 84.1929L242.556 85.5731L222.783 92.5704ZM32.0637 91.6075L12.3552 84.3855C12.5159 83.9361 12.6767 83.4867 12.8696 83.0373L32.4816 90.4841C32.4816 90.8372 32.3209 91.2223 32.1923 91.6075H32.0637ZM221.947 90.3236C221.947 89.9705 221.658 89.6174 221.529 89.2323L241.045 81.5288C241.238 81.9781 241.398 82.4275 241.559 82.8769L221.947 90.3236ZM32.9318 89.3606L13.384 81.6892C13.384 81.2398 13.7377 80.7905 13.9306 80.3732L33.2211 88.2693L32.9318 89.3606ZM221.079 88.1409C220.918 87.7558 220.79 87.4026 220.629 87.0496L239.919 78.8967L240.498 80.2127L221.079 88.1409ZM33.7998 87.178L14.5093 79.0251C14.7022 78.5757 14.863 78.1264 15.0559 77.7091L34.3464 86.0867L33.7998 87.178ZM220.275 85.9583L219.825 84.899L238.955 76.2647L239.534 77.5807L220.275 85.9583ZM34.893 84.9632L15.6024 76.3931C15.8275 75.9437 16.0204 75.5264 16.2133 75.077L35.2466 83.904L34.893 84.9632ZM219.311 83.8077L218.828 82.7485L237.733 73.6648C237.958 74.1141 238.151 74.5314 238.344 74.9808L219.311 83.8077ZM35.8896 82.8127L16.9528 73.7932L17.5958 72.5092L36.4041 81.7534C36.2433 82.1065 36.0825 82.4596 35.8896 82.8127ZM218.282 81.6892L217.767 80.63L236.479 71.0006L237.122 72.2524L218.282 81.6892ZM36.9506 80.8547L18.2388 71.2253C18.4317 70.7759 18.6568 70.3587 18.8818 69.9414L37.4972 79.5708L36.9506 80.8547ZM217.221 79.7312C217.028 79.3782 216.867 79.0251 216.674 78.7041L235.161 68.7538L235.836 70.0056L217.221 79.7312ZM38.0437 78.7683L19.557 68.818L20.2322 67.5661L38.6225 77.7091L38.0437 78.7683ZM216.095 77.6449L215.517 76.6178L233.778 66.2501L234.454 67.5019L216.095 77.6449ZM39.2655 76.6819L20.8752 66.1538C21.1324 65.7365 21.3574 65.3193 21.6146 64.9341L39.7477 75.4622L39.2655 76.6819ZM215.002 75.5906L214.391 74.5956L232.396 63.7786C232.621 64.1959 232.878 64.6131 233.135 65.0304L215.002 75.5906ZM40.4551 74.6277L22.4506 63.8428L23.2222 62.6231L41.0981 73.6005L40.4551 74.6277ZM213.781 73.5685L213.138 72.5734L230.885 61.3712L231.657 62.591L213.781 73.5685ZM41.7089 72.6055L23.9617 61.4033L24.7333 60.1836L42.3519 71.6105L41.7089 72.6055ZM212.495 71.5784C212.299 71.2349 212.084 70.9027 211.852 70.5834L229.342 58.9639L230.113 60.1515L212.495 71.5784ZM43.0271 70.5834L25.537 58.996C25.7942 58.6108 26.0515 58.1935 26.3408 57.8084L43.6701 69.6204L43.0271 70.5834ZM211.209 69.5883L210.501 68.6254L227.734 56.6207L228.538 57.7763L211.209 69.5883ZM44.3453 68.6254L27.1446 56.6207L27.9805 55.4652L45.0527 67.6624L44.3453 68.6254ZM209.826 67.6624L209.119 66.6995L226.062 54.2776L226.866 55.4331L209.826 67.6624ZM45.8564 66.6995L28.945 54.3097L29.8131 53.1542L46.5638 65.7687L45.8564 66.6995ZM208.54 65.7366L207.833 64.8057L224.455 51.9665L225.323 53.09L208.54 65.7366ZM47.1103 64.8057L30.5204 51.9665L31.3885 50.8431L47.8819 63.6823L47.1103 64.8057ZM206.9 63.8749C206.675 63.5539 206.418 63.265 206.161 62.944L222.493 49.7518L223.394 50.8752L206.9 63.8749ZM48.5892 62.944L32.2566 49.7518L33.189 48.6605L49.2644 62.0453L48.5892 62.944ZM205.421 62.0132L204.65 61.1144L220.725 47.5691L221.658 48.6605L205.421 62.0132ZM50.1003 61.1144L34.0249 47.5691L34.9573 46.4778L50.8077 60.2157L50.1003 61.1144ZM203.878 60.2157L203.106 59.3491L218.764 45.3864L219.729 46.4778L203.878 60.2157ZM51.6436 59.3491L35.9861 45.3864L36.9506 44.3272L52.4474 58.4503L51.6436 59.3491ZM202.303 58.4503L201.499 57.5837L216.835 43.268L217.832 44.3272L202.303 58.4503ZM53.2512 57.5837L37.9152 43.3001L38.9118 42.2409L54.0549 56.717L53.2512 57.5837ZM200.695 56.717L199.859 55.8504L214.874 41.2137L215.87 42.2409L200.695 56.717ZM54.8908 55.8504L39.8764 41.2137L40.9052 40.1866L55.7267 55.0158L54.8908 55.8504ZM199.023 55.0158L198.187 54.1813L212.848 39.1915L213.877 40.2187L199.023 55.0158ZM56.5627 54.1813L41.9018 39.1274L42.9307 38.1323L57.4307 53.2826L56.5627 54.1813ZM197.319 53.3789L196.451 52.5443L210.758 37.2336L211.819 38.1965L197.319 53.3789ZM58.2988 52.5443L43.9917 37.2015L45.0527 36.2385L59.1669 51.7419L58.2988 52.5443ZM195.583 51.7419L194.715 50.9715L208.636 35.2756L209.73 36.2706L195.583 51.7419ZM60.0671 50.9394L46.1136 35.3077L47.1746 34.3448L60.9352 50.1691L60.0671 50.9394ZM193.815 50.1691L192.915 49.3987L206.482 33.3497L207.576 34.2806L193.815 50.1691ZM61.9962 49.3987L48.3963 33.3497L49.4895 32.4189L62.8642 48.4679L61.9962 49.3987ZM192.111 48.6283L191.211 47.8901L204.393 31.5843L205.518 32.5152L192.111 48.6283ZM63.7966 47.8901L50.5826 31.5843L51.7079 30.7177L64.5682 47.1518L63.7966 47.8901ZM190.278 47.1518L189.346 46.4136L202.206 29.8189L203.332 30.6856L190.278 47.1518ZM65.6614 46.4136L52.801 29.8189L53.9584 28.9523L66.5938 45.7074L65.6614 46.4136ZM188.381 45.6753L187.449 44.9692L199.859 28.0857L201.017 28.9523L188.381 45.6753ZM67.5583 45.0013L55.148 28.0857L56.2733 27.2511L68.5228 44.2951L67.5583 45.0013ZM186.517 44.2951L185.552 43.589L197.384 26.2882L198.573 27.1227L186.517 44.2951ZM69.5195 43.6211L57.3343 26.2882L58.5239 25.4536L70.3233 42.7865L69.5195 43.6211ZM184.555 42.9149L183.559 42.273L195.197 24.8117L196.387 25.6141L184.555 42.9149ZM71.4807 42.273L59.842 24.8438L61.0638 24.0413L72.4774 41.631L71.4807 42.273ZM182.562 41.5989L181.565 40.9569L192.786 23.2389L194.008 24.0092L182.562 41.5989ZM73.4741 40.989L62.0927 23.0784L63.3144 22.308L74.31 40.1545L73.4741 40.989ZM180.569 40.3471L179.54 39.7372L190.343 21.7303L191.564 22.5006L180.569 40.3471ZM75.4996 39.7372L64.6969 21.7624L65.9186 21.0241L76.4962 39.1595L75.4996 39.7372ZM178.382 39.1274L177.354 38.5175L187.738 20.2859L188.96 21.0241L178.382 39.1274ZM77.3965 38.5496L67.0439 20.318L68.2656 19.6439L78.4253 37.9718L77.3965 38.5496ZM176.325 37.9397L175.296 37.3941L185.198 18.9056L186.452 19.5797L176.325 37.9397ZM79.4863 37.4262L69.5195 18.9377L70.8055 18.2958L80.4508 36.8484L79.4863 37.4262ZM174.235 36.8163L173.174 36.2706L182.659 17.5896L183.945 18.2316L174.235 36.8163ZM81.5761 36.3027L71.9308 17.6217L73.2168 16.9798L82.5084 35.7892L81.5761 36.3027ZM171.984 35.5966L170.923 35.0509L179.99 16.1452L181.276 16.7872L171.984 35.5966ZM83.6016 35.1151L74.535 16.2094L75.8211 15.5996L84.6947 34.6015L83.6016 35.1151ZM169.862 34.5695L168.769 34.0559L177.386 14.7971L178.704 15.3749L169.862 34.5695ZM85.7557 34.1201L77.1071 14.8613L78.4575 14.2836L86.8167 33.5423L85.7557 34.1201ZM167.676 33.5744L166.583 33.125L174.749 13.8663L176.068 14.444L167.676 33.5744ZM87.9098 33.1571L79.7435 13.8984L81.0938 13.3527L89.0351 32.7078L87.9098 33.1571ZM165.554 32.7078L164.429 32.2584L172.145 12.7428L173.463 13.2885L165.554 32.7078ZM90.1604 32.3226L82.4763 12.8071L83.7945 12.2935L91.2856 31.8732L90.1604 32.3226ZM163.336 31.8411L162.211 31.4238L169.445 11.7478L170.795 12.2293L163.336 31.8411ZM92.3788 31.456L85.177 11.7478L86.5273 11.2663L93.5362 31.0387L92.3788 31.456ZM161.085 31.0066L159.992 30.6214L166.712 10.7849L168.094 11.2342L161.085 31.0066ZM94.6294 30.6856L87.8455 10.8491L89.1958 10.3676L95.626 30.3004L94.6294 30.6856ZM158.931 30.2362L157.774 29.8832L164.043 9.88613L165.426 10.3034L158.931 30.2362ZM96.9442 29.9152L90.514 9.95034L91.8644 9.53305L98.0373 29.498L96.9442 29.9152ZM156.648 29.5301L155.491 29.2091L161.31 9.05157L162.661 9.46886L156.648 29.5301ZM99.1948 29.2412L93.3755 9.11578L94.7579 8.7306L100.352 28.9202L99.1948 29.2412ZM154.366 28.8881L153.208 28.5671L158.545 8.28123L159.896 8.66641L154.366 28.8881ZM101.51 28.5992L96.1404 8.34544L97.5229 7.99236L102.667 28.3103L101.51 28.5992ZM152.051 28.2783L150.893 27.9894L155.748 7.60717L157.131 7.92815L152.051 28.2783ZM103.825 28.0215L98.9697 7.63928L100.352 7.31828L105.014 27.7647L103.825 28.0215ZM149.8 27.7326L148.611 27.4758L152.983 6.96523L154.366 7.2862L149.8 27.7326ZM106.172 27.5079L101.67 7.02941L103.053 6.74054L107.233 27.2832L106.172 27.5079ZM147.453 27.2511L146.296 27.0264L150.154 6.41954L151.569 6.67633L147.453 27.2511ZM108.486 27.0585L104.468 6.41954L105.882 6.16278L109.58 26.8018L108.486 27.0585ZM145.106 26.8018L143.949 26.6092L147.325 5.90599L148.771 6.16278L145.106 26.8018ZM110.898 26.6092L107.458 5.90599L108.872 5.6813L112.087 26.4166L110.898 26.6092ZM142.824 26.3845H141.666L144.56 5.61709L146.006 5.84178L142.824 26.3845ZM113.213 26.3845L110.287 5.61709L111.701 5.42451L114.402 26.224L113.213 26.3845ZM140.477 26.1919L139.319 26.0314L141.73 5.23193H143.145L140.477 26.1919ZM115.592 26.1919L113.148 5.36033H114.563L116.749 26.1919H115.592ZM138.097 26.1919H136.908L138.837 5.32822H140.284L138.097 26.1919ZM117.939 26.1919L115.945 5.32822H117.392L119.096 26.224L117.939 26.1919ZM135.75 26.1919H134.529L135.975 5.26401H137.39L135.75 26.1919ZM120.286 26.1919L118.807 5.29612H120.254L121.475 26.224L120.286 26.1919ZM133.371 26.1919H132.182L133.114 5.23193H134.561L133.371 26.1919ZM122.665 26.1919L121.668 5.26401H123.115L123.855 26.1919H122.665ZM130.992 26.1919H129.802L130.253 5.23193H131.699L130.992 26.1919ZM125.044 26.1919L124.53 5.23193H125.944L126.234 26.1919H125.044ZM128.613 26.1919H127.52V5.23193H128.966L128.613 26.1919Z" fill="url(#paint2_linear_0_1)"/>
</g>
<path d="M225.022 142.223C233.773 88.3984 197.163 37.6824 143.249 28.9454C89.3362 20.2085 38.5365 56.7592 29.7852 110.584C21.0338 164.408 57.6447 215.124 111.558 223.861C165.471 232.598 216.271 196.047 225.022 142.223Z" fill="url(#paint3_linear_0_1)"/>
<path d="M223.181 141.925C231.767 89.115 195.846 39.3553 142.95 30.7831C90.0532 22.211 40.2114 58.0724 31.6251 110.882C23.0387 163.691 58.9593 213.451 111.856 222.023C164.753 230.595 214.594 194.734 223.181 141.925Z" fill="url(#paint4_radial_0_1)"/>
<path style="mix-blend-mode:multiply" d="M223.181 141.925C231.767 89.115 195.846 39.3553 142.95 30.7831C90.0532 22.211 40.2114 58.0724 31.6251 110.882C23.0387 163.691 58.9593 213.451 111.856 222.023C164.753 230.595 214.594 194.734 223.181 141.925Z" fill="url(#paint5_radial_0_1)"/>
<path style="mix-blend-mode:screen" d="M127.39 117.093C161.713 117.093 189.538 98.828 189.538 76.2967C189.538 53.7655 161.713 35.5002 127.39 35.5002C93.0667 35.5002 65.2422 53.7655 65.2422 76.2967C65.2422 98.828 93.0667 117.093 127.39 117.093Z" fill="url(#paint6_linear_0_1)"/>
<path style="mix-blend-mode:screen" d="M66.3671 96.9035C66.399 98.9098 65.8322 100.88 64.739 102.564C63.6457 104.248 62.0754 105.568 60.2279 106.358C58.3804 107.148 56.3392 107.372 54.3641 107C52.3891 106.628 50.5696 105.678 49.1371 104.27C47.7046 102.863 46.724 101.062 46.32 99.0963C45.916 97.1307 46.1069 95.0896 46.8685 93.2327C47.6301 91.3759 48.9279 89.7872 50.5967 88.6689C52.2654 87.5507 54.2297 86.9534 56.2395 86.9531C58.8979 86.9528 61.4498 87.996 63.3446 89.8576C65.2393 91.7192 66.3249 94.2499 66.3671 96.9035Z" fill="url(#paint7_linear_0_1)"/>
<path style="mix-blend-mode:screen" d="M62.671 62.5268C61.0956 64.0996 59.6167 65.7366 58.1699 67.4057C75.4576 52.5041 97.7524 44.6844 120.577 45.517C143.401 46.3497 165.065 55.773 181.217 71.8945C197.37 88.0161 206.814 109.642 207.654 132.428C208.494 155.215 200.667 177.475 185.745 194.738C187.417 193.326 188.96 191.849 190.632 190.245C199.128 181.878 205.882 171.915 210.506 160.931C215.129 149.947 217.53 138.158 217.57 126.244C217.61 114.329 215.289 102.525 210.74 91.5096C206.19 80.4947 199.503 70.4871 191.064 62.0633C182.624 53.6396 172.598 46.9661 161.564 42.4272C150.53 37.8883 138.705 35.5737 126.771 35.6168C114.837 35.6599 103.029 38.0597 92.0279 42.6782C81.0268 47.2966 71.0496 54.0423 62.671 62.5268Z" fill="url(#paint8_linear_0_1)"/>
<path style="mix-blend-mode:color-dodge" d="M222.364 90.1952C215.741 101.333 188.541 97.3851 161.631 81.3682C134.721 65.3514 118.26 43.3643 124.915 32.2584C131.57 21.1525 158.77 25.0363 185.68 41.0532C212.59 57.0701 229.019 79.0572 222.364 90.1952Z" fill="url(#paint9_radial_0_1)"/>
<defs>
<linearGradient id="paint0_linear_0_1" x1="213.944" y1="39.9916" x2="39.0424" y2="215.214" gradientUnits="userSpaceOnUse">
<stop stop-color="#E3E3E3"/>
<stop offset="0.02" stop-color="#D5D5D5"/>
<stop offset="0.05" stop-color="#CACACA"/>
<stop offset="0.08" stop-color="#C7C7C7"/>
<stop offset="0.22" stop-color="#8E8E8E"/>
<stop offset="0.28" stop-color="#ACACAC"/>
<stop offset="0.35" stop-color="#CDCDCD"/>
<stop offset="0.39" stop-color="#D9D9D9"/>
<stop offset="0.44" stop-color="#E0E0E0"/>
<stop offset="0.52" stop-color="#F3F3F3"/>
<stop offset="0.56" stop-color="white"/>
<stop offset="0.64" stop-color="#E5E5E5"/>
<stop offset="0.75" stop-color="#BFBFBF"/>
<stop offset="0.78" stop-color="#A8A8A8"/>
<stop offset="0.81" stop-color="#959595"/>
<stop offset="0.84" stop-color="#8E8E8E"/>
<stop offset="0.92" stop-color="#8E8E8E"/>
<stop offset="0.95" stop-color="#B6B6B6"/>
<stop offset="0.98" stop-color="#D7D7D7"/>
<stop offset="1" stop-color="#E3E3E3"/>
</linearGradient>
<linearGradient id="paint1_linear_0_1" x1="127.458" y1="245.322" x2="127.458" y2="12.5798" gradientUnits="userSpaceOnUse">
<stop stop-color="#E3E3E3"/>
<stop offset="0.02" stop-color="#D5D5D5"/>
<stop offset="0.05" stop-color="#CACACA"/>
<stop offset="0.08" stop-color="#C7C7C7"/>
<stop offset="0.22" stop-color="#8E8E8E"/>
<stop offset="0.28" stop-color="#ACACAC"/>
<stop offset="0.35" stop-color="#CDCDCD"/>
<stop offset="0.39" stop-color="#D9D9D9"/>
<stop offset="0.44" stop-color="#E0E0E0"/>
<stop offset="0.52" stop-color="#F3F3F3"/>
<stop offset="0.56" stop-color="white"/>
<stop offset="0.64" stop-color="#E5E5E5"/>
<stop offset="0.75" stop-color="#BFBFBF"/>
<stop offset="0.78" stop-color="#A8A8A8"/>
<stop offset="0.81" stop-color="#959595"/>
<stop offset="0.84" stop-color="#8E8E8E"/>
<stop offset="0.92" stop-color="#8E8E8E"/>
<stop offset="0.95" stop-color="#B6B6B6"/>
<stop offset="0.98" stop-color="#D7D7D7"/>
<stop offset="1" stop-color="#E3E3E3"/>
</linearGradient>
<linearGradient id="paint2_linear_0_1" x1="127.391" y1="248.534" x2="127.391" y2="4.26899" gradientUnits="userSpaceOnUse">
<stop stop-color="#C6C6C6"/>
<stop offset="0.01" stop-color="#BABABA"/>
<stop offset="0.03" stop-color="#999999"/>
<stop offset="0.05" stop-color="#646464"/>
<stop offset="0.08" stop-color="#181818"/>
<stop offset="0.16" stop-color="#181818"/>
<stop offset="0.18" stop-color="#1F1F1F"/>
<stop offset="0.2" stop-color="#323232"/>
<stop offset="0.23" stop-color="#525252"/>
<stop offset="0.25" stop-color="#7C7C7C"/>
<stop offset="0.31" stop-color="#A3A3A3"/>
<stop offset="0.4" stop-color="#E5E5E5"/>
<stop offset="0.44" stop-color="white"/>
<stop offset="0.47" stop-color="#EAEAEA"/>
<stop offset="0.53" stop-color="#CBCBCB"/>
<stop offset="0.58" stop-color="#B8B8B8"/>
<stop offset="0.61" stop-color="#B1B1B1"/>
<stop offset="0.63" stop-color="#A5A5A5"/>
<stop offset="0.67" stop-color="#848484"/>
<stop offset="0.73" stop-color="#505050"/>
<stop offset="0.78" stop-color="#181818"/>
<stop offset="0.89" stop-color="#777777"/>
<stop offset="0.92" stop-color="#8D8D8D"/>
<stop offset="0.94" stop-color="#909090"/>
<stop offset="0.96" stop-color="#9B9B9B"/>
<stop offset="0.98" stop-color="#ACACAC"/>
<stop offset="1" stop-color="#C6C6C6"/>
</linearGradient>
<linearGradient id="paint3_linear_0_1" x1="202.08" y1="51.8676" x2="62.4545" y2="191.692" gradientUnits="userSpaceOnUse">
<stop stop-color="#E3E3E3"/>
<stop offset="0.02" stop-color="#D5D5D5"/>
<stop offset="0.05" stop-color="#CACACA"/>
<stop offset="0.08" stop-color="#C7C7C7"/>
<stop offset="0.22" stop-color="#8E8E8E"/>
<stop offset="0.28" stop-color="#ACACAC"/>
<stop offset="0.35" stop-color="#CDCDCD"/>
<stop offset="0.39" stop-color="#D9D9D9"/>
<stop offset="0.44" stop-color="#E0E0E0"/>
<stop offset="0.52" stop-color="#F3F3F3"/>
<stop offset="0.56" stop-color="white"/>
<stop offset="0.64" stop-color="#E5E5E5"/>
<stop offset="0.75" stop-color="#BFBFBF"/>
<stop offset="0.78" stop-color="#A8A8A8"/>
<stop offset="0.81" stop-color="#959595"/>
<stop offset="0.84" stop-color="#8E8E8E"/>
<stop offset="0.92" stop-color="#8E8E8E"/>
<stop offset="0.95" stop-color="#B6B6B6"/>
<stop offset="0.98" stop-color="#D7D7D7"/>
<stop offset="1" stop-color="#E3E3E3"/>
</linearGradient>
<radialGradient id="paint4_radial_0_1" cx="0" cy="0" r="1" gradientUnits="userSpaceOnUse" gradientTransform="translate(127.457 126.367) scale(97.0314 96.8716)">
<stop offset="0.41" stop-color="#00CC32"/>
<stop offset="0.55" stop-color="#03C82E"/>
<stop offset="0.71" stop-color="#0ABA24"/>
<stop offset="0.87" stop-color="#17A512"/>
<stop offset="1" stop-color="#248E00"/>
</radialGradient>
<radialGradient id="paint5_radial_0_1" cx="0" cy="0" r="1" gradientUnits="userSpaceOnUse" gradientTransform="translate(127.457 126.367) scale(97.0314 96.8716)">
<stop offset="0.85" stop-color="white"/>
<stop offset="0.87" stop-color="#FBFDFB"/>
<stop offset="0.89" stop-color="#EFF7EF"/>
<stop offset="0.91" stop-color="#DBEDDA"/>
<stop offset="0.93" stop-color="#BFDEBD"/>
<stop offset="0.95" stop-color="#9ACC98"/>
<stop offset="0.96" stop-color="#6EB56B"/>
<stop offset="0.98" stop-color="#3A9A36"/>
<stop offset="1" stop-color="#057F00"/>
</radialGradient>
<linearGradient id="paint6_linear_0_1" x1="127.39" y1="180.294" x2="127.39" y2="40.4754" gradientUnits="userSpaceOnUse">
<stop/>
<stop offset="0.14" stop-color="#020401"/>
<stop offset="0.27" stop-color="#090F04"/>
<stop offset="0.39" stop-color="#15220A"/>
<stop offset="0.51" stop-color="#253D12"/>
<stop offset="0.63" stop-color="#3A5F1C"/>
<stop offset="0.75" stop-color="#548A29"/>
<stop offset="0.87" stop-color="#72BC38"/>
<stop offset="0.98" stop-color="#94F449"/>
<stop offset="1" stop-color="#9BFF4C"/>
</linearGradient>
<linearGradient id="paint7_linear_0_1" x1="35.1486" y1="83.7433" x2="64.3784" y2="102.211" gradientUnits="userSpaceOnUse">
<stop/>
<stop offset="0.14" stop-color="#020401"/>
<stop offset="0.27" stop-color="#090F04"/>
<stop offset="0.39" stop-color="#15220A"/>
<stop offset="0.51" stop-color="#253D12"/>
<stop offset="0.63" stop-color="#3A5F1C"/>
<stop offset="0.75" stop-color="#548A29"/>
<stop offset="0.87" stop-color="#72BC38"/>
<stop offset="0.98" stop-color="#94F449"/>
<stop offset="1" stop-color="#9BFF4C"/>
</linearGradient>
<linearGradient id="paint8_linear_0_1" x1="122.105" y1="131.149" x2="190.672" y2="62.4697" gradientUnits="userSpaceOnUse">
<stop/>
<stop offset="0.14" stop-color="#020401"/>
<stop offset="0.27" stop-color="#090F04"/>
<stop offset="0.39" stop-color="#15220A"/>
<stop offset="0.51" stop-color="#253D12"/>
<stop offset="0.63" stop-color="#3A5F1C"/>
<stop offset="0.75" stop-color="#548A29"/>
<stop offset="0.87" stop-color="#72BC38"/>
<stop offset="0.98" stop-color="#94F449"/>
<stop offset="1" stop-color="#9BFF4C"/>
</linearGradient>
<radialGradient id="paint9_radial_0_1" cx="0" cy="0" r="1" gradientUnits="userSpaceOnUse" gradientTransform="translate(170.519 54.6653) rotate(30.9221) scale(56.627 23.6159)">
<stop stop-color="#4F4F4F"/>
<stop offset="0.12" stop-color="#3D3D3D"/>
<stop offset="0.33" stop-color="#222222"/>
<stop offset="0.54" stop-color="#0F0F0F"/>
<stop offset="0.76" stop-color="#040404"/>
<stop offset="1"/>
</radialGradient>
</defs>
</svg>