<svg width="254" height="253" viewBox="0 0 254 253" fill="none" xmlns="http://www.w3.org/2000/svg">
<path d="M127.39 252.803C197.314 252.803 254 196.211 254 126.402C254 56.592 197.314 0 127.39 0C57.4646 0 0.779297 56.592 0.779297 126.402C0.779297 196.211 57.4646 252.803 127.39 252.803Z" fill="url(#paint0_linear_0_1)"/>
<path d="M127.39 250.525C196.054 250.525 251.718 194.953 251.718 126.402C251.718 57.8507 196.054 2.27905 127.39 2.27905C58.7258 2.27905 3.0625 57.8507 3.0625 126.402C3.0625 194.953 58.7258 250.525 127.39 250.525Z" fill="url(#paint1_linear_0_1)"/>
<g style="mix-blend-mode:screen">
<path d="M127.423 248.534H125.976L126.201 227.575H127.391L127.423 248.534ZM128.837 248.534L128.612 227.575H129.77L130.284 248.534H128.837ZM124.529 248.534H123.114L123.854 227.575H125.044L124.529 248.534ZM131.699 248.534L130.991 227.575H132.149L133.146 248.502L131.699 248.534ZM121.7 248.534H120.253L121.475 227.607H122.632L121.7 248.534ZM134.56 248.534L133.403 227.414H134.592L136.039 248.342L134.56 248.534ZM118.838 248.534H117.392L119.096 227.671H120.285L118.838 248.534ZM137.422 248.534L135.718 227.639H136.907L138.836 248.502L137.422 248.534ZM115.977 248.534H114.53L116.716 227.703H117.906L115.977 248.534ZM140.283 248.534L138.097 227.703H139.254L141.698 248.502L140.283 248.534ZM113.116 248.374H111.701L114.369 227.575H115.559L113.116 248.374ZM143.112 248.374L140.444 227.575L141.633 227.414L144.559 248.181L143.112 248.374ZM110.254 247.347L108.872 247.154L112.087 226.419H113.276L110.254 247.347ZM145.942 247.026L142.727 226.323L143.852 226.13L147.388 247.026H145.942ZM107.361 246.833L105.946 246.577L109.611 225.938L110.769 226.13L107.361 246.833ZM148.739 246.577L145.074 225.938L146.263 225.713L150.121 246.32L148.739 246.577ZM104.563 246.32L103.117 246.063L107.296 225.488L108.422 225.713L104.563 246.32ZM151.568 246.031L147.388 225.488L148.578 225.263L152.951 245.742L151.568 246.031ZM101.734 245.774L100.352 245.453L104.949 225.007L106.107 225.263L101.734 245.774ZM154.365 245.453L149.735 225.007L150.893 224.718L155.908 245.228L154.365 245.453ZM98.937 245.132L97.5545 244.811L102.667 224.557L103.856 224.846L98.937 245.132ZM157.13 244.779L152.115 224.557L153.272 224.236L158.577 244.522L157.13 244.779ZM96.0434 244.426L94.6288 244.073L100.223 223.851L101.348 224.172L96.0434 244.426ZM159.799 244.041L154.204 223.851L155.362 223.53L161.374 243.816L159.799 244.041ZM93.4392 243.816L92.0888 243.399L98.0368 223.305L99.1621 223.626L93.4392 243.816ZM162.757 243.367L156.68 223.305L157.805 222.952L164.235 242.949L162.757 243.367ZM90.7064 242.982L89.3239 242.532L95.754 222.631L96.8793 222.985L90.7064 242.982ZM165.554 242.5L159.123 222.567L160.217 222.182L167 242.019L165.554 242.5ZM88.0378 242.051L86.6875 241.569L93.6964 221.829L94.8217 222.214L88.0378 242.051ZM168.415 241.569L161.406 221.797L162.339 221.348L169.573 241.024L168.415 241.569ZM85.1764 241.088L83.8904 240.606L91.3494 220.994L92.4747 221.412L85.1764 241.088ZM170.891 240.606L163.4 221.027L164.525 220.609L172.241 240.093L170.891 240.606ZM82.54 240.093L81.2219 239.579L89.131 220.32L90.2563 220.77L82.54 240.093ZM173.559 239.579L165.65 220.32L166.711 219.871L174.877 239.13L173.559 239.579ZM79.8715 239.033L78.5533 238.456L86.9447 219.197L88.0378 219.678L79.8715 239.033ZM176.324 238.456L167.965 219.197L169.058 218.715L177.642 237.974L176.324 238.456ZM77.3959 237.878L76.1098 237.268L84.7906 218.138L85.8516 218.619L77.3959 237.878ZM178.8 237.396L169.958 218.138L171.019 217.624L180.086 236.53L178.8 237.396ZM74.6309 236.787L73.3449 236.145L82.6365 217.367L83.6974 217.881L74.6309 236.787ZM181.372 236.177L171.984 217.207L173.077 216.693L182.561 235.374L181.372 236.177ZM72.0588 235.503L70.7728 234.861L80.4181 216.276L81.4791 216.822L72.0588 235.503ZM183.944 234.893L174.299 216.308L175.36 215.762L185.198 234.187L183.944 234.893ZM69.5189 234.187L68.2651 233.513L78.3926 214.928L79.4536 215.506L69.5189 234.187ZM186.452 233.545L176.292 214.928L177.321 214.35L187.706 232.582L186.452 233.545ZM66.979 232.806C66.5932 232.55 66.1753 232.325 65.7573 232.1L76.3349 213.997L77.3638 214.575L66.979 232.806ZM188.927 232.132L178.414 213.869L179.443 213.259L190.246 231.234L188.927 232.132ZM64.5034 231.362L63.2817 230.624L74.3094 212.777L75.3061 213.387L64.5034 231.362ZM191.274 230.495L180.311 212.649L181.308 212.007L192.496 229.757L191.274 230.495ZM61.9635 229.693L60.7417 228.923L72.3161 211.333L73.2806 211.975L61.9635 229.693ZM193.782 228.987L182.369 211.397L183.333 210.723L194.972 228.184L193.782 228.987ZM59.6165 228.12L58.4268 227.318L70.2584 210.017L71.2551 210.691L59.6165 228.12ZM196.129 227.414L184.362 210.049L185.294 209.407L197.319 226.579L196.129 227.414ZM57.2373 226.515L56.0798 225.681L68.3293 208.669L69.2939 209.343L57.2373 226.515ZM198.508 225.745L186.259 208.733L187.223 208.027L199.666 224.91L198.508 225.745ZM54.9224 224.846L53.7971 224.012L66.4003 207.224L67.3648 207.963L54.9224 224.846ZM200.92 224.076L188.284 207.321L189.217 206.615L202.077 223.177L200.92 224.076ZM52.7362 223.113L51.5787 222.214L64.632 205.812L65.5643 206.518L52.7362 223.113ZM203.17 222.31L190.149 205.876L191.114 205.138L204.135 221.348L203.17 222.31ZM50.4213 221.348L49.3282 220.449L62.7029 204.4L63.6353 205.17L50.4213 221.348ZM205.324 220.513L191.95 204.464L192.85 203.726L206.45 219.775L205.324 220.513ZM48.2029 219.518L47.1419 218.587L60.9025 202.763L61.8027 203.533L48.2029 219.518ZM207.511 218.683L193.782 202.827L194.65 202.057L208.604 217.72L207.511 218.683ZM46.0488 217.624L44.9878 216.693L59.1342 201.19L60.0023 201.992L46.0488 217.624ZM209.665 216.758L195.518 201.286L196.419 200.452L210.726 215.795L209.665 216.758ZM43.9268 215.698L42.8658 214.703L57.398 199.585C57.6922 199.836 57.9713 200.104 58.2339 200.388L43.9268 215.698ZM211.755 214.832L197.287 199.649L198.123 198.815L212.783 213.837L211.755 214.832ZM41.8691 213.74L40.8403 212.745L55.6619 197.884L56.5299 198.751L41.8691 213.74ZM213.78 212.809L198.926 198.012L199.794 197.146L214.809 211.718C214.487 212.168 214.134 212.488 213.78 212.809ZM39.8436 211.718L38.847 210.691L54.0222 196.215L54.8581 197.081L39.8436 211.718ZM215.806 210.787L200.63 196.311L201.466 195.444L216.802 209.728L215.806 210.787ZM37.8503 209.632L36.9501 208.508L52.479 194.417L53.2827 195.284L37.8503 209.632ZM217.895 208.701L202.367 194.578L203.202 193.679L218.86 207.642L217.895 208.701ZM36.0498 207.513L35.0853 206.422L50.9679 192.716L51.7395 193.583L36.0498 207.513ZM219.792 206.55L203.974 192.78L204.746 191.882L220.821 205.459L219.792 206.55ZM34.0565 205.299L33.1241 204.207L49.1995 190.854L49.9712 191.753L34.0565 205.299ZM221.528 204.304L205.453 190.919C205.71 190.63 205.935 190.309 206.192 189.988L222.493 203.212C222.139 203.629 221.85 204.015 221.528 204.368V204.304ZM32.2239 203.084L31.3236 201.992L47.7849 189.153L48.5565 190.084L32.2239 203.084ZM223.425 202.089L206.9 189.25L207.607 188.351L224.229 201.19L223.425 202.089ZM30.5199 200.869L29.6518 199.714L46.4346 187.131L47.1419 188.062L30.5199 200.869ZM225.161 199.81L208.379 187.195L209.118 186.232L225.965 198.879L225.161 199.81ZM28.7837 198.558L27.9478 197.435L45.0199 185.205L45.7272 186.168L28.7837 198.558ZM226.865 197.499L209.793 185.302L210.501 184.306L227.701 196.343L226.865 197.499ZM27.1119 196.247C26.8547 195.862 26.5653 195.477 26.3081 195.059L43.6696 183.279C43.8625 183.6 44.0875 183.921 44.3126 184.242L27.1119 196.247ZM228.505 195.156L211.176 183.344L211.851 182.349L229.309 193.968C228.987 194.449 228.698 194.835 228.441 195.22L228.505 195.156ZM25.5043 193.872C25.2471 193.487 24.9899 193.069 24.7006 192.684L42.3514 181.289L42.9944 182.284L25.5043 193.872ZM230.113 192.78L212.494 181.353L213.137 180.358L230.884 191.561L230.113 192.78ZM23.9611 191.496L23.1895 190.277L41.0654 179.299L41.7084 180.294L23.9611 191.496ZM231.624 190.373L213.78 179.428L214.391 178.4L232.395 189.185L231.624 190.373ZM22.3857 189.25L21.6462 187.998L39.8115 177.47L40.3902 178.465L22.3857 189.25ZM233.071 187.966L214.97 177.373L215.548 176.346L233.81 186.714L233.071 187.966ZM20.8746 186.65L20.1994 185.43L38.5576 175.255L39.1363 176.314L20.8746 186.65ZM234.421 185.462L216.031 175.319L216.609 174.292L235.096 184.21L234.421 185.462ZM19.4921 184.146L18.8169 182.894L37.4323 173.265C37.6252 173.618 37.8182 173.971 37.9789 174.324L19.4921 184.146ZM235.836 182.83L217.22 173.201C217.413 172.848 217.606 172.494 217.767 172.141L236.479 181.771C236.286 182.092 236.061 182.509 235.836 182.83ZM18.2382 181.546C18.0132 181.097 17.8203 180.679 17.5952 180.262L36.4356 170.986L36.9501 172.045L18.2382 181.546ZM237.122 180.294L218.313 171.018L218.828 169.959L237.765 178.978C237.572 179.62 237.347 179.973 237.122 180.391V180.294ZM16.9843 178.978L16.3735 177.694L35.4068 168.835L35.9212 169.927L16.9843 178.978ZM238.375 177.726L219.342 168.867L219.824 167.776L239.115 176.378C238.761 176.924 238.568 177.373 238.375 177.823V177.726ZM15.7626 176.41L15.1839 175.094L34.4744 166.749L34.9567 167.808L15.7626 176.41ZM239.501 175.159L220.21 166.781L220.692 165.722L239.983 173.843C239.951 174.292 239.758 174.741 239.501 175.159ZM14.4444 173.875L13.8979 172.559L33.1884 164.63C33.3578 164.986 33.508 165.35 33.6385 165.722L14.4444 173.875ZM240.465 172.527L221.175 164.598C221.335 164.245 221.464 163.86 221.625 163.507L241.14 171.178C241.044 171.628 240.851 172.077 240.658 172.527H240.465ZM13.3513 171.211C13.1906 170.761 12.9976 170.344 12.8369 169.895L32.4489 162.416L32.8991 163.539L13.3513 171.211ZM241.623 169.83L221.978 162.416C221.978 162.031 222.268 161.645 222.396 161.292L242.105 168.514L241.623 169.83ZM12.3868 168.546L11.9045 167.198L31.8381 160.361L32.2239 161.485L12.3868 168.546ZM242.587 167.166L222.814 160.169L223.2 159.045L243.069 165.786L242.587 167.166ZM11.4544 165.85L10.9721 164.502L30.9379 158.082L31.3236 159.206L11.4544 165.85ZM243.52 164.438L223.586 158.018C223.685 157.638 223.803 157.263 223.94 156.895L243.97 163.314C243.938 163.571 243.809 163.988 243.648 164.438H243.52ZM10.5541 163.122C10.3934 162.672 10.2648 162.191 10.1362 161.742L30.5199 155.707C30.5199 156.06 30.745 156.445 30.8414 156.831L10.5541 163.122ZM244.388 161.677L224.293 155.643C224.293 155.258 224.518 154.873 224.615 154.52L244.806 160.297C244.806 160.779 244.645 161.228 244.516 161.677H244.388ZM9.6861 160.361L9.30026 159.013L29.5232 153.396L29.8447 154.552L9.6861 160.361ZM245.159 158.949L224.904 153.364C224.904 152.979 225.129 152.594 225.226 152.209L245.513 157.569C245.577 158.018 245.449 158.468 245.32 158.949H245.159ZM8.91446 157.633C8.91446 157.152 8.68941 156.702 8.5608 156.221L28.9123 151.117C28.9123 151.502 29.1053 151.888 29.2339 152.273L8.91446 157.633ZM245.931 156.157L225.547 151.085L225.837 149.93L246.252 154.776C246.285 155.226 246.156 155.707 245.931 156.157ZM8.23932 154.841C8.23932 154.359 8.0464 153.91 7.91779 153.46L28.3979 148.806L28.6873 149.962L8.23932 154.841ZM246.574 153.364L226.094 148.774C226.094 148.389 226.255 148.004 226.351 147.619L246.895 151.984C246.928 152.433 246.799 152.915 246.703 153.364H246.574ZM7.62845 152.048L7.33905 150.636L27.9157 146.495L28.1407 147.651L7.62845 152.048ZM247.313 150.732L226.64 146.431C226.64 146.046 226.64 145.661 226.865 145.275L247.474 149.159C247.474 149.641 247.41 150.122 247.313 150.732ZM7.17834 149.416C7.17834 148.935 7.01758 148.453 6.92112 147.972L27.5941 144.312C27.5941 144.698 27.5942 145.083 27.8192 145.468L7.17834 149.416ZM247.828 147.907L227.155 144.28L227.348 143.093L248.085 146.527C247.989 146.816 247.924 147.298 247.828 147.747V147.907ZM6.69604 146.591C6.69604 146.11 6.53531 145.628 6.47101 145.147L27.2083 141.937L27.4012 143.093L6.69604 146.591ZM248.31 145.115L227.541 141.905L227.734 140.717L248.503 143.638L248.31 145.115ZM6.24593 143.735L6.05304 142.322L26.8868 139.658C26.8868 140.043 26.8868 140.429 26.8868 140.814L6.24593 143.735ZM248.696 142.258L227.862 139.594C227.862 139.209 227.862 138.792 228.023 138.406L248.889 140.846L248.696 142.258ZM5.89227 140.91C5.89227 140.429 5.89226 139.947 5.73151 139.498L26.5975 137.283V138.471L5.89227 140.91ZM249.146 139.273L228.28 137.058C228.28 136.673 228.28 136.288 228.28 135.903L249.178 137.829C249.146 138.31 249.146 138.792 249.146 139.273ZM5.57079 137.893V136.481L26.4689 134.747V135.967L5.57079 137.893ZM249.307 136.416L228.377 134.683V133.528L249.307 134.972V136.416ZM5.34571 135.068V133.592L26.3081 132.404C26.3081 132.789 26.3081 133.174 26.3081 133.592L5.34571 135.068ZM249.5 133.56L228.537 132.34C228.537 131.955 228.537 131.57 228.537 131.152L249.5 132.115C249.564 132.597 249.532 133.078 249.5 133.56ZM5.15281 132.179C5.15281 131.698 5.15281 131.216 5.15281 130.735L26.1474 130.029C26.1474 130.446 26.1474 130.831 26.1474 131.216L5.15281 132.179ZM249.5 130.703L228.505 129.965V128.777L249.5 129.259C249.66 129.74 249.66 130.221 249.628 130.703H249.5ZM4.95992 129.323C4.95992 128.873 4.95992 128.392 4.95992 127.91L25.9545 127.654C25.9545 128.039 25.9545 128.456 25.9545 128.841L4.95992 129.323ZM249.564 127.846L228.569 127.589V126.273H249.564V127.846ZM4.92773 126.466V125.054L25.9223 125.278V126.402L4.92773 126.466ZM228.698 125.054C228.698 124.669 228.698 124.283 228.698 123.866L249.693 123.385C249.693 123.866 249.693 124.348 249.693 124.829L228.698 125.054ZM26.1474 124.059L5.15281 123.609C5.15281 123.096 5.15281 122.614 5.15281 122.133L26.1474 122.871C26.083 123.32 26.083 123.706 26.083 124.091L26.1474 124.059ZM228.698 122.678C228.698 122.293 228.698 121.908 228.698 121.523L249.66 120.528C249.66 121.009 249.66 121.491 249.66 121.972L228.698 122.678ZM26.1474 121.683L5.18495 120.72C5.18495 120.239 5.18495 119.79 5.18495 119.308L26.1474 120.496C26.1795 120.913 26.1795 121.33 26.1474 121.844V121.683ZM228.537 120.335V119.148L249.5 117.671V119.083L228.537 120.335ZM26.2759 119.308L5.34571 117.864V116.451L26.2759 118.121V119.308ZM228.377 117.928C228.377 117.543 228.377 117.158 228.377 116.772L249.275 114.814C249.275 115.296 249.275 115.777 249.275 116.259L228.377 117.928ZM26.4689 116.965L5.57079 115.007C5.57079 114.558 5.57079 114.076 5.57079 113.595L26.4689 115.745V116.965ZM228.151 115.585C228.151 115.2 228.151 114.814 228.151 114.429L248.985 111.958C248.985 112.439 248.985 112.921 248.985 113.402L228.151 115.585ZM26.7261 114.59L5.86014 112.215L6.05304 110.77L26.8547 113.466C26.8225 113.851 26.7582 114.237 26.7261 114.622V114.59ZM227.862 113.242C227.862 112.824 227.862 112.439 227.701 112.054L248.503 109.133L248.696 110.545L227.862 113.242ZM27.0154 112.215L6.2138 109.326C6.2138 108.844 6.37453 108.363 6.43883 107.881L27.1762 111.091C27.3048 111.508 27.0797 111.894 27.0154 112.215ZM227.541 110.866L227.348 109.679L248.053 106.276C248.053 106.726 248.053 107.207 248.278 107.689L227.541 110.866ZM27.3048 109.936L6.5996 106.533C6.5996 106.052 6.59962 105.602 6.82468 105.121L27.4977 108.78L27.3048 109.936ZM227.091 108.587L226.865 107.432L247.506 103.516C247.506 103.965 247.667 104.447 247.764 104.896L227.091 108.587ZM27.7549 107.592L7.11402 103.709L7.40337 102.296L27.98 106.437C27.9478 106.822 27.8513 107.207 27.787 107.592H27.7549ZM226.64 106.244C226.64 105.859 226.64 105.474 226.383 105.089L246.928 100.691L247.217 102.104L226.64 106.244ZM28.205 105.281L7.66058 100.916L8.01424 99.3753L28.5265 103.965L28.205 105.281ZM226.126 103.933L225.869 102.778L246.285 97.9309C246.285 98.3803 246.51 98.8297 246.606 99.3111L226.126 103.933ZM28.7194 102.97L8.27146 98.1235C8.27146 97.642 8.49651 97.1927 8.62512 96.7112L29.0088 101.815L28.7194 102.97ZM225.579 101.622L225.29 100.499L245.577 95.1384C245.577 95.5878 245.834 96.0692 245.931 96.5186L225.579 101.622ZM29.2981 100.659L8.97878 95.331L9.36457 93.9508L29.6518 99.3753L29.2981 100.659ZM225.033 99.3753C224.945 98.9956 224.838 98.6207 224.711 98.2519L244.87 92.4101C245.031 92.8595 245.159 93.3088 245.288 93.7903L225.033 99.3753ZM29.9733 98.4124L9.81469 92.6027L10.2005 91.2225L30.327 97.2569C30.1984 97.6099 30.1019 97.9951 29.9733 98.3803V98.4124ZM224.39 97.0964L224.036 95.9729L244.066 89.5534C244.066 90.0348 244.323 90.4842 244.484 90.9336L224.39 97.0964ZM30.6806 96.1655L10.6185 89.7459C10.7792 89.2966 10.9078 88.8472 11.0686 88.3978L31.0343 94.8174C30.9057 95.331 30.7771 95.7162 30.6806 96.1655ZM223.586 94.8816L223.2 93.7582L243.069 86.9855C243.23 87.4349 243.359 87.8843 243.52 88.3336L223.586 94.8816ZM31.3236 93.8866L11.4222 87.146L11.9045 85.7979L31.7094 92.7631L31.3236 93.8866ZM222.814 92.6348C222.814 92.2496 222.525 91.8965 222.396 91.5113L242.105 84.2572L242.587 85.6374L222.814 92.6348ZM32.0953 91.6718L12.3868 84.4498C12.5475 84.0004 12.7083 83.551 12.9012 83.1017L32.5132 90.5484C32.4811 90.8373 32.3203 91.2225 32.1917 91.6076L32.0953 91.6718ZM221.978 90.3879C221.978 90.0348 221.689 89.6817 221.561 89.2966L241.076 81.5931C241.269 82.0424 241.43 82.4918 241.591 82.9412L221.978 90.3879ZM32.9633 89.425L13.4156 81.7535C13.4156 81.3042 13.7693 80.8548 13.9622 80.4375L33.2527 88.3336L32.9633 89.425ZM221.11 88.2052C220.95 87.8201 220.821 87.467 220.66 87.1139L239.951 78.961L240.53 80.277L221.11 88.2052ZM33.8314 87.2423L14.5409 79.0894C14.7338 78.6401 14.8945 78.1907 15.0874 77.7734L34.378 86.151L33.8314 87.2423ZM220.307 86.0226L219.857 84.9633L238.986 76.329L239.565 77.645L220.307 86.0226ZM34.9245 85.0275L15.634 76.4574C15.859 76.008 16.052 75.5908 16.2449 75.1414L35.2782 83.9683L34.9245 85.0275ZM219.342 83.872L218.86 82.8128L237.732 73.697C237.958 74.1142 238.15 74.5315 238.343 74.9809L219.342 83.872ZM35.9212 82.877L16.9522 73.697L17.5952 72.413L36.4035 81.6573C36.2427 82.1066 36.082 82.4597 35.8891 82.8128L35.9212 82.877ZM218.313 81.7535L217.799 80.6943L236.511 71.0649L237.154 72.3168L218.313 81.7535ZM36.9501 80.6943L18.2382 71.0649C18.4311 70.6156 18.6562 70.1983 18.8813 69.781L37.4966 79.4104L36.9501 80.6943ZM217.22 79.5709C217.027 79.2178 216.867 78.8647 216.674 78.5438L235.16 68.5934L235.836 69.8452L217.22 79.5709ZM38.0432 78.608L19.5564 68.6576L20.2316 67.4058L38.6219 77.5487L38.0432 78.608ZM216.095 77.4845L215.516 76.4574L233.778 66.0898L234.453 67.3416L216.095 77.4845ZM39.2649 76.5216L20.8746 66.154C21.1318 65.7367 21.3569 65.3194 21.6141 64.9342L39.7472 75.4624L39.2649 76.5216ZM215.002 75.4303L214.391 74.4352L232.395 63.6182C232.62 64.0355 232.878 64.4528 233.135 64.87L215.002 75.4303ZM40.4545 74.4673L22.45 63.6824L23.2216 62.4627L41.0975 73.4402L40.4545 74.4673ZM213.78 73.4081L213.137 72.413L230.884 61.2109L231.656 62.4306L213.78 73.4081ZM41.7084 72.4452L23.9611 61.243L24.7327 60.0233L42.3514 71.4501L41.7084 72.4452ZM212.494 71.418C212.299 71.0746 212.084 70.7424 211.851 70.423L229.341 58.8035L230.113 59.9911L212.494 71.418ZM42.9623 70.4872L25.4722 58.8998C25.7294 58.5146 25.9866 58.0974 26.2759 57.7122L43.6053 69.5242L42.9623 70.4872ZM211.144 69.4921L210.436 68.5292L227.669 56.5246L228.473 57.6801L211.144 69.4921ZM44.2805 68.5292L27.0797 56.5246L27.9157 55.369L44.9878 67.5663L44.2805 68.5292ZM209.761 67.5663L209.054 66.6033L225.997 54.1814L226.801 55.3369L209.761 67.5663ZM45.7916 66.6033L28.8802 54.2135L29.7482 53.058L46.4989 65.6725L45.7916 66.6033ZM208.475 65.6404L207.768 64.7095L224.39 51.8704L225.258 52.9938L208.475 65.6404ZM47.2383 64.7095L30.6163 51.8704L31.4844 50.7469L47.9778 63.5861L47.2383 64.7095ZM207.028 63.7787C206.803 63.4577 206.546 63.1688 206.289 62.8479L222.622 49.6556L223.522 50.779L207.028 63.7787ZM48.7173 62.8479L32.3846 49.6556L33.317 48.5643L49.3924 61.9491L48.7173 62.8479ZM205.549 61.9491L204.778 61.0183L220.853 47.473L221.786 48.5643L205.549 61.9491ZM50.0998 60.8578L34.0243 47.3125L34.9567 46.2211L50.8071 59.9591L50.0998 60.8578ZM203.878 59.9591L203.106 59.0924L218.763 45.1298L219.728 46.2211L203.878 59.9591ZM51.643 59.0924L35.9855 45.1298L36.9501 44.0706L52.4468 58.1937L51.643 59.0924ZM202.302 58.1937L201.498 57.327L216.995 43.1076L217.992 44.1669L202.302 58.1937ZM53.2506 57.327L37.9146 43.0434L38.9113 41.9842L54.0544 56.4604L53.2506 57.327ZM200.695 56.4604L199.859 55.5937L214.873 40.9571L215.87 41.9842L200.695 56.4604ZM54.8903 55.5937L39.8758 40.9571L40.9046 39.9299L55.7262 54.7592L54.8903 55.5937ZM199.023 54.7592L198.187 53.9246L212.848 38.9349L213.876 39.962L199.023 54.7592ZM56.5621 53.9246L41.9013 38.9349L42.9301 37.9399L57.4302 53.0901L56.5621 53.9246ZM197.319 53.1222L196.451 52.2876L210.758 36.9769L211.819 37.9399L197.319 53.1222ZM58.2983 52.2876L43.9911 36.9448L45.0521 35.9819L59.1663 51.4852L58.2983 52.2876ZM195.583 51.4852L194.715 50.7148L208.636 35.1794L209.729 36.1745L195.583 51.4852ZM60.0666 50.6827L46.1131 35.1794L47.174 34.2165L60.9347 50.0408L60.0666 50.6827ZM193.814 49.9124L192.914 49.142L206.482 33.0931L207.575 34.0239L193.814 49.9124ZM61.9956 49.142L48.3958 33.0931L49.4889 32.1622L62.8637 48.2112L61.9956 49.142ZM192.11 48.3717L191.21 47.6334L204.392 31.3277L205.517 32.2585L192.11 48.3717ZM63.7961 47.6334L50.5821 31.3277L51.7073 30.461L64.5677 46.8952L63.7961 47.6334ZM190.278 46.8952L189.345 46.1569L202.206 29.5623L203.331 30.4289L190.278 46.8952ZM65.6608 46.1569L52.8004 29.5623L53.9579 28.6956L66.5932 45.4508L65.6608 46.1569ZM188.381 45.4187L187.448 44.7125L199.859 27.829L200.92 28.7598L188.381 45.4187ZM67.4291 44.8088L55.0189 27.8932L56.1442 27.0587L68.3936 44.1027L67.4291 44.8088ZM186.387 44.1027L185.423 43.3965L197.415 26.2241L198.605 27.0587L186.387 44.1027ZM69.3903 43.4286L57.3659 26.2562L58.5555 25.4217L70.3548 42.7546L69.3903 43.4286ZM184.426 42.7225L183.43 42.0805L195.068 24.6192L196.258 25.4217L184.426 42.7225ZM71.3515 42.0805L59.7129 24.6513L60.9347 23.8489L72.3161 41.599L71.3515 42.0805ZM182.401 41.599L181.404 40.9571L192.625 23.239L193.846 24.0093L182.401 41.599ZM73.3127 40.9892L62.0921 23.2711L63.3138 22.5007L74.3094 40.3472L73.3127 40.9892ZM180.407 40.3472L179.379 39.7373L190.181 21.7304L191.274 22.3403L180.407 40.3472ZM75.3382 39.7373L64.5355 21.7625L65.7573 21.0242L76.3349 39.1596L75.3382 39.7373ZM178.221 39.1275L177.192 38.5176L187.577 20.286L188.799 21.0242L178.221 39.1275ZM77.3638 38.3892L67.0112 20.1576L68.2329 19.4835L78.3926 37.8115L77.3638 38.3892ZM176.292 37.7794L175.263 37.2337L185.166 18.7453L186.42 19.4193L176.292 37.7794ZM79.4536 37.2658L69.4868 18.7774L70.7728 18.1354L80.4181 36.688L79.4536 37.2658ZM174.202 36.6559L173.141 36.1103L182.626 17.4293L183.912 18.0712L174.202 36.6559ZM81.5434 36.1424L71.8981 17.4614L73.1841 16.8194L82.4758 35.6288L81.5434 36.1424ZM171.984 35.5967L170.923 35.051L179.989 16.1454L181.275 16.7873L171.984 35.5967ZM83.6653 35.1794L74.5988 16.2737L75.8848 15.6639L84.7584 34.6659L83.6653 35.1794ZM169.926 34.6338L168.833 34.1202L177.45 15.0219L178.768 15.5997L169.926 34.6338ZM85.8194 34.1844L77.1708 14.9256L78.5212 14.3479L86.8804 33.6066L85.8194 34.1844ZM167.74 33.6387L166.647 33.1894L174.813 13.9306L176.131 14.5084L167.74 33.6387ZM87.9735 33.2215L79.8072 13.9627L81.1576 13.417L89.0345 32.6758L87.9735 33.2215ZM165.554 32.6758L164.428 32.2264L172.145 12.7109L173.463 13.2565L165.554 32.6758ZM90.1598 32.2906L82.4758 12.7109L83.794 12.1973L91.2851 31.9696L90.1598 32.2906ZM163.335 31.9696L162.21 31.5524L169.444 11.8763L170.794 12.3578L163.335 31.9696ZM92.3782 31.5845L85.1764 11.7479L86.5267 11.2665L93.5357 31.0388L92.3782 31.5845ZM161.085 31.1351L159.992 30.7499L166.711 10.9134L168.094 11.3628L161.085 31.1351ZM94.6288 30.8141L87.8449 10.9776L89.1953 10.4961L95.6255 30.4289L94.6288 30.8141ZM158.931 30.3647L157.773 30.0117L164.043 10.0146L165.425 10.4319L158.931 30.3647ZM96.9437 30.0438L90.5135 10.0788L91.8638 9.66156L97.9725 29.7228L96.9437 30.0438ZM156.648 29.6586L155.49 29.3376L161.31 9.1801L162.66 9.59737L156.648 29.6586ZM99.1942 29.3697L93.3749 9.24429L94.7574 8.85911L100.287 28.7598L99.1942 29.3697ZM154.301 28.7598L153.143 28.4389L158.48 8.15296L159.831 8.53814L154.301 28.7598ZM101.445 28.471L96.0756 8.21716L97.4581 7.86408L102.602 28.1821L101.445 28.471ZM151.986 28.15L150.829 27.8611L155.683 7.47891L157.066 7.79988L151.986 28.15ZM103.76 27.9253L98.9049 7.511L100.287 7.19003L104.949 27.6364L103.76 27.9253ZM149.735 27.6043L148.546 27.3475L152.918 6.83695L154.301 7.15793L149.735 27.6043ZM106.075 27.4759L101.67 6.99743L103.052 6.70855L107.232 27.2512L106.075 27.4759ZM147.356 27.2191L146.199 26.9945L150.057 6.38758L151.472 6.64436L147.356 27.2191ZM108.389 27.0266L104.467 6.29128L105.882 6.0345L109.579 26.6735L108.389 27.0266ZM145.009 26.7698L143.852 26.5772L147.228 5.87401L148.674 6.13079L145.009 26.7698ZM110.897 26.6093L107.457 5.9061L108.872 5.68142L112.087 26.4167L110.897 26.6093ZM142.823 26.3846L141.666 26.2241L144.559 5.45673L146.006 5.68142L142.823 26.3846ZM113.212 26.3846L110.286 5.61723L111.701 5.42464L114.402 26.2241L113.212 26.3846ZM140.476 26.192L139.319 26.0315L141.73 5.23205L143.145 5.39254L140.476 26.192ZM115.591 26.192L113.148 5.36044H114.562L116.749 26.192H115.591ZM138.097 26.0315H136.907L138.836 5.16785H140.283L138.097 26.0315ZM117.938 26.0315L115.945 5.16785H117.392L119.096 26.0636L117.938 26.0315ZM135.75 26.0315H134.528L135.975 5.10365H137.389L135.75 26.0315ZM120.285 26.0315L118.806 5.13575H120.253L121.475 26.0636L120.285 26.0315ZM133.403 25.5501H132.213L133.146 4.59009H134.592L133.403 25.5501ZM122.697 25.5501L121.7 4.62219H123.147L123.886 25.5501H122.697ZM131.024 25.5501H129.834L130.284 4.59009H131.731L131.024 25.5501ZM125.076 25.5501L124.561 4.62219H125.976L126.265 25.5821L125.076 25.5501ZM128.644 25.5501H127.551V4.59009H128.998L128.644 25.5501Z" fill="url(#paint2_linear_0_1)"/>
</g>
<path d="M127.39 225.135C182.009 225.135 226.287 180.931 226.287 126.402C226.287 71.8729 182.009 27.6685 127.39 27.6685C72.7715 27.6685 28.4941 71.8729 28.4941 126.402C28.4941 180.931 72.7715 225.135 127.39 225.135Z" fill="url(#paint3_linear_0_1)"/>
<path d="M164.539 215.896C214.049 195.422 237.56 138.755 217.052 89.3268C196.544 39.8986 139.784 16.4264 90.2743 36.9003C40.7645 57.3741 17.2536 114.041 37.7612 163.469C58.2688 212.897 115.029 236.369 164.539 215.896Z" fill="url(#paint4_radial_0_1)"/>
<path style="mix-blend-mode:multiply" d="M164.539 215.896C214.049 195.422 237.56 138.755 217.052 89.3268C196.544 39.8986 139.784 16.4264 90.2743 36.9003C40.7645 57.3741 17.2536 114.041 37.7612 163.469C58.2688 212.897 115.029 236.369 164.539 215.896Z" fill="url(#paint5_radial_0_1)"/>
<path style="mix-blend-mode:screen" d="M127.39 117.093C161.713 117.093 189.538 98.8283 189.538 76.297C189.538 53.7657 161.713 35.5005 127.39 35.5005C93.0667 35.5005 65.2422 53.7657 65.2422 76.297C65.2422 98.8283 93.0667 117.093 127.39 117.093Z" fill="url(#paint6_linear_0_1)"/>
<path style="mix-blend-mode:screen" d="M66.3663 97.0321C66.3727 99.0332 65.7841 100.991 64.6752 102.658C63.5662 104.325 61.9868 105.626 60.1368 106.396C58.2868 107.166 56.2495 107.371 54.2828 106.985C52.3161 106.598 50.5086 105.638 49.089 104.225C47.6694 102.812 46.7017 101.011 46.3083 99.0486C45.9149 97.0864 46.1136 95.0518 46.8791 93.2024C47.6447 91.353 48.9428 89.772 50.6089 88.6596C52.2751 87.5472 54.2344 86.9534 56.2388 86.9534C58.9192 86.9534 61.4904 88.0142 63.3887 89.9034C65.2871 91.7926 66.3578 94.3561 66.3663 97.0321Z" fill="url(#paint7_linear_0_1)"/>
<path style="mix-blend-mode:screen" d="M62.6691 62.527C61.0937 64.0998 59.6148 65.7368 58.168 67.4059C75.4556 52.5043 97.7505 44.6846 120.575 45.5172C143.4 46.3499 165.063 55.7732 181.215 71.8947C197.368 88.0162 206.812 109.642 207.652 132.429C208.492 155.215 200.665 177.475 185.743 194.738C187.415 193.326 188.958 191.85 190.63 190.245C207.399 173.264 216.761 150.351 216.675 126.505C216.589 102.659 207.06 79.8148 190.169 62.9552C173.277 46.0956 150.393 36.5888 126.507 36.5086C102.622 36.4283 79.674 45.7812 62.6691 62.527Z" fill="url(#paint8_linear_0_1)"/>
<path style="mix-blend-mode:color-dodge" d="M222.35 90.1478C228.99 79.0134 212.556 57.0184 185.643 41.0205C158.73 25.0225 131.529 21.0798 124.889 32.2142C118.248 43.3486 134.683 65.3436 161.596 81.3416C188.509 97.3395 215.709 101.282 222.35 90.1478Z" fill="url(#paint9_radial_0_1)"/>
<defs>
<linearGradient id="paint0_linear_0_1" x1="213.908" y1="40.0261" x2="38.9741" y2="215.248" gradientUnits="userSpaceOnUse">
<stop stop-color="#E3E3E3"/>
<stop offset="0.02" stop-color="#D5D5D5"/>
<stop offset="0.05" stop-color="#CACACA"/>
<stop offset="0.08" stop-color="#C7C7C7"/>
<stop offset="0.22" stop-color="#8E8E8E"/>
<stop offset="0.28" stop-color="#ACACAC"/>
<stop offset="0.35" stop-color="#CDCDCD"/>
<stop offset="0.39" stop-color="#D9D9D9"/>
<stop offset="0.44" stop-color="#E0E0E0"/>
<stop offset="0.52" stop-color="#F3F3F3"/>
<stop offset="0.56" stop-color="white"/>
<stop offset="0.64" stop-color="#E5E5E5"/>
<stop offset="0.75" stop-color="#BFBFBF"/>
<stop offset="0.78" stop-color="#A8A8A8"/>
<stop offset="0.81" stop-color="#959595"/>
<stop offset="0.84" stop-color="#8E8E8E"/>
<stop offset="0.92" stop-color="#8E8E8E"/>
<stop offset="0.95" stop-color="#B6B6B6"/>
<stop offset="0.98" stop-color="#D7D7D7"/>
<stop offset="1" stop-color="#E3E3E3"/>
</linearGradient>
<linearGradient id="paint1_linear_0_1" x1="127.39" y1="245.357" x2="127.39" y2="12.6146" gradientUnits="userSpaceOnUse">
<stop stop-color="#E3E3E3"/>
<stop offset="0.02" stop-color="#D5D5D5"/>
<stop offset="0.05" stop-color="#CACACA"/>
<stop offset="0.08" stop-color="#C7C7C7"/>
<stop offset="0.22" stop-color="#8E8E8E"/>
<stop offset="0.28" stop-color="#ACACAC"/>
<stop offset="0.35" stop-color="#CDCDCD"/>
<stop offset="0.39" stop-color="#D9D9D9"/>
<stop offset="0.44" stop-color="#E0E0E0"/>
<stop offset="0.52" stop-color="#F3F3F3"/>
<stop offset="0.56" stop-color="white"/>
<stop offset="0.64" stop-color="#E5E5E5"/>
<stop offset="0.75" stop-color="#BFBFBF"/>
<stop offset="0.78" stop-color="#A8A8A8"/>
<stop offset="0.81" stop-color="#959595"/>
<stop offset="0.84" stop-color="#8E8E8E"/>
<stop offset="0.92" stop-color="#8E8E8E"/>
<stop offset="0.95" stop-color="#B6B6B6"/>
<stop offset="0.98" stop-color="#D7D7D7"/>
<stop offset="1" stop-color="#E3E3E3"/>
</linearGradient>
<linearGradient id="paint2_linear_0_1" x1="127.391" y1="248.534" x2="127.391" y2="4.26911" gradientUnits="userSpaceOnUse">
<stop stop-color="#C6C6C6"/>
<stop offset="0.01" stop-color="#BABABA"/>
<stop offset="0.03" stop-color="#999999"/>
<stop offset="0.05" stop-color="#646464"/>
<stop offset="0.08" stop-color="#181818"/>
<stop offset="0.16" stop-color="#181818"/>
<stop offset="0.18" stop-color="#1F1F1F"/>
<stop offset="0.2" stop-color="#323232"/>
<stop offset="0.23" stop-color="#525252"/>
<stop offset="0.25" stop-color="#7C7C7C"/>
<stop offset="0.31" stop-color="#A3A3A3"/>
<stop offset="0.4" stop-color="#E5E5E5"/>
<stop offset="0.44" stop-color="white"/>
<stop offset="0.47" stop-color="#EAEAEA"/>
<stop offset="0.53" stop-color="#CBCBCB"/>
<stop offset="0.58" stop-color="#B8B8B8"/>
<stop offset="0.61" stop-color="#B1B1B1"/>
<stop offset="0.63" stop-color="#A5A5A5"/>
<stop offset="0.67" stop-color="#848484"/>
<stop offset="0.73" stop-color="#505050"/>
<stop offset="0.78" stop-color="#181818"/>
<stop offset="0.89" stop-color="#777777"/>
<stop offset="0.92" stop-color="#8D8D8D"/>
<stop offset="0.94" stop-color="#909090"/>
<stop offset="0.96" stop-color="#9B9B9B"/>
<stop offset="0.98" stop-color="#ACACAC"/>
<stop offset="1" stop-color="#C6C6C6"/>
</linearGradient>
<linearGradient id="paint3_linear_0_1" x1="202.013" y1="51.9024" x2="62.4188" y2="191.759" gradientUnits="userSpaceOnUse">
<stop stop-color="#E3E3E3"/>
<stop offset="0.02" stop-color="#D5D5D5"/>
<stop offset="0.05" stop-color="#CACACA"/>
<stop offset="0.08" stop-color="#C7C7C7"/>
<stop offset="0.22" stop-color="#8E8E8E"/>
<stop offset="0.28" stop-color="#ACACAC"/>
<stop offset="0.35" stop-color="#CDCDCD"/>
<stop offset="0.39" stop-color="#D9D9D9"/>
<stop offset="0.44" stop-color="#E0E0E0"/>
<stop offset="0.52" stop-color="#F3F3F3"/>
<stop offset="0.56" stop-color="white"/>
<stop offset="0.64" stop-color="#E5E5E5"/>
<stop offset="0.75" stop-color="#BFBFBF"/>
<stop offset="0.78" stop-color="#A8A8A8"/>
<stop offset="0.81" stop-color="#959595"/>
<stop offset="0.84" stop-color="#8E8E8E"/>
<stop offset="0.92" stop-color="#8E8E8E"/>
<stop offset="0.95" stop-color="#B6B6B6"/>
<stop offset="0.98" stop-color="#D7D7D7"/>
<stop offset="1" stop-color="#E3E3E3"/>
</linearGradient>
<radialGradient id="paint4_radial_0_1" cx="0" cy="0" r="1" gradientUnits="userSpaceOnUse" gradientTransform="translate(127.4 126.399) scale(97.0314 96.8716)">
<stop offset="0.41" stop-color="#FF89DA"/>
<stop offset="0.51" stop-color="#FF85D6"/>
<stop offset="0.62" stop-color="#FF77CB"/>
<stop offset="0.73" stop-color="#FF61B9"/>
<stop offset="0.85" stop-color="#FF439F"/>
<stop offset="0.97" stop-color="#FF1C7F"/>
<stop offset="1" stop-color="#FF0F74"/>
</radialGradient>
<radialGradient id="paint5_radial_0_1" cx="0" cy="0" r="1" gradientUnits="userSpaceOnUse" gradientTransform="translate(127.4 126.399) scale(97.0314 96.8716)">
<stop offset="0.85" stop-color="white"/>
<stop offset="0.87" stop-color="#FDFBFF"/>
<stop offset="0.89" stop-color="#F7EFFF"/>
<stop offset="0.92" stop-color="#ECDAFF"/>
<stop offset="0.94" stop-color="#DEBDFF"/>
<stop offset="0.96" stop-color="#CB98FF"/>
<stop offset="0.98" stop-color="#B46CFF"/>
<stop offset="1" stop-color="#9A38FF"/>
</radialGradient>
<linearGradient id="paint6_linear_0_1" x1="127.39" y1="180.294" x2="127.39" y2="40.4757" gradientUnits="userSpaceOnUse">
<stop/>
<stop offset="0.14" stop-color="#040203"/>
<stop offset="0.27" stop-color="#0F090A"/>
<stop offset="0.39" stop-color="#221418"/>
<stop offset="0.51" stop-color="#3D232A"/>
<stop offset="0.63" stop-color="#5F3742"/>
<stop offset="0.75" stop-color="#8A4F5F"/>
<stop offset="0.87" stop-color="#BC6C81"/>
<stop offset="0.98" stop-color="#F48DA8"/>
<stop offset="1" stop-color="#FF93B0"/>
</linearGradient>
<linearGradient id="paint7_linear_0_1" x1="35.1478" y1="83.7436" x2="64.3777" y2="102.211" gradientUnits="userSpaceOnUse">
<stop/>
<stop offset="0.14" stop-color="#040203"/>
<stop offset="0.27" stop-color="#0F090A"/>
<stop offset="0.39" stop-color="#221418"/>
<stop offset="0.51" stop-color="#3D232A"/>
<stop offset="0.63" stop-color="#5F3742"/>
<stop offset="0.75" stop-color="#8A4F5F"/>
<stop offset="0.87" stop-color="#BC6C81"/>
<stop offset="0.98" stop-color="#F48DA8"/>
<stop offset="1" stop-color="#FF93B0"/>
</linearGradient>
<linearGradient id="paint8_linear_0_1" x1="122.103" y1="131.143" x2="190.647" y2="62.4861" gradientUnits="userSpaceOnUse">
<stop/>
<stop offset="0.14" stop-color="#040203"/>
<stop offset="0.27" stop-color="#0F090A"/>
<stop offset="0.39" stop-color="#221418"/>
<stop offset="0.51" stop-color="#3D232A"/>
<stop offset="0.63" stop-color="#5F3742"/>
<stop offset="0.75" stop-color="#8A4F5F"/>
<stop offset="0.87" stop-color="#BC6C81"/>
<stop offset="0.98" stop-color="#F48DA8"/>
<stop offset="1" stop-color="#FF93B0"/>
</linearGradient>
<radialGradient id="paint9_radial_0_1" cx="0" cy="0" r="1" gradientUnits="userSpaceOnUse" gradientTransform="translate(179.716 57.7977) rotate(30.7285) scale(56.8816 23.5665)">
<stop stop-color="#4F4F4F"/>
<stop offset="0.12" stop-color="#3D3D3D"/>
<stop offset="0.33" stop-color="#222222"/>
<stop offset="0.54" stop-color="#0F0F0F"/>
<stop offset="0.76" stop-color="#040404"/>
<stop offset="1"/>
</radialGradient>
</defs>
</svg>