<svg width="254" height="254" viewBox="0 0 254 254" fill="none" xmlns="http://www.w3.org/2000/svg">
<path d="M252.297 147.099C263.633 78.0989 216.888 12.9736 147.888 1.63733C78.8881 -9.69894 13.7628 37.0467 2.42652 106.047C-8.90975 175.046 37.8358 240.172 106.836 251.508C175.836 262.844 240.961 216.099 252.297 147.099Z" fill="url(#paint0_linear_0_1)"/>
<path d="M173.855 241.959C237.542 216.293 268.364 143.858 242.697 80.1707C217.031 16.484 144.596 -14.3376 80.9088 11.3289C17.2221 36.9954 -13.5994 109.431 12.0671 173.117C37.7336 236.804 110.169 267.626 173.855 241.959Z" fill="url(#paint1_linear_0_1)"/>
<g style="mix-blend-mode:screen">
<path d="M127.423 248.944H125.976L126.201 227.95H127.391L127.423 248.944ZM128.837 248.944L128.612 227.95H129.77L130.284 248.912L128.837 248.944ZM124.529 248.944H123.115L123.854 227.982H125.044L124.529 248.944ZM131.699 248.944L130.991 227.982H132.149L133.146 248.944H131.699ZM121.7 248.944H120.253L121.475 227.982H122.632L121.7 248.944ZM134.56 248.944L133.338 227.982H134.528L135.975 248.912L134.56 248.944ZM118.838 248.944H117.392L119.096 228.014H120.285L118.838 248.944ZM137.422 248.944L135.718 228.014H136.907L138.836 248.912L137.422 248.944ZM115.977 248.944H114.53L116.716 228.046H117.906L115.977 248.944ZM140.283 248.944L138.097 228.046H139.254L141.698 248.912L140.283 248.944ZM113.116 248.784L111.701 248.623L114.369 227.789H115.559L113.116 248.784ZM143.112 248.591L140.444 227.789L141.633 227.628L144.559 248.398L143.112 248.591ZM110.254 248.43L108.872 248.205L112.087 227.468L113.276 227.628L110.254 248.43ZM145.942 248.205L142.727 227.435L143.852 227.275L147.292 247.98L145.942 248.205ZM107.361 247.98L105.946 247.755L109.611 227.082L110.769 227.275L107.361 247.98ZM148.739 247.723L145.074 227.05L146.263 226.857L150.121 247.465L148.739 247.723ZM104.563 247.498L103.117 247.208L107.296 226.632L108.422 226.857L104.563 247.498ZM151.568 247.208L147.388 226.632L148.578 226.374L152.951 246.919L151.568 247.208ZM101.734 246.919L100.352 246.63L104.949 226.117L106.107 226.374L101.734 246.919ZM154.365 246.597L149.735 226.117L150.893 225.86L155.748 246.276L154.365 246.597ZM98.937 246.308L97.5545 245.954L102.602 225.571L103.792 225.86L98.937 246.308ZM157.13 245.922L152.05 225.571L153.208 225.281L158.513 245.569L157.13 245.922ZM96.0434 245.601L94.6288 245.215L100.223 224.992L101.348 225.281L96.0434 245.601ZM159.799 245.215L154.204 224.96L155.362 224.638L161.181 244.829L159.799 245.215ZM93.2463 244.829L91.896 244.443L97.9403 224.317L99.0656 224.67L93.2463 244.829ZM162.564 244.411L156.487 224.317L157.612 223.963L164.043 243.993L162.564 244.411ZM90.5135 243.993L89.131 243.575L95.5611 223.609L96.6865 223.963L90.5135 243.993ZM165.264 243.543L158.834 223.609L159.927 223.224L166.711 243.093L165.264 243.543ZM87.7485 243.125L86.3982 242.643L93.407 222.838L94.5323 223.224L87.7485 243.125ZM168.126 242.611L161.117 222.838L162.242 222.42L169.476 242.128L168.126 242.611ZM85.1764 242.16L83.8261 241.646L91.2851 222.034L92.4104 222.452L85.1764 242.16ZM170.826 241.646L163.335 222.002L164.461 221.584L172.177 241.132L170.826 241.646ZM82.4758 241.132L81.1576 240.585L89.0667 221.134L90.192 221.584L82.4758 241.132ZM173.495 240.585L165.554 220.491L166.615 220.041L174.781 239.331L173.495 240.585ZM79.8072 240.039L78.489 239.46L86.8804 220.169L87.9735 220.619L79.8072 240.039ZM176.26 239.492L167.901 220.201L168.994 219.719L177.578 238.849L176.26 239.492ZM77.3316 238.881L76.0456 238.302L84.8871 219.237L85.9481 219.751L77.3316 238.881ZM178.896 238.302L170.055 219.269L171.116 218.755L180.182 237.692L178.896 238.302ZM74.7274 237.692L73.4414 237.049L82.733 218.24L83.794 218.755L74.7274 237.692ZM181.468 237.049L171.984 217.597L173.077 217.051L182.561 235.795L181.468 237.049ZM72.1553 236.406L70.8693 235.762L80.5145 217.147L81.5755 217.694L72.1553 236.406ZM184.04 235.762L174.395 217.179L175.456 216.601L185.391 235.087L184.04 235.762ZM69.6154 235.087L68.3615 234.38L78.489 216.022L79.55 216.601L69.6154 235.087ZM186.548 234.412L176.389 216.054L177.417 215.475L187.802 233.705L186.548 234.412ZM67.0754 233.673L65.8859 232.258L76.4635 214.125L77.4924 214.736L67.0754 233.673ZM189.024 232.998L178.414 214.221L179.443 213.643L190.246 231.647L189.024 232.998ZM64.5999 232.226L63.3781 231.486L74.4058 213.611L75.4026 214.221L64.5999 232.226ZM191.467 231.551L180.407 212.968L181.404 212.357L192.593 230.104L191.467 231.551ZM62.1564 230.715L60.9347 229.943L72.4125 212.357L73.377 213L62.1564 230.715ZM193.975 230.007L182.561 212.389L183.526 211.746L195.165 229.236L193.975 230.007ZM59.8094 229.172L58.6198 228.368L70.4513 211.038L71.448 211.681L59.8094 229.172ZM196.322 228.432L184.555 211.071L185.487 210.395L197.512 227.628L196.322 228.432ZM57.4302 227.532L56.2727 226.728L68.5223 209.656L69.4868 210.363L57.4302 227.532ZM198.701 226.792L186.452 209.72L187.416 209.013L199.859 225.956L198.701 226.792ZM55.1153 225.86L53.9901 225.024L66.5932 208.241L67.5577 208.949L55.1153 225.86ZM201.016 225.088L188.381 208.306C188.705 208.088 189.016 207.852 189.313 207.598L202.174 224.22L201.016 225.088ZM52.8326 224.156L51.6752 223.256L64.7284 206.795L65.6608 207.534L52.8326 224.156ZM203.267 223.352L190.246 206.859L191.21 206.119L204.392 222.452L203.267 223.352ZM50.5821 222.356L49.4889 221.455L62.8637 205.38L63.7961 206.152L50.5821 222.356ZM205.485 221.552L192.11 205.476L193.011 204.705L206.61 220.78L205.485 221.552ZM48.3636 220.523L47.3027 219.623L61.0632 203.74L61.9635 204.544L48.3636 220.523ZM207.671 219.687L193.782 203.322L194.65 202.551L208.604 218.24L207.671 219.687ZM46.2095 218.658L45.1486 217.694L59.2949 202.165L60.163 202.969L46.2095 218.658ZM209.825 217.79L195.679 202.261L196.579 201.457L210.886 216.826L209.825 217.79ZM43.9268 216.183L42.8658 215.186L57.398 200.011L58.2339 200.814L43.9268 216.183ZM211.755 215.282L197.287 200.107C197.544 199.818 197.833 199.561 198.123 199.271L212.783 214.286C212.462 214.543 212.108 214.864 211.755 215.186V215.282ZM41.8691 214.189L40.8403 213.193L55.6619 198.339L56.5299 199.175L41.8691 214.189ZM213.812 213.289L198.959 198.435L199.827 197.599L214.809 212.292L213.812 213.289ZM39.8436 212.164C39.49 211.842 39.1685 211.489 38.847 211.135L54.0222 196.635L54.8581 197.503L39.8436 212.164ZM215.806 211.264L200.63 196.731L201.466 195.863L216.802 210.203L215.806 211.264ZM37.8503 210.106L36.8857 209.045L52.4146 194.931L53.2184 195.799L37.8503 210.106ZM217.895 209.142L202.367 194.995L203.202 194.127L218.86 208.081L217.895 209.142ZM36.0498 207.984L35.0853 206.891L50.9679 193.163L51.7395 194.031L36.0498 207.984ZM219.792 207.02L203.974 193.227L204.746 192.327L220.821 205.926L219.792 207.02ZM34.1851 205.83C33.8636 205.444 33.5421 205.091 33.2527 204.705L49.3282 191.33L50.0998 192.23L34.1851 205.83ZM221.657 204.833L205.582 191.426L206.321 190.494L222.622 203.708L221.657 204.833ZM32.3525 203.612L31.4522 202.486L47.9135 189.465L48.6851 190.398L32.3525 203.612ZM223.458 202.615L207.028 189.562L207.736 188.629L224.358 201.49L223.458 202.615ZM30.552 201.361L29.684 200.236L46.4668 187.6C46.6844 187.925 46.9205 188.236 47.174 188.533L30.552 201.361ZM225.194 200.332L208.411 187.697L209.15 186.732L226.062 199.175L225.194 200.332ZM28.8159 199.078L27.98 197.921L45.0521 185.671L45.7594 186.636L28.8159 199.078ZM226.898 198.017L209.825 185.768L210.533 184.803L227.734 196.86L226.898 198.017ZM27.144 196.763C26.8868 196.346 26.5975 195.96 26.3403 195.574L43.7018 183.742L44.3448 184.707L27.144 196.763ZM228.537 195.67L211.208 183.839L211.883 182.842L229.341 194.481L228.537 195.67ZM25.5365 194.384L24.7327 193.163L42.3836 181.781L43.0266 182.746L25.5365 194.384ZM230.145 193.259L212.526 181.845L213.169 180.849L230.916 192.069L230.145 193.259ZM23.9932 191.973L23.2216 190.783L41.0975 179.756L41.7406 180.784L23.9932 191.973ZM231.656 190.848L213.78 179.723C213.973 179.402 214.166 179.048 214.391 178.727L232.395 189.53L231.656 190.848ZM22.4822 189.562L21.7427 188.308L39.9079 177.73L40.4867 178.759L22.4822 189.562ZM233.135 188.404L215.034 177.794L215.613 176.766L233.874 187.15L233.135 188.404ZM20.9389 187.086L20.2637 185.832L38.6219 175.672L39.2006 176.701L20.9389 187.086ZM234.485 185.896L216.095 175.737L216.674 174.676L235.16 184.643L234.485 185.896ZM19.5564 184.578L18.8813 183.324L37.4966 173.679C37.6895 174.033 37.8824 174.386 38.0432 174.74L19.5564 184.578ZM235.836 183.357L217.22 173.711C217.422 173.357 217.604 172.992 217.767 172.618L236.479 182.263C236.286 182.424 236.061 182.842 235.836 183.26V183.357ZM18.2382 182.038L17.6595 180.817L36.4999 171.493L37.0144 172.554L18.2382 182.038ZM237.122 180.817L218.313 171.493L218.828 170.432L237.765 179.498C237.572 179.852 237.347 180.27 237.122 180.817ZM16.9843 179.466C16.7593 179.048 16.5664 178.63 16.3735 178.18L35.4068 169.339L35.9212 170.432L16.9843 179.466ZM238.375 178.212L219.342 169.339L219.824 168.278L239.115 176.894C238.761 177.248 238.568 177.602 238.375 178.116V178.212ZM15.7626 176.894L15.1839 175.576L34.4744 167.185L34.9567 168.278L15.7626 176.894ZM239.565 175.576L220.275 167.185L220.757 166.091L240.047 174.258C239.951 174.611 239.758 175.029 239.501 175.48L239.565 175.576ZM14.5087 174.258C14.3158 173.84 14.1229 173.39 13.9622 172.94L33.2527 164.998C33.2527 165.384 33.5742 165.738 33.7028 166.091L14.5087 174.258ZM240.53 172.94L221.239 164.998C221.4 164.613 221.528 164.259 221.689 163.905L241.205 171.589C241.044 171.943 240.851 172.393 240.658 172.843L240.53 172.94ZM13.4156 171.621L12.9012 170.271L32.5132 162.812C32.674 163.166 32.8026 163.552 32.9633 163.905L13.4156 171.621ZM241.687 170.239L222.043 162.78C222.043 162.426 222.332 162.04 222.461 161.655L242.169 168.889L241.687 170.239ZM12.4511 168.921L11.9688 167.57L31.7738 160.594L32.1596 161.687L12.4511 168.921ZM242.652 167.538L222.879 160.529L223.265 159.404L243.134 166.188L242.652 167.538ZM11.5187 166.22L11.2293 164.741L31.1951 158.311L31.5809 159.436L11.5187 166.22ZM243.584 164.805L223.65 158.375C223.65 157.989 223.875 157.636 224.004 157.25L244.034 163.519C243.938 163.809 243.809 164.259 243.648 164.741L243.584 164.805ZM10.6185 163.519C10.4577 163.037 10.3291 162.587 10.2005 162.137L30.2948 156.06C30.2948 156.446 30.5199 156.832 30.6163 157.186L10.6185 163.519ZM244.452 162.073L224.358 156.028C224.358 155.642 224.583 155.257 224.679 154.871L244.87 160.69C244.806 161.044 244.645 161.526 244.516 161.976L244.452 162.073ZM9.75037 160.754L9.36458 159.404L29.5875 153.778L29.909 154.935L9.75037 160.754ZM245.224 159.308L224.969 153.713C225.095 153.344 225.202 152.968 225.29 152.588L245.577 157.925C245.577 158.311 245.449 158.761 245.32 159.211L245.224 159.308ZM8.97878 157.989C8.97878 157.539 8.75372 157.057 8.62512 156.575L28.9766 151.495C29.0646 151.875 29.1719 152.251 29.2981 152.62L8.97878 157.989ZM245.963 156.511L225.579 151.431L225.869 150.273L246.285 155.128C246.285 155.514 246.156 155.964 245.931 156.414L245.963 156.511ZM8.36791 155.096C8.36791 154.646 8.17498 154.196 8.04638 153.713L28.5265 149.084L28.8159 150.241L8.36791 155.096ZM246.703 153.649L226.222 149.019C226.222 148.634 226.383 148.248 226.48 147.862L247.024 152.234C246.928 152.717 246.799 153.167 246.703 153.649ZM7.75703 152.299L7.46768 150.916L28.0442 146.769L28.2693 147.926L7.75703 152.299ZM247.313 150.852L226.737 146.704C226.737 146.319 226.737 145.933 226.962 145.547L247.571 149.437C247.474 149.92 247.41 150.37 247.313 150.852ZM7.17834 149.502C7.17834 149.019 7.01758 148.569 6.92112 148.087L27.5941 144.422C27.5941 144.808 27.5942 145.193 27.8192 145.579L7.17834 149.502ZM247.828 148.023L227.155 144.39L227.348 143.2L248.085 146.608C247.989 147.09 247.924 147.54 247.828 148.023ZM6.69604 146.672C6.69604 146.19 6.53532 145.74 6.47101 145.258L27.2083 142.043L27.4012 143.232L6.69604 146.672ZM248.31 145.193L227.541 141.978L227.734 140.821L248.503 143.747L248.31 145.193ZM6.24593 143.843L6.05304 142.396L26.8868 139.728C26.8868 140.114 26.8868 140.531 26.8868 140.917L6.24593 143.843ZM248.696 142.364L227.862 139.663C227.862 139.278 227.862 138.892 228.023 138.506L248.889 140.917L248.696 142.364ZM5.89227 140.982C5.89227 140.532 5.89226 140.049 5.73151 139.567L26.5975 137.349V138.57L5.89227 140.982ZM249.017 139.503L228.152 137.316C228.152 136.931 228.152 136.545 228.152 136.127L249.05 138.088C249.146 138.538 249.146 139.02 249.146 139.503H249.017ZM5.57079 138.152V136.706L26.4689 135.002V136.191L5.57079 138.152ZM249.307 136.673L228.377 134.937V133.78L249.307 135.227V136.673ZM5.34571 135.291V133.844L26.3081 132.655C26.3081 133.04 26.3081 133.426 26.3081 133.812L5.34571 135.291ZM249.5 133.812L228.537 132.558C228.537 132.172 228.537 131.786 228.537 131.401L249.5 132.365C249.564 132.847 249.532 133.33 249.5 133.812ZM5.15281 132.429C5.15281 131.947 5.15281 131.465 5.15281 130.983L26.1474 130.275C26.1474 130.661 26.1474 131.047 26.1474 131.433L5.15281 132.429ZM249.5 130.918L228.505 130.211V129.021L249.5 129.504C249.66 129.986 249.66 130.436 249.628 130.918H249.5ZM4.95992 129.568C4.95992 129.086 4.95992 128.604 4.95992 128.121L25.9545 127.896C25.9545 128.282 25.9545 128.668 25.9545 129.086L4.95992 129.568ZM249.564 128.057L228.569 127.832V126.514H249.564V128.057ZM4.92773 126.707V125.26L25.9223 125.517V126.642L4.92773 126.707ZM228.569 125.324C228.569 124.906 228.569 124.52 228.569 124.135L249.564 123.62C249.564 124.102 249.564 124.585 249.564 125.067L228.569 125.324ZM26.0188 124.295L5.02423 123.845C5.02423 123.363 5.02423 122.881 5.02423 122.398L26.0188 123.138C26.0831 123.524 26.083 123.909 26.083 124.295H26.0188ZM228.569 122.945C228.569 122.559 228.569 122.141 228.569 121.755L249.532 120.759C249.532 121.241 249.532 121.723 249.532 122.206L228.569 122.945ZM26.0188 121.948L5.05637 120.984C5.05637 120.501 5.05637 120.019 5.05637 119.537L26.0188 120.759C26.1795 121.145 26.1795 121.53 26.1474 121.948H26.0188ZM228.409 120.566V119.376L249.371 117.897V119.344L228.409 120.566ZM26.2759 119.73L5.34571 118.283V116.836L26.2759 118.54V119.73ZM228.377 118.347C228.377 117.962 228.377 117.576 228.377 117.19L249.275 115.197C249.275 115.679 249.275 116.161 249.275 116.643L228.377 118.347ZM26.4689 117.351L5.57079 115.422C5.57079 114.939 5.57079 114.489 5.57079 114.007L26.4689 116.161V117.351ZM228.152 116C228.152 115.582 228.152 115.197 228.152 114.811L248.985 112.367C248.985 112.85 248.985 113.332 248.985 113.814L228.152 116ZM26.7261 115.004L5.86014 112.56L6.05304 111.146L26.8547 113.814C26.8225 114.039 26.7582 114.457 26.7261 114.843V115.004ZM227.862 113.621C227.862 113.235 227.862 112.85 227.701 112.464L248.503 109.538L248.696 110.953L227.862 113.621ZM27.0154 112.625L6.2138 109.731C6.2138 109.249 6.37453 108.766 6.43883 108.284L27.1762 111.499C27.3048 111.692 27.0797 112.078 27.0154 112.464V112.625ZM227.541 111.274L227.348 110.117L248.053 106.677C248.053 107.159 248.053 107.641 248.278 108.091L227.541 111.274ZM27.3048 110.085L6.5996 106.87C6.5996 106.387 6.59962 105.905 6.82468 105.423L27.4977 109.088L27.3048 110.085ZM227.091 108.766L226.865 107.577L247.506 103.654C247.506 104.137 247.667 104.587 247.764 105.069L227.091 108.766ZM27.7549 107.738L7.11402 103.88L7.40337 102.465L27.98 106.58C27.9478 106.87 27.8513 107.384 27.787 107.77L27.7549 107.738ZM226.673 106.419C226.673 106.034 226.673 105.648 226.415 105.262L246.96 100.857L247.249 102.272L226.673 106.419ZM28.2371 105.423L7.69271 101.05L7.98211 99.6677L28.4944 104.265L28.2371 105.423ZM226.158 104.105L225.901 102.947L246.317 98.0601C246.317 98.5424 246.542 98.9925 246.638 99.4427L226.158 104.105ZM28.7516 103.108L8.30359 98.2531C8.30359 97.803 8.52865 97.3207 8.65725 96.8706L29.0409 101.95L28.7516 103.108ZM225.612 101.79L225.322 100.632L245.609 95.263C245.609 95.7453 245.867 96.1954 245.963 96.6777L225.612 101.79ZM29.3303 100.793L9.01091 95.4881L9.39671 94.0735L29.6197 99.6677L29.3303 100.793ZM225.001 99.4748C225.001 99.1211 224.808 98.7354 224.679 98.3495L244.838 92.4981C244.999 92.9803 245.127 93.4305 245.256 93.8806L225.001 99.4748ZM29.9412 98.5103L9.78255 92.7231L10.1683 91.3406L30.2948 97.385L29.9412 98.5103ZM224.358 97.2242C224.358 96.8384 224.133 96.4526 224.004 96.0668L244.034 89.6366C244.034 90.0867 244.291 90.5368 244.452 90.987L224.358 97.2242ZM30.6485 96.2276L10.5863 89.9582C10.7471 89.508 10.8757 89.0579 11.0364 88.6078L31.0021 95.038C30.9057 95.5203 30.7771 95.8739 30.6806 96.2597L30.6485 96.2276ZM223.554 94.9415L223.425 94.0091L243.295 87.2253C243.455 87.6754 243.584 88.1255 243.745 88.5756L223.554 94.9415ZM31.2915 93.977L11.3901 87.2253L11.8723 85.8428L31.6773 92.8517L31.2915 93.977ZM222.782 92.6909L222.364 91.5978L242.073 84.3317L242.555 85.6821L222.782 92.6909ZM32.0631 91.7264L12.3546 84.4925C12.5154 84.0423 12.6761 83.5922 12.869 83.1421L32.4811 90.6012C32.4811 91.0191 32.3203 91.3728 32.1917 91.7586L32.0631 91.7264ZM221.946 90.4725L221.528 89.3794L241.044 81.631C241.237 82.0811 241.398 82.5313 241.558 82.9814L221.946 90.4725ZM32.9312 89.508L13.3834 81.7918L13.93 80.4736L33.2205 88.3827C33.3491 88.8007 33.1884 89.1544 33.0598 89.5402L32.9312 89.508ZM221.078 88.2542C220.918 87.9005 220.789 87.5468 220.628 87.161L239.919 78.9947L240.497 80.345L221.078 88.2542ZM33.7993 87.2896L14.5087 79.1554L15.0553 77.8051L34.3458 86.1965L33.7993 87.2896ZM220.275 86.0679L219.824 85.0069L238.954 76.3905L239.533 77.7086L220.275 86.0679ZM34.8924 85.1033L15.6019 76.5191C15.8269 76.0689 16.0198 75.6188 16.2127 75.2009L35.2461 84.0424L34.8924 85.1033ZM219.31 83.9459L218.828 82.8528L237.733 73.7862C237.958 74.2042 238.15 74.6543 238.343 75.0723L219.31 83.9459ZM35.8891 82.9492L16.9522 73.8827L17.5952 72.5966L36.4035 81.8882C36.2427 82.2741 36.082 82.6278 35.8891 82.9814V82.9492ZM218.281 81.7918L217.767 80.7308L236.479 71.0855L237.122 72.3716L218.281 81.7918ZM36.9501 80.8273L18.2382 71.182L18.8813 69.896L37.4966 79.5412L36.9501 80.8273ZM217.22 79.7341L216.674 78.6731L235.16 68.7385L235.836 69.9924L217.22 79.7341ZM38.0432 78.7375L19.5564 68.8028L20.2316 67.549L38.6219 77.6765L38.0432 78.7375ZM216.095 77.6443L215.516 76.6155L233.778 66.2308L234.453 67.4525L216.095 77.6443ZM39.2649 76.6477L20.8746 66.2629C21.1318 65.8771 21.3569 65.4592 21.6141 65.0412L39.7472 75.6188L39.2649 76.6477ZM215.002 75.5867L214.391 74.5578L232.395 63.7551C232.621 64.1731 232.878 64.5911 233.135 65.009L215.002 75.5867ZM40.3902 74.7186L22.3857 63.948L23.1573 62.6941L41.0332 73.7219L40.3902 74.7186ZM213.716 73.6576L213.073 72.6609L230.82 61.4403L231.592 62.662L213.716 73.6576ZM41.6441 72.6931L23.8968 61.4724L24.6684 60.2828L42.2871 71.6964L41.6441 72.6931ZM212.43 71.6643L211.787 70.6997L229.277 59.0611L230.048 60.2507L212.43 71.6643ZM42.9623 70.6997L25.4722 59.0933L26.2759 57.8715L43.6053 69.7352L42.9623 70.6997ZM211.144 69.7031L210.436 68.7064L227.669 56.6819L228.473 57.8715L211.144 69.7031ZM44.2805 68.7385L27.0797 56.7141L27.9157 55.5245L44.9878 67.774L44.2805 68.7385ZM209.761 67.774L209.054 66.8095L225.997 54.3671L226.801 55.4924L209.761 67.774ZM45.7916 66.8095L28.8802 54.3671L29.7482 53.2418L46.4989 65.845L45.7916 66.8095ZM208.475 65.845C208.258 65.5208 208.021 65.2095 207.768 64.9126L224.39 52.0522L225.258 53.1775L208.475 65.845ZM47.2383 64.9126L30.6163 52.0522L31.4844 50.927L47.9778 63.948C47.6726 64.2097 47.3828 64.4889 47.1098 64.784L47.2383 64.9126ZM207.028 63.948L206.289 63.0478L222.622 49.8338L223.522 50.9591L207.028 63.948ZM48.7173 63.0478L32.3846 49.8338L33.317 48.7085L49.3924 62.1155C49.0709 62.3084 48.8137 62.5977 48.5887 62.9192L48.7173 63.0478ZM205.421 61.8582L204.649 60.958L220.725 47.3582C221.014 47.744 221.336 48.0977 221.657 48.4513L205.421 61.8582ZM50.0998 60.958L34.0243 47.3582L34.9567 46.2972L50.8071 60.0578L50.0998 60.958ZM203.878 60.0578L203.106 59.1576L218.763 45.2041L219.728 46.265L203.878 60.0578ZM51.643 59.1576L35.9855 45.2041L36.9501 44.1431L52.4468 58.2895L51.643 59.1576ZM202.302 58.2895L201.498 57.4214L216.995 43.2107L217.992 44.2717L202.302 58.2895ZM53.2506 57.3893L37.9146 43.0821L38.9113 42.0211L54.0544 56.5534L53.2506 57.3893ZM200.695 56.5534L199.859 55.6853L214.873 41.0245L215.87 42.0533L200.695 56.5534ZM54.8903 55.6853L39.8758 41.0245L40.9046 39.9956L55.7262 54.8494L54.8903 55.6853ZM199.023 54.8494L198.187 54.0134L212.848 38.9668L213.876 39.9956L199.023 54.8494ZM56.5621 54.0134L41.9013 38.9668L42.9301 38.0023L57.4302 53.1775L56.5621 54.0134ZM197.319 53.1775L196.451 52.3737L210.758 37.0056L211.819 38.0023L197.319 53.1775ZM58.2983 52.3737L43.9911 37.0056L45.0521 36.0411L59.1663 51.57L58.2983 52.3737ZM195.583 51.5378L194.715 50.7662L208.636 35.0765L209.729 36.0411L195.583 51.5378ZM60.0666 50.7662L46.1131 35.0765L47.174 34.1442L60.9347 49.9624L60.0666 50.7662ZM193.814 49.9624L192.914 49.223L206.482 33.1475L207.575 34.0799L193.814 49.9624ZM61.9956 49.1908L48.3958 33.1153L49.4889 32.183L62.8637 48.2584L61.9956 49.1908ZM192.11 48.4513L191.21 47.6797L204.392 31.3792L205.517 32.2794L192.11 48.4513ZM63.7961 47.6797L50.5821 31.3792L51.7073 30.479L64.5677 46.9402L63.7961 47.6797ZM190.278 46.9402L189.345 46.2008L202.206 29.5788C202.559 29.9003 202.945 30.1896 203.331 30.479L190.278 46.9402ZM65.6608 46.2329L52.8004 29.6109L53.9579 28.7428L66.5932 45.4934L65.6608 46.2329ZM188.381 45.4934L187.448 44.7861L199.859 27.8747L201.016 28.7107L188.381 45.4934ZM67.5577 44.7861L55.1475 27.8747L56.2727 27.0388L68.5223 44.0788L67.5577 44.7861ZM186.516 44.0788L185.552 43.4036L197.383 26.4922C197.801 26.7495 198.187 27.0388 198.573 27.3281L186.516 44.0788ZM69.5189 43.4036L57.3337 26.4922L58.5233 25.6885L70.3227 43.0178L69.5189 43.4036ZM184.555 42.7285L183.558 42.0533L195.197 24.5632L196.386 25.3991L184.555 42.7285ZM71.4802 42.0855L59.8415 24.5954L61.0632 23.7916L72.4768 41.4103L71.4802 42.0855ZM182.561 41.4103C182.242 41.1774 181.909 40.9627 181.565 40.7673L192.786 23.0199L194.007 23.7916L182.561 41.4103ZM73.4735 40.7673L62.0921 23.2772L63.3138 22.5055L74.3094 40.3815L73.4735 40.7673ZM180.568 40.1242L179.539 39.5134L190.342 21.5088L191.564 22.2483L180.568 40.1242ZM75.499 39.5455L64.6963 21.541L65.918 20.8015L76.4957 38.9346L75.499 39.5455ZM178.382 38.9025L177.353 38.3238L187.738 20.0621L188.96 20.7694L178.382 38.9025ZM77.3959 38.3559L67.0433 20.0942L68.2651 19.3869L78.4247 37.7772L77.3959 38.3559ZM176.324 37.7451L175.295 37.1664L185.198 18.6796L186.452 19.3547L176.324 37.7451ZM79.4857 37.1985L69.5189 18.7117L70.805 18.0365L80.4502 36.6519L79.4857 37.1985ZM174.234 36.6198L173.173 36.0732L182.658 17.3292L183.944 18.0044L174.234 36.6198ZM81.5434 36.1375L71.8981 17.4257L73.1841 16.7827L82.4758 35.591L81.5434 36.1375ZM172.048 35.5588L170.987 35.0444L180.054 16.1075L181.34 16.7505L172.048 35.5588ZM83.6653 35.0765L74.5988 16.1396L75.8848 15.561L84.7584 34.5621L83.6653 35.0765ZM169.926 34.53L168.833 34.0477L177.45 14.7572L178.768 15.368L169.926 34.53ZM85.8194 34.0799L77.1708 14.9501L78.5212 14.3713L86.8804 33.6619L85.8194 34.0799ZM167.74 33.5654L166.647 33.0832L174.813 13.7926L176.131 14.3392L167.74 33.5654ZM87.9735 33.1475L79.8072 13.857L81.1576 13.3104L89.0345 32.9224L87.9735 33.1475ZM165.554 32.6331L164.428 32.183L172.145 12.6673L173.463 13.1818L165.554 32.6331ZM90.1598 32.2472L82.4758 12.7317L83.794 12.2172L91.2851 31.8293L90.1598 32.2472ZM163.335 31.765L162.21 31.347L169.444 11.6385L170.794 12.1529L163.335 31.765ZM92.3782 31.4113L85.1764 11.7993L86.5268 11.317L93.5357 31.0898L92.3782 31.4113ZM161.085 30.9612C160.731 30.8042 160.366 30.6752 159.992 30.5754L166.711 10.674L168.094 11.1562L161.085 30.9612ZM94.6288 30.6076L87.845 10.7383L89.1953 10.2882L95.6255 30.2218L94.6288 30.6076ZM158.931 30.1896L157.773 29.8038L164.043 9.77378L165.425 10.2239L158.931 30.1896ZM96.9437 29.8681L90.5135 9.8381L91.8638 9.42012L98.0368 29.7073L96.9437 29.8681ZM156.648 29.4823L155.49 29.1286L161.31 8.97001L162.66 9.3558L156.648 29.4823ZM99.1942 29.1929L93.3749 9.00214L94.7574 8.61635L100.352 28.8714L99.1942 29.1929ZM154.365 28.8071L153.208 28.5178L158.545 8.19837L159.895 8.55203L154.365 28.8071ZM101.509 28.5499L96.1399 8.26268L97.5224 7.90902L102.667 28.2606L101.509 28.5499ZM152.05 28.1962L150.893 27.939L155.748 7.49105L157.13 7.84471L152.05 28.1962ZM103.824 27.9712L98.9691 7.55536L100.352 7.23383L105.014 27.6818L103.824 27.9712ZM149.8 27.6818L148.61 27.4246L152.983 6.88017L154.365 7.16957L149.8 27.6818ZM106.171 27.4568L101.766 6.91235L103.149 6.62301L107.328 27.1996L106.171 27.4568ZM147.453 27.1674L146.295 26.9424L150.153 6.30148L151.568 6.59082L147.453 27.1674ZM108.486 26.9745L104.467 6.46224L105.882 6.20503L109.579 26.8459L108.486 26.9745ZM145.106 26.7173L143.948 26.5244L147.324 5.81923L148.771 6.04426L145.106 26.7173ZM110.833 26.7173L107.393 6.01213L108.807 5.78705L112.022 26.5244L110.833 26.7173ZM142.759 26.5244L141.601 26.3315L144.495 5.56202L145.942 5.75492L142.759 26.5244ZM113.148 26.3637L110.222 5.56202L111.637 5.40126L114.337 26.2029L113.148 26.3637ZM140.412 26.1707H139.254L141.666 5.30481L143.08 5.4977L140.412 26.1707ZM115.527 26.1707L113.083 5.30481L114.498 5.14404L116.684 26.0421L115.527 26.1707ZM138.033 26.1707H136.843L138.772 5.27263H140.219L138.033 26.1707ZM117.874 26.1707L115.881 5.27263H117.327L119.031 26.2029L117.874 26.1707ZM135.686 26.1707H134.464L135.911 5.24049H137.325L135.686 26.1707ZM120.221 26.1707L118.742 5.20836H120.189L121.411 26.1386L120.221 26.1707ZM133.306 26.1707H132.117L133.049 5.20836H134.496L133.306 26.1707ZM122.6 26.1707L121.603 5.20836H123.05L123.79 26.2029L122.6 26.1707ZM130.927 26.1707H129.738L130.188 5.17618H131.634L130.927 26.1707ZM124.979 26.1707L124.465 5.17618H125.879L126.169 26.1707H124.979ZM128.548 26.1707H127.455V5.17618H128.902L128.548 26.1707Z" fill="url(#paint2_linear_0_1)"/>
</g>
<path d="M225.026 142.63C233.862 88.7308 197.331 37.8736 143.431 29.0376C89.532 20.2016 38.6749 56.7327 29.8389 110.632C21.0029 164.531 57.5339 215.389 111.433 224.225C165.333 233.061 216.19 196.53 225.026 142.63Z" fill="url(#paint3_linear_0_1)"/>
<path d="M224.477 138.487C233.052 85.4341 196.994 35.4753 143.941 26.9011C90.8881 18.3268 40.9293 54.3841 32.3551 107.437C23.7809 160.49 59.8381 210.449 112.891 219.023C165.944 227.598 215.903 191.54 224.477 138.487Z" fill="url(#paint4_radial_0_1)"/>
<path style="mix-blend-mode:multiply" d="M224.477 138.487C233.052 85.4341 196.994 35.4753 143.941 26.9011C90.8881 18.3268 40.9293 54.3841 32.3551 107.437C23.7809 160.49 59.8381 210.449 112.891 219.023C165.944 227.598 215.903 191.54 224.477 138.487Z" fill="url(#paint5_radial_0_1)"/>
<path style="mix-blend-mode:screen" d="M127.39 117.286C161.713 117.286 189.538 98.9911 189.538 76.4226C189.538 53.8542 161.713 35.5588 127.39 35.5588C93.0667 35.5588 65.2422 53.8542 65.2422 76.4226C65.2422 98.9911 93.0667 117.286 127.39 117.286Z" fill="url(#paint6_linear_0_1)"/>
<path style="mix-blend-mode:screen" d="M66.3683 97.2242C66.3683 99.2287 65.7735 101.188 64.6593 102.854C63.545 104.52 61.9614 105.818 60.109 106.584C58.2565 107.349 56.2186 107.548 54.2532 107.155C52.2877 106.761 50.4832 105.794 49.0682 104.374C47.6531 102.954 46.6911 101.147 46.304 99.1803C45.9168 97.2136 46.122 95.1763 46.8935 93.3263C47.6649 91.4763 48.968 89.8968 50.6376 88.7879C52.3073 87.6789 54.2685 87.0904 56.2729 87.0967C58.9534 87.1052 61.5211 88.176 63.4134 90.0743C65.3058 91.9727 66.3683 94.5438 66.3683 97.2242Z" fill="url(#paint7_linear_0_1)"/>
<path style="mix-blend-mode:screen" d="M62.671 62.63C61.0956 64.2054 59.6167 65.845 58.1699 67.5169C75.454 52.5451 97.7678 44.6763 120.62 45.4944C143.472 46.3125 165.166 55.7566 181.336 71.9259C197.505 88.0953 206.949 109.789 207.767 132.642C208.585 155.494 200.716 177.808 185.745 195.092C187.417 193.645 188.96 192.166 190.632 190.591C199.034 182.189 205.698 172.214 210.246 161.236C214.793 150.258 217.133 138.492 217.133 126.61C217.133 114.728 214.793 102.962 210.246 91.9843C205.698 81.0066 199.034 71.032 190.632 62.63C182.23 54.2279 172.255 47.5631 161.277 43.0159C150.299 38.4688 138.534 36.1284 126.651 36.1284C114.769 36.1284 103.003 38.4688 92.0255 43.016C81.0477 47.5631 71.073 54.2279 62.671 62.63Z" fill="url(#paint8_linear_0_1)"/>
<path style="mix-blend-mode:color-dodge" d="M222.369 90.2457C229.01 79.093 212.575 57.0617 185.662 41.0374C158.749 25.013 131.549 21.0638 124.908 32.2166C118.268 43.3693 134.702 65.4007 161.615 81.425C188.528 97.4493 215.729 101.398 222.369 90.2457Z" fill="url(#paint9_radial_0_1)"/>
<defs>
<linearGradient id="paint0_linear_0_1" x1="213.827" y1="40.1242" x2="38.6371" y2="215.315" gradientUnits="userSpaceOnUse">
<stop stop-color="#E3E3E3"/>
<stop offset="0.02" stop-color="#D5D5D5"/>
<stop offset="0.05" stop-color="#CACACA"/>
<stop offset="0.08" stop-color="#C7C7C7"/>
<stop offset="0.22" stop-color="#8E8E8E"/>
<stop offset="0.28" stop-color="#ACACAC"/>
<stop offset="0.35" stop-color="#CDCDCD"/>
<stop offset="0.39" stop-color="#D9D9D9"/>
<stop offset="0.44" stop-color="#E0E0E0"/>
<stop offset="0.52" stop-color="#F3F3F3"/>
<stop offset="0.56" stop-color="white"/>
<stop offset="0.64" stop-color="#E5E5E5"/>
<stop offset="0.75" stop-color="#BFBFBF"/>
<stop offset="0.78" stop-color="#A8A8A8"/>
<stop offset="0.81" stop-color="#959595"/>
<stop offset="0.84" stop-color="#8E8E8E"/>
<stop offset="0.92" stop-color="#8E8E8E"/>
<stop offset="0.95" stop-color="#B6B6B6"/>
<stop offset="0.98" stop-color="#D7D7D7"/>
<stop offset="1" stop-color="#E3E3E3"/>
</linearGradient>
<linearGradient id="paint1_linear_0_1" x1="127.396" y1="245.798" x2="127.396" y2="12.6399" gradientUnits="userSpaceOnUse">
<stop stop-color="#E3E3E3"/>
<stop offset="0.02" stop-color="#D5D5D5"/>
<stop offset="0.05" stop-color="#CACACA"/>
<stop offset="0.08" stop-color="#C7C7C7"/>
<stop offset="0.22" stop-color="#8E8E8E"/>
<stop offset="0.28" stop-color="#ACACAC"/>
<stop offset="0.35" stop-color="#CDCDCD"/>
<stop offset="0.39" stop-color="#D9D9D9"/>
<stop offset="0.44" stop-color="#E0E0E0"/>
<stop offset="0.52" stop-color="#F3F3F3"/>
<stop offset="0.56" stop-color="white"/>
<stop offset="0.64" stop-color="#E5E5E5"/>
<stop offset="0.75" stop-color="#BFBFBF"/>
<stop offset="0.78" stop-color="#A8A8A8"/>
<stop offset="0.81" stop-color="#959595"/>
<stop offset="0.84" stop-color="#8E8E8E"/>
<stop offset="0.92" stop-color="#8E8E8E"/>
<stop offset="0.95" stop-color="#B6B6B6"/>
<stop offset="0.98" stop-color="#D7D7D7"/>
<stop offset="1" stop-color="#E3E3E3"/>
</linearGradient>
<linearGradient id="paint2_linear_0_1" x1="127.391" y1="248.944" x2="127.391" y2="4.30812" gradientUnits="userSpaceOnUse">
<stop stop-color="#C6C6C6"/>
<stop offset="0.01" stop-color="#BABABA"/>
<stop offset="0.03" stop-color="#999999"/>
<stop offset="0.05" stop-color="#646464"/>
<stop offset="0.08" stop-color="#181818"/>
<stop offset="0.16" stop-color="#181818"/>
<stop offset="0.18" stop-color="#1F1F1F"/>
<stop offset="0.2" stop-color="#323232"/>
<stop offset="0.23" stop-color="#525252"/>
<stop offset="0.25" stop-color="#7C7C7C"/>
<stop offset="0.31" stop-color="#A3A3A3"/>
<stop offset="0.4" stop-color="#E5E5E5"/>
<stop offset="0.44" stop-color="white"/>
<stop offset="0.47" stop-color="#EAEAEA"/>
<stop offset="0.53" stop-color="#CBCBCB"/>
<stop offset="0.58" stop-color="#B8B8B8"/>
<stop offset="0.61" stop-color="#B1B1B1"/>
<stop offset="0.63" stop-color="#A5A5A5"/>
<stop offset="0.67" stop-color="#848484"/>
<stop offset="0.73" stop-color="#505050"/>
<stop offset="0.78" stop-color="#181818"/>
<stop offset="0.89" stop-color="#777777"/>
<stop offset="0.92" stop-color="#8D8D8D"/>
<stop offset="0.94" stop-color="#909090"/>
<stop offset="0.96" stop-color="#9B9B9B"/>
<stop offset="0.98" stop-color="#ACACAC"/>
<stop offset="1" stop-color="#C6C6C6"/>
</linearGradient>
<linearGradient id="paint3_linear_0_1" x1="202.095" y1="52.0033" x2="62.238" y2="191.828" gradientUnits="userSpaceOnUse">
<stop stop-color="#E3E3E3"/>
<stop offset="0.02" stop-color="#D5D5D5"/>
<stop offset="0.05" stop-color="#CACACA"/>
<stop offset="0.08" stop-color="#C7C7C7"/>
<stop offset="0.22" stop-color="#8E8E8E"/>
<stop offset="0.28" stop-color="#ACACAC"/>
<stop offset="0.35" stop-color="#CDCDCD"/>
<stop offset="0.39" stop-color="#D9D9D9"/>
<stop offset="0.44" stop-color="#E0E0E0"/>
<stop offset="0.52" stop-color="#F3F3F3"/>
<stop offset="0.56" stop-color="white"/>
<stop offset="0.64" stop-color="#E5E5E5"/>
<stop offset="0.75" stop-color="#BFBFBF"/>
<stop offset="0.78" stop-color="#A8A8A8"/>
<stop offset="0.81" stop-color="#959595"/>
<stop offset="0.84" stop-color="#8E8E8E"/>
<stop offset="0.92" stop-color="#8E8E8E"/>
<stop offset="0.95" stop-color="#B6B6B6"/>
<stop offset="0.98" stop-color="#D7D7D7"/>
<stop offset="1" stop-color="#E3E3E3"/>
</linearGradient>
<radialGradient id="paint4_radial_0_1" cx="0" cy="0" r="1" gradientUnits="userSpaceOnUse" gradientTransform="translate(128.461 122.925) rotate(-0.12946) scale(97.3076 97.3076)">
<stop offset="0.41" stop-color="#51B1FF"/>
<stop offset="0.52" stop-color="#4DADFB"/>
<stop offset="0.64" stop-color="#43A1ED"/>
<stop offset="0.76" stop-color="#328CD7"/>
<stop offset="0.89" stop-color="#1970B9"/>
<stop offset="1" stop-color="#005299"/>
</radialGradient>
<radialGradient id="paint5_radial_0_1" cx="0" cy="0" r="1" gradientUnits="userSpaceOnUse" gradientTransform="translate(128.461 122.925) rotate(-0.12946) scale(97.3076 97.3076)">
<stop offset="0.85" stop-color="white"/>
<stop offset="0.87" stop-color="#FBFCFE"/>
<stop offset="0.89" stop-color="#EFF5FC"/>
<stop offset="0.91" stop-color="#DAE7F9"/>
<stop offset="0.93" stop-color="#BDD5F4"/>
<stop offset="0.95" stop-color="#98BDEF"/>
<stop offset="0.96" stop-color="#6BA0E7"/>
<stop offset="0.98" stop-color="#367FDF"/>
<stop offset="1" stop-color="#005CD6"/>
</radialGradient>
<linearGradient id="paint6_linear_0_1" x1="127.39" y1="180.592" x2="127.39" y2="40.5422" gradientUnits="userSpaceOnUse">
<stop/>
<stop offset="0.14" stop-color="#020304"/>
<stop offset="0.27" stop-color="#080C0F"/>
<stop offset="0.39" stop-color="#121C22"/>
<stop offset="0.51" stop-color="#21323D"/>
<stop offset="0.63" stop-color="#334E5F"/>
<stop offset="0.75" stop-color="#4A718A"/>
<stop offset="0.87" stop-color="#659BBC"/>
<stop offset="0.98" stop-color="#83C9F4"/>
<stop offset="1" stop-color="#89D2FF"/>
</linearGradient>
<linearGradient id="paint7_linear_0_1" x1="35.1498" y1="83.8816" x2="64.4071" y2="102.368" gradientUnits="userSpaceOnUse">
<stop/>
<stop offset="0.14" stop-color="#020304"/>
<stop offset="0.27" stop-color="#080C0F"/>
<stop offset="0.39" stop-color="#121C22"/>
<stop offset="0.51" stop-color="#21323D"/>
<stop offset="0.63" stop-color="#334E5F"/>
<stop offset="0.75" stop-color="#4A718A"/>
<stop offset="0.87" stop-color="#659BBC"/>
<stop offset="0.98" stop-color="#83C9F4"/>
<stop offset="1" stop-color="#89D2FF"/>
</linearGradient>
<linearGradient id="paint8_linear_0_1" x1="122.105" y1="131.372" x2="190.762" y2="62.7145" gradientUnits="userSpaceOnUse">
<stop/>
<stop offset="0.14" stop-color="#020304"/>
<stop offset="0.27" stop-color="#080C0F"/>
<stop offset="0.39" stop-color="#121C22"/>
<stop offset="0.51" stop-color="#21323D"/>
<stop offset="0.63" stop-color="#334E5F"/>
<stop offset="0.75" stop-color="#4A718A"/>
<stop offset="0.87" stop-color="#659BBC"/>
<stop offset="0.98" stop-color="#83C9F4"/>
<stop offset="1" stop-color="#89D2FF"/>
</linearGradient>
<radialGradient id="paint9_radial_0_1" cx="0" cy="0" r="1" gradientUnits="userSpaceOnUse" gradientTransform="translate(179.662 59.8644) rotate(30.77) scale(56.9061 23.5952)">
<stop stop-color="#4F4F4F"/>
<stop offset="0.12" stop-color="#3D3D3D"/>
<stop offset="0.33" stop-color="#222222"/>
<stop offset="0.54" stop-color="#0F0F0F"/>
<stop offset="0.76" stop-color="#040404"/>
<stop offset="1"/>
</radialGradient>
</defs>
</svg>