<svg width="254" height="253" viewBox="0 0 254 253" fill="none" xmlns="http://www.w3.org/2000/svg">
<path d="M127.376 252.82C197.3 252.82 253.984 196.224 253.984 126.41C253.984 56.5956 197.3 0 127.376 0C57.452 0 0.767578 56.5956 0.767578 126.41C0.767578 196.224 57.452 252.82 127.376 252.82Z" fill="url(#paint0_linear_0_1)"/>
<path d="M127.377 250.543C196.042 250.543 251.705 194.967 251.705 126.41C251.705 57.8528 196.042 2.27637 127.377 2.27637C58.7125 2.27637 3.04883 57.8528 3.04883 126.41C3.04883 194.967 58.7125 250.543 127.377 250.543Z" fill="url(#paint1_linear_0_1)"/>
<g style="mix-blend-mode:screen">
<path d="M127.423 248.549H125.992L126.213 227.591H127.376L127.423 248.549ZM128.838 248.549L128.618 227.591H129.782L130.285 248.549H128.838ZM124.546 248.549H123.115L123.854 227.607H125.033L124.546 248.549ZM131.7 248.549L130.993 227.528H132.156L133.147 248.455L131.7 248.549ZM121.7 248.549H120.253L121.558 227.418H122.738L121.7 248.549ZM134.578 248.549L133.351 227.638H134.546L135.993 248.549H134.578ZM118.854 248.471L117.423 248.361L119.121 227.465L120.3 227.56L118.854 248.471ZM137.439 248.361L135.71 227.246L136.889 227.136L138.839 248.016L137.439 248.361ZM115.992 248.235L114.561 248.094L116.747 227.246L117.926 227.371L115.992 248.235ZM140.301 248.094L138.115 227.246L139.295 227.12L141.716 247.937L140.301 248.094ZM113.146 247.937L111.731 247.764L114.373 226.979L115.568 227.12L113.146 247.937ZM143.131 247.764L140.427 226.743L141.575 226.602L144.499 247.356L143.131 247.764ZM110.284 247.576L108.885 247.372L112.03 226.649L113.209 226.822L110.284 247.576ZM145.977 247.356L142.833 226.633L143.98 226.461L147.408 247.136L145.977 247.356ZM107.407 246.932L105.992 246.681L109.655 226.052L110.819 226.241L107.407 246.932ZM148.776 246.681L145.144 226.037L146.323 225.817L150.207 246.414L148.776 246.681ZM104.592 246.43L103.161 246.163L107.407 225.613L108.555 225.833L104.592 246.43ZM151.607 246.147L147.424 225.597L148.619 225.362L152.99 245.771L151.607 246.147ZM101.778 245.865L100.394 245.566L104.97 225.158L106.149 225.409L101.778 245.865ZM154.405 245.551L149.688 225.142L150.852 224.859L155.71 245.268L154.405 245.551ZM99.0104 245.205L97.6267 244.876L102.69 224.467L103.869 224.749L99.0104 245.205ZM157.188 244.86L152.078 224.451L153.242 224.169L158.572 244.436L157.188 244.86ZM96.1958 244.515L94.7964 244.138L100.394 223.933L101.526 224.231L96.1958 244.515ZM159.972 244.122L154.374 223.917L155.522 223.588L161.34 243.73L159.972 244.122ZM93.4284 243.745L92.0604 243.353L98.0984 223.274C98.4758 223.384 98.8531 223.509 99.2462 223.603L93.4284 243.745ZM162.723 243.322L156.685 223.227L157.833 222.881L164.123 242.882L162.723 243.322ZM90.6767 242.929L89.293 242.489L95.8342 222.567L96.9505 222.928L90.6767 242.929ZM165.443 242.474L158.934 222.552L160.035 222.175L166.843 242.066L165.443 242.474ZM87.9565 242.066L86.6043 241.595L93.6014 221.829L94.7335 222.222L87.9565 242.066ZM168.148 241.579L161.135 221.814L162.252 221.421L169.485 241.092L168.148 241.579ZM85.1891 241.108L83.8369 240.606L91.29 221.013L92.4221 221.421L85.1891 241.108ZM170.837 240.59L163.352 220.997L164.469 220.573L172.173 240.072L170.837 240.59ZM82.5004 240.087L81.1638 239.554L89.0257 220.134L90.1421 220.573L82.5004 240.087ZM173.494 239.538L165.585 220.087L166.654 219.647L174.831 238.957L173.494 239.538ZM79.8902 238.926C79.4499 238.758 79.0097 238.57 78.5694 238.361L86.9659 219.223L88.0509 219.679L79.8902 238.926ZM176.183 238.376L167.818 219.145L168.903 218.674L177.504 237.795L176.183 238.376ZM77.2486 237.78L75.9435 237.183L84.7803 218.171L85.8653 218.674L77.2486 237.78ZM178.809 237.199L169.972 218.187L171.041 217.685L180.098 236.524L178.809 237.199ZM74.6542 236.571L73.3491 235.943L82.6419 217.104L83.7111 217.622L74.6542 236.571ZM181.387 235.959L172.095 217.12L173.164 216.586L182.598 235.284L181.387 235.959ZM72.0597 235.299L70.7861 234.656L80.5034 216.068L81.5726 216.617L72.0597 235.299ZM183.935 234.671L174.202 216.099L175.255 215.55L185.193 234.012L183.935 234.671ZM69.5125 233.981L68.2703 233.29L78.4122 214.937L79.4657 215.518L69.5125 233.981ZM186.451 233.321L176.309 214.969L177.331 214.404L187.708 232.615L186.451 233.321ZM66.9495 232.583L65.723 231.877L76.3366 213.807L77.3901 214.404L66.9495 232.583ZM188.888 231.908L178.353 213.807L179.375 213.21L190.177 231.186L188.888 231.908ZM64.4651 231.139L63.2544 230.401L74.2611 212.551L75.2831 213.163L64.4651 231.139ZM191.325 230.448L180.318 212.583L181.309 211.97L192.504 229.695L191.325 230.448ZM62.0279 229.632L60.8172 228.863L72.2642 211.295L73.2547 211.923L62.0279 229.632ZM193.762 228.925L182.347 211.327L183.337 210.683L194.957 228.14L193.762 228.925ZM59.6222 228.078L58.4272 227.277L70.2672 210.008L71.2421 210.667L59.6222 228.078ZM196.121 227.355L184.344 210.086L185.303 209.427L197.331 226.602L196.121 227.355ZM57.2479 226.461L56.0843 225.629L68.3175 208.595L69.2923 209.301L57.2479 226.461ZM198.495 225.691L186.262 208.673L187.237 207.967L199.659 224.859L198.495 225.691ZM54.9679 224.796L53.8358 223.964L66.4149 207.198L67.3898 207.92L54.9679 224.796ZM200.854 224.027L188.274 207.276L189.218 206.57L201.986 223.227L200.854 224.027ZM52.6723 223.085L51.5402 222.19L64.5752 205.769L65.5029 206.491L52.6723 223.085ZM203.118 222.285L190.098 205.957L191.042 205.204L204.234 221.515L203.118 222.285ZM50.4238 221.296L49.3231 220.401L62.7198 204.388L63.6475 205.141L50.4238 221.296ZM205.335 220.495L191.954 204.388L192.866 203.634L206.467 219.616L205.335 220.495ZM48.2224 219.474L47.1375 218.548L60.8958 202.818L61.8078 203.603L48.2224 219.474ZM207.52 218.642L193.778 202.818L194.658 202.048L208.605 217.748L207.52 218.642ZM46.084 217.638L45.0305 216.696L59.1819 201.201L60.0782 202.001L46.084 217.638ZM209.612 216.774L195.46 201.279L196.341 200.478L210.634 215.817L209.612 216.774ZM43.8827 215.722L42.8292 214.733L57.3422 199.584L58.1913 200.384L43.8827 215.722ZM211.703 214.827L197.284 199.678L198.133 198.861L212.756 213.807C212.458 214.168 212.112 214.514 211.766 214.827H211.703ZM41.8857 213.744L40.8794 212.74L55.707 197.904L56.5561 198.752L41.8857 213.744ZM213.841 212.834L198.998 198.014L199.831 197.166L214.832 211.829L213.841 212.834ZM39.7945 211.719L38.851 210.667L54.0402 196.177L54.8736 197.04L39.7945 211.719ZM215.76 210.793L200.602 196.302L201.404 195.455L216.75 209.757C216.467 210.102 216.153 210.447 215.807 210.793H215.76ZM37.8133 209.647L36.8384 208.595L52.3735 194.466L53.1754 195.329L37.8133 209.647ZM217.725 208.689L202.206 194.56L203.023 193.681L218.747 207.622C218.417 207.998 218.103 208.344 217.772 208.689H217.725ZM35.9421 207.527L34.983 206.444L50.8011 192.723L51.5716 193.602L35.9421 207.527ZM219.675 206.57L203.857 192.802L204.627 191.907L220.618 205.486L219.675 206.57ZM34.1339 205.377L33.2062 204.262L49.386 190.918L50.1407 191.812L34.1339 205.377ZM221.546 204.388L205.382 190.996L206.137 190.07L222.442 203.273L221.546 204.388ZM32.2313 203.163L31.335 202.064L47.8136 189.065L48.5526 189.991L32.2313 203.163ZM223.339 202.174L206.891 189.144L207.615 188.217L224.235 201.028L223.339 202.174ZM30.4545 200.934L29.5897 199.788L46.367 187.228L47.0746 188.155L30.4545 200.934ZM225.1 199.882L208.338 187.323L209.046 186.365L225.949 198.799C225.681 199.128 225.336 199.505 225.1 199.882ZM28.7878 198.642L27.9544 197.496L44.9991 185.266L45.7066 186.239L28.7878 198.642ZM226.908 197.574L209.848 185.36L210.555 184.387L227.741 196.428L226.908 197.574ZM27.2154 196.318L26.3978 195.141L43.694 183.335L44.3701 184.308L27.2154 196.318ZM228.48 195.235L211.184 183.413L211.86 182.424L229.329 194.057L228.48 195.235ZM25.4858 193.963C25.2185 193.555 24.9512 193.163 24.6996 192.754L42.326 181.373L42.9392 182.409L25.4858 193.963ZM230.053 192.849L212.442 181.435C212.662 181.106 212.882 180.776 213.087 180.446L230.823 191.64C230.556 192.048 230.304 192.456 230.053 192.849ZM23.9134 191.561L23.1587 190.352L41.0366 179.363C41.2411 179.708 41.4612 180.038 41.6656 180.368L23.9134 191.561ZM231.625 190.431L213.747 179.442C213.967 179.112 214.172 178.766 214.376 178.437L232.364 189.222L231.625 190.431ZM22.4983 189.144L21.7592 187.888L39.7945 177.338C39.9831 177.683 40.1876 178.013 40.392 178.343L22.4983 189.144ZM233.197 187.982L215.084 177.385C215.288 177.04 215.492 176.71 215.681 176.364L233.921 186.726L233.197 187.982ZM20.9259 186.663L20.234 185.439L38.5995 175.266L39.1812 176.302L20.9259 186.663ZM234.471 185.549L216.106 175.391L216.672 174.355L235.163 184.277C234.943 184.638 234.77 185.062 234.471 185.549ZM19.5736 184.23L18.9132 182.974L37.5145 173.256L38.0648 174.308L19.5736 184.23ZM235.839 183.005L217.238 173.303C217.411 172.958 217.599 172.597 217.772 172.236L236.499 181.734L235.839 183.005ZM18.2528 181.639L17.6082 180.368L36.4767 171.074L37.0113 172.141L18.2528 181.639ZM237.128 180.399L218.26 171.105C218.433 170.76 218.59 170.415 218.763 170.053L237.632 179.096C237.569 179.536 237.349 179.96 237.128 180.399ZM16.9949 179.065L16.3974 177.793L35.4232 168.939L35.9421 170.038L16.9949 179.065ZM238.386 177.809L219.36 168.954C219.533 168.609 219.691 168.248 219.848 167.887L239 176.49L238.386 177.809ZM15.7999 176.49C15.5955 176.051 15.4068 175.611 15.2181 175.171L34.4641 166.819L34.9358 167.887L15.7999 176.49ZM239.581 175.187L220.335 166.804L220.807 165.72L240.147 173.853L239.581 175.187ZM14.7307 173.868C14.5577 173.429 14.369 172.989 14.1804 172.55L33.6307 164.7L34.071 165.783L14.7307 173.868ZM240.776 172.534L221.342 164.606C221.483 164.245 221.64 163.884 221.782 163.507L241.311 171.199L240.776 172.534ZM13.6458 171.215C13.4728 170.776 13.2998 170.336 13.1426 169.896L32.7502 162.424L33.1747 163.538L13.6458 171.215ZM241.735 169.849L222.191 162.408L222.615 161.293L242.317 168.515C242.081 168.954 241.908 169.41 241.735 169.849ZM12.5294 168.546C12.3721 168.091 12.2149 167.651 12.0419 167.196L31.8382 160.21C31.9797 160.571 32.1055 160.948 32.247 161.325L12.5294 168.546ZM242.726 167.165L222.945 160.179L223.323 159.048L243.198 165.799L242.726 167.165ZM11.5859 165.846C11.4287 165.406 11.2715 164.951 11.1299 164.496L31.0677 157.949L31.4451 159.08L11.5859 165.846ZM243.654 164.433L223.763 157.918C223.873 157.541 223.999 157.164 224.109 156.788L244.141 163.067C243.953 163.57 243.811 163.978 243.654 164.433ZM10.6897 163.13L10.2651 161.749L30.3602 155.72C30.4702 156.097 30.596 156.474 30.7061 156.835L10.6897 163.13ZM244.519 161.686L224.424 155.72L224.754 154.574L244.927 160.383C244.802 160.775 244.66 161.23 244.519 161.686ZM9.91921 160.43C9.79342 159.975 9.6519 159.519 9.52611 159.064L29.7627 153.444L30.0929 154.621L9.91921 160.43ZM245.383 158.986L225.147 153.412C225.257 153.036 225.351 152.643 225.446 152.266L245.761 157.604L245.383 158.986ZM9.14874 157.667C9.03867 157.211 8.91288 156.741 8.80282 156.27L29.2438 151.183L29.5268 152.313L9.14874 157.667ZM246.107 156.207L225.744 151.136L226.027 149.974L246.468 154.825C246.28 155.233 246.17 155.72 246.044 156.16L246.107 156.207ZM8.34683 154.841L8.01663 153.459L28.4576 148.75L28.7406 149.911L8.34683 154.841ZM246.657 153.381L226.216 148.765C226.31 148.389 226.389 148.012 226.468 147.619L247.003 151.984C246.924 152.455 246.814 152.91 246.704 153.381H246.657ZM7.65498 152.046C7.54491 151.576 7.45057 151.12 7.35623 150.649L27.9387 146.505L28.1746 147.666L7.65498 152.046ZM247.349 150.586L226.782 146.442C226.861 146.049 226.924 145.673 227.002 145.28L247.632 149.174C247.49 149.66 247.349 150.115 247.349 150.586ZM7.24616 149.252C7.15181 148.781 7.07319 148.31 6.97885 147.839L27.6557 144.181C27.6557 144.558 27.7972 144.95 27.8758 145.343L7.24616 149.252ZM247.821 147.761L227.144 144.134L227.348 142.957L248.088 146.301C248.009 146.819 247.931 147.29 247.836 147.761H247.821ZM6.77444 146.426C6.69582 145.955 6.61721 145.484 6.55431 144.998L27.294 141.858L27.4827 143.019L6.77444 146.426ZM248.387 144.95L227.631 141.811C227.631 141.418 227.741 141.026 227.804 140.633L248.591 143.553C248.45 144.008 248.371 144.479 248.308 144.95H248.387ZM6.33418 143.585L6.14549 142.172L26.9638 139.487C26.9638 139.88 27.0739 140.272 27.1211 140.665L6.33418 143.585ZM248.78 142.109L227.961 139.424L228.103 138.263L248.921 140.68C248.827 141.167 248.764 141.591 248.701 142.109H248.78ZM5.97253 140.743C5.97253 140.272 5.86246 139.801 5.81529 139.33L26.6965 137.132L26.8223 138.31L5.97253 140.743ZM249.11 139.267L228.229 137.069C228.229 136.693 228.323 136.3 228.354 135.908L249.251 137.839C249.141 138.31 249.094 138.781 249.031 139.267H249.11ZM5.67377 137.902C5.67377 137.431 5.59516 136.96 5.54798 136.489L26.4764 134.762L26.5707 135.955L5.67377 137.902ZM249.393 136.426L228.465 134.699C228.465 134.322 228.465 133.93 228.559 133.537L249.503 134.981C249.377 135.468 249.346 135.939 249.299 136.426H249.393ZM5.3593 135.06L5.26496 133.616L26.2248 132.407C26.2248 132.799 26.2248 133.192 26.3034 133.584L5.3593 135.06ZM249.503 133.49L228.48 132.344C228.48 131.952 228.48 131.559 228.48 131.167L249.456 132.124C249.55 132.611 249.534 133.082 249.503 133.569V133.49ZM5.20206 132.171C5.20206 131.685 5.20206 131.198 5.20206 130.727L26.1776 130.021V131.182L5.20206 132.171ZM249.629 130.601L228.653 129.895V128.686L249.645 129.188L249.629 130.601ZM5.092 129.345C5.092 128.859 5.092 128.388 5.092 127.917L26.0833 127.666C26.0833 128.058 26.0833 128.451 26.0833 128.843L5.092 129.345ZM249.692 127.776L228.7 127.54C228.7 127.148 228.7 126.739 228.7 126.347V126.221H249.707V126.347C249.707 126.896 249.707 127.367 249.692 127.838V127.776ZM5.06055 126.473V125.06L26.0518 125.279V126.41L5.06055 126.473ZM228.7 125.091C228.7 124.698 228.7 124.306 228.7 123.914L249.692 123.427C249.692 123.898 249.692 124.369 249.692 124.855L228.7 125.091ZM26.0833 124.086L5.092 123.631C5.092 123.144 5.092 122.658 5.092 122.187L26.0676 122.924C26.099 123.317 26.0833 123.694 26.0833 124.086ZM228.653 122.752C228.653 122.344 228.653 121.951 228.653 121.559L249.629 120.57C249.629 121.056 249.629 121.527 249.629 122.014L228.653 122.752ZM26.1619 121.716L5.20206 120.774C5.20206 120.287 5.20206 119.816 5.28068 119.345L26.2405 120.538C26.1934 120.931 26.1776 121.323 26.1619 121.716ZM228.48 120.366C228.48 119.973 228.48 119.581 228.48 119.172L249.409 117.697C249.409 118.183 249.409 118.654 249.503 119.125L228.48 120.366ZM26.2877 119.361L5.3593 117.916L5.45364 116.488L26.382 118.168L26.2877 119.361ZM228.37 118.042C228.37 117.65 228.37 117.273 228.26 116.88L249.157 114.902L249.299 116.347L228.37 118.042ZM26.4921 116.99L5.57943 115.059L5.72095 113.646L26.6022 115.797L26.4921 116.99ZM228.15 115.624L228.009 114.463L248.921 111.998C248.921 112.485 249.031 112.956 249.078 113.442L228.15 115.624ZM26.728 114.635L5.87819 112.202C5.87819 111.731 5.98825 111.26 6.05115 110.789L26.8695 113.458L26.728 114.635ZM227.867 113.332C227.867 112.94 227.757 112.547 227.71 112.155L248.497 109.235L248.685 110.663L227.867 113.332ZM27.0267 112.265L6.23983 109.376C6.23983 108.905 6.38135 108.418 6.44424 107.947L27.1997 111.087C27.2154 111.495 27.0896 111.888 27.0267 112.265ZM227.537 110.93L227.348 109.753L248.056 106.346L248.292 107.743L227.537 110.93ZM27.3884 109.926L6.66438 106.55C6.743 106.064 6.83734 105.593 6.91596 105.122L27.5928 108.78C27.5142 109.156 27.4513 109.533 27.3884 109.926ZM227.081 108.607L226.876 107.429L247.49 103.52C247.585 103.976 247.663 104.447 247.758 104.918L227.081 108.607ZM27.7972 107.586L7.16754 103.724C7.26188 103.253 7.3405 102.782 7.43484 102.311L28.033 106.425L27.7972 107.586ZM226.703 106.252L226.468 105.106L246.987 100.773C247.097 101.228 247.192 101.699 247.286 102.17L226.703 106.252ZM28.2689 105.279L7.7336 100.914C7.82794 100.443 7.938 99.988 8.03235 99.517L28.4733 104.101L28.2689 105.279ZM226.216 103.913L225.933 102.751L246.374 97.8843C246.484 98.3553 246.594 98.8105 246.688 99.2815L226.216 103.913ZM28.7878 102.971L8.34683 98.1198L8.67702 96.7225L29.118 101.809L28.7878 102.971ZM225.65 101.636C225.556 101.26 225.461 100.867 225.351 100.49L245.651 95.1369C245.776 95.5922 245.902 96.0632 246.012 96.5185L225.65 101.636ZM29.3696 100.663L9.0544 95.341L9.43177 93.9438L29.6683 99.517C29.5583 99.8938 29.4639 100.271 29.3696 100.663ZM225.052 99.3443L224.722 98.214L244.896 92.3739C245.022 92.8292 245.148 93.3001 245.289 93.7554L225.052 99.3443ZM30.0771 98.371L9.82486 92.578C9.95066 92.1227 10.0922 91.6674 10.218 91.2121L30.3602 97.2249L30.0771 98.371ZM224.471 97.0836C224.361 96.6912 224.235 96.3144 224.109 95.9376L244.141 89.6579L244.566 91.0238L224.471 97.0836ZM30.6746 96.0632L10.6425 89.7835C10.784 89.3282 10.9413 88.873 11.0828 88.4177L31.0363 94.9642C30.9262 95.341 30.8004 95.7178 30.6746 96.0632ZM223.669 94.7759L223.291 93.6455L243.166 86.8792C243.324 87.3344 243.465 87.7897 243.622 88.2293L223.669 94.7759ZM31.4137 93.8339L11.4916 87.099L11.9633 85.7331L31.7596 92.7193C31.681 93.0803 31.5395 93.4571 31.4137 93.8339ZM222.914 92.5623C222.773 92.2012 222.647 91.8244 222.505 91.4633L242.207 84.2103C242.364 84.6499 242.537 85.1052 242.695 85.5604L222.914 92.5623ZM32.2156 91.6046L12.4979 84.383L13.064 83.0329L32.6873 90.4743C32.4829 90.8511 32.3414 91.2278 32.2156 91.6046ZM222.081 90.3487L221.656 89.2497L241.185 81.5257L241.704 82.8759L222.081 90.3487ZM33.0489 89.3753L13.52 81.6827L14.0546 80.364L33.5049 88.2136L33.0489 89.3753ZM221.216 88.2136L220.76 87.1303L240.1 78.9668L240.651 80.2855L221.216 88.2136ZM33.9609 87.1774L14.6364 79.0296L15.2024 77.7108L34.4484 86.0785C34.2597 86.4396 34.1024 86.8007 33.9609 87.1774ZM220.288 85.9529L219.816 84.8854L238.952 76.2822C239.157 76.7061 239.345 77.1457 239.534 77.5853L220.288 85.9529ZM34.9044 84.9796L15.7527 76.4078L16.366 75.0891L35.3918 83.912C35.2346 84.2731 35.0773 84.6185 34.9044 84.9796ZM219.329 83.8178L218.826 82.7503L237.694 73.6762C237.915 74.1157 238.103 74.5396 238.308 74.9792L219.329 83.8178ZM35.9107 82.8288L17.0421 73.786L17.6711 72.4987L36.5396 81.7612L35.9107 82.8288ZM218.307 81.6827C218.118 81.3373 217.945 80.9763 217.772 80.6309L236.484 71.2114L237.128 72.483L218.307 81.6827ZM36.9642 80.6937L18.2371 71.2742L18.8975 69.9868L37.4988 79.6889L36.9642 80.6937ZM217.222 79.579L216.672 78.5272L235.163 68.5896L235.823 69.8613L217.222 79.579ZM38.0648 78.6057L19.5736 68.6681C19.7938 68.2442 20.0296 67.8361 20.2498 67.4279L38.6309 77.5381L38.0648 78.6057ZM216.106 77.5068L215.524 76.4549L233.779 66.1091L234.471 67.3337L216.106 77.5068ZM39.2127 76.5177L20.9259 66.2347C21.1617 65.8266 21.3976 65.4027 21.6492 64.9945L39.7945 75.4816L39.2127 76.5177ZM214.926 75.4345C214.738 75.0891 214.533 74.7594 214.329 74.4297L232.333 63.6287C232.568 64.0526 232.82 64.4607 233.056 64.8689L214.926 75.4345ZM40.392 74.4611L22.4039 63.6915L23.1587 62.4512L41.0366 73.4407C40.8165 73.786 40.6121 74.0843 40.4077 74.4611H40.392ZM213.7 73.4093L213.071 72.4045L230.807 61.1953L231.578 62.4198L213.7 73.4093ZM41.6656 72.5144L23.9134 61.2424L24.6839 60.0336L42.2945 71.4469L41.6656 72.5144ZM212.442 71.4783L211.797 70.5049L229.266 58.8875L230.053 60.0807L212.442 71.4783ZM42.9392 70.4421L25.4701 58.8404L26.272 57.6473L43.5682 69.4688L42.9392 70.4421ZM211.184 69.3746L210.508 68.4012L227.71 56.3914L228.512 57.5531L211.184 69.3746ZM44.2915 68.4797L27.0896 56.4699L27.923 55.2924L44.9833 67.5221L44.2915 68.4797ZM209.785 67.5064L209.077 66.5487L225.98 54.1307L226.814 55.261L209.785 67.5064ZM45.6909 66.5487L28.7878 54.1464L29.6369 53.0003L46.4142 65.5597L45.6909 66.5487ZM208.37 65.5911L207.646 64.6491L224.266 51.8386C224.549 52.2154 224.848 52.5922 225.131 52.9846L208.37 65.5911ZM47.106 64.6648L30.5017 51.8543L31.3822 50.724L47.8451 63.7229L47.106 64.6648ZM206.907 63.7072L206.184 62.7966L222.49 49.5936L223.386 50.724L206.907 63.7072ZM48.5841 62.7966L32.2785 49.6093C32.5772 49.2325 32.876 48.8558 33.1905 48.4947L49.3388 61.8861L48.5841 62.7966ZM205.413 61.8704L204.659 60.9755L220.618 47.3957L221.53 48.4947L205.413 61.8704ZM50.1093 60.9755L34.1024 47.3957C34.4169 47.0346 34.7157 46.6736 35.0301 46.3282L50.8798 60.065L50.1093 60.9755ZM203.888 60.065L203.102 59.1701L218.826 45.2449L219.769 46.3125L203.888 60.065ZM51.6659 59.1701L35.9421 45.2449L36.9013 44.1774L52.405 58.3067L51.6659 59.1701ZM202.3 58.291L201.498 57.4275L216.845 43.1256L217.82 44.1774L202.3 58.291ZM53.2698 57.4118L37.9076 43.1256C38.2378 42.7802 38.568 42.4191 38.9139 42.0737L54.0717 56.5641L53.2698 57.4118ZM200.681 56.5641L199.847 55.7006L214.879 41.1161L215.87 42.1365L200.681 56.5641ZM54.9051 55.7006L39.8888 41.1161L40.9109 40.0956L55.7384 54.9313L54.9051 55.7006ZM199.014 54.8528L198.18 54.0365L212.851 39.0281L213.873 40.0485L199.014 54.8528ZM56.5875 54.0365L41.9329 39.0281L42.9392 38.0547L57.4523 53.1887L56.5875 54.0365ZM197.331 53.2044L196.467 52.3881L210.775 37.0657L211.813 38.039L197.331 53.2044ZM58.3014 52.3881L43.9927 37.05L45.0619 36.0766L59.2134 51.5874L58.3014 52.3881ZM195.57 51.5874C195.287 51.3205 195.004 51.0536 194.706 50.8025L208.653 35.1033L209.722 36.0609L195.57 51.5874ZM60.0625 50.7868L46.084 35.1347L47.1532 34.1927L60.9273 50.0018L60.0625 50.7868ZM193.809 50.0018L192.913 49.2325L206.467 33.2665L207.568 34.2084L193.809 50.0018ZM61.8078 49.2325L48.2696 33.2665L49.386 32.3245L62.7512 48.479L61.8078 49.2325ZM191.938 48.4633L191.026 47.7254L204.234 31.4297L205.351 32.3402L191.938 48.4633ZM63.6318 47.7254L50.4867 31.4297L51.5873 30.5505L64.6066 46.9876L63.6318 47.7254ZM190.098 46.9719L189.155 46.2497L201.986 29.6557L203.118 30.5348L190.098 46.9719ZM65.5029 46.2497L52.7194 29.6557L53.8516 28.7922L66.4306 45.5432L65.5029 46.2497ZM188.227 45.5275L187.268 44.8211L199.69 27.9287L200.838 28.7922L188.227 45.5275ZM67.3898 44.8368L54.9679 27.9444L56.1158 27.1124L68.4118 44.1303L67.3898 44.8368ZM186.293 44.1303L185.334 43.4395L197.363 26.2489L198.526 27.0967L186.293 44.1303ZM69.3238 43.4552L57.3422 26.2803L58.5215 25.464L70.3458 42.7331L69.3238 43.4552ZM184.454 42.686L183.479 42.0423L195.099 24.5848L196.309 25.4012L184.454 42.686ZM71.3993 42.058L59.7637 24.6005L60.9587 23.8156L72.3742 41.4143L71.3993 42.058ZM182.472 41.3829L181.482 40.7393L192.693 23.0306C193.102 23.2818 193.51 23.533 193.904 23.7999L182.472 41.3829ZM73.3805 40.755L62.0908 23.1091L63.3173 22.3555L74.324 40.2055L73.3805 40.755ZM180.46 40.1113L179.453 39.499L190.24 21.5235L191.482 22.2613L180.46 40.1113ZM75.346 39.5461L64.528 21.6177L65.7859 20.8798L76.3366 38.9967L75.346 39.5461ZM178.368 38.9182L177.331 38.3216L187.693 20.0949L188.935 20.8013L178.368 38.9182ZM77.3744 38.4001L67.0124 20.1734L68.2546 19.4669L78.4122 37.8192L77.3744 38.4001ZM176.309 37.7878L175.255 37.2227L185.177 18.7447L186.435 19.4355L176.309 37.7878ZM79.4499 37.2541L69.5125 18.7918L70.7704 18.1168L80.5034 36.6889L79.4499 37.2541ZM174.202 36.6575L173.148 36.1237L182.582 17.426L183.856 18.0697L174.202 36.6575ZM81.5569 36.1551L72.1226 17.4731L73.3963 16.8294L82.689 35.6684L81.5569 36.1551ZM172.063 35.5899C171.717 35.4016 171.356 35.2446 171.01 35.0719L180.067 16.2329L181.356 16.8608L172.063 35.5899ZM83.6639 35.119L74.607 16.28L75.8963 15.6834L84.7489 34.6794L83.6639 35.119ZM169.925 34.5538L168.856 34.0671L177.441 14.9455L178.762 15.5421L169.925 34.5538ZM85.8181 34.1142L77.2014 15.0083L78.5222 14.4275L86.9659 33.6433L85.8181 34.1142ZM167.755 33.5805L166.654 33.1252L174.815 13.7995L176.136 14.3647L167.755 33.5805ZM87.988 33.1723L79.8116 13.8623L81.1481 13.3128L89.01 32.7327L87.988 33.1723ZM165.585 32.6699L164.469 32.2146L172.158 12.7162L173.494 13.25L165.585 32.6699ZM90.1107 32.2774L82.4689 12.8575L83.8054 12.3395L91.29 31.8535L90.1107 32.2774ZM163.289 31.7907L162.157 31.3826L169.39 11.6958L170.742 12.1982L163.289 31.7907ZM92.3277 31.4297L85.1577 11.7586L86.4942 11.2876L93.507 31.0372L92.3277 31.4297ZM161.041 30.9744L159.924 30.5976L166.67 10.7381L168.038 11.2091L161.041 30.9744ZM94.5762 30.6447L87.8622 10.8009L89.2144 10.3457L95.7713 30.2679C95.3782 30.3935 95.0008 30.5034 94.6391 30.6447H94.5762ZM158.792 30.2208L157.644 29.844L163.934 9.84329L165.302 10.2829L158.792 30.2208ZM96.8247 29.9068L90.5352 9.90609L91.8875 9.48221L97.9726 29.5458L96.8247 29.9068ZM156.575 29.4987L155.427 29.169L161.245 9.02693L162.613 9.41941L156.575 29.4987ZM99.1519 29.2161L93.3341 9.07403L94.702 8.69725L100.3 28.8864L99.1519 29.2161ZM154.295 28.855L153.147 28.541L158.478 8.25767L159.846 8.63445L154.295 28.855ZM101.448 28.5567L96.0857 8.32047L97.4694 7.95939L102.611 28.3683L101.448 28.5567ZM152 28.2113L150.852 27.9287L155.679 7.51981L157.078 7.86519L152 28.2113ZM103.743 27.9758L98.8846 7.56691L100.253 7.25293L104.97 27.6619L103.743 27.9758ZM149.704 27.6776L148.525 27.4107L152.896 6.90754L154.264 7.20583L149.704 27.6776ZM106.07 27.4421L101.668 7.03314L103.083 6.73485L107.234 27.2851L106.07 27.4421ZM147.361 27.1752L146.198 26.9554L150.081 6.34238L151.496 6.62496L147.361 27.1752ZM108.397 26.9868L104.482 6.42087L105.882 6.16968L109.577 26.7984L108.397 26.9868ZM145.034 26.7356L143.87 26.5472L147.251 5.8557L148.666 6.09119L145.034 26.7356ZM110.725 26.5629L107.313 5.9185L108.728 5.69871L111.872 26.4216L110.725 26.5629ZM142.675 26.3588L141.512 26.1861L144.405 5.43182L145.852 5.63591L142.675 26.3588ZM113.067 26.2489L110.143 5.47892L111.558 5.29053L114.262 26.0762L113.067 26.2489ZM140.333 26.0605L139.169 25.9193L141.559 5.08644L143.006 5.27483L140.333 26.0605ZM115.426 25.935L112.989 5.11784L114.42 4.96085L116.605 25.8094L115.426 25.935ZM137.974 25.7937L136.795 25.6681L138.729 4.80386L140.16 4.94515L137.974 25.7937ZM117.8 25.6838L115.835 4.81955L117.281 4.69396L118.964 25.5896L117.8 25.6838ZM135.615 25.5739L134.42 25.4797L135.867 4.56837L137.282 4.67826L135.615 25.5739ZM120.175 25.4954L118.697 4.58407L120.143 4.48987L121.338 25.4169L120.175 25.4954ZM133.241 25.4012H132.046L133.005 4.45847L134.436 4.53697L133.241 25.4012ZM122.549 25.4012L121.558 4.41138H122.989L123.728 25.3541L122.549 25.4012ZM130.867 25.4012H129.672L130.144 4.45847H131.574L130.867 25.4012ZM124.907 25.4012L124.42 4.44277H125.835L126.118 25.4012H124.907ZM128.477 25.4012H127.376L127.282 4.44277H128.713L128.477 25.4012Z" fill="url(#paint2_linear_0_1)"/>
</g>
<path d="M127.375 225.126C181.98 225.126 226.247 180.929 226.247 126.41C226.247 71.8902 181.98 27.6934 127.375 27.6934C72.7701 27.6934 28.5039 71.8902 28.5039 126.41C28.5039 180.929 72.7701 225.126 127.375 225.126Z" fill="url(#paint3_linear_0_1)"/>
<path d="M127.375 223.274C180.956 223.274 224.391 179.906 224.391 126.41C224.391 72.9134 180.956 29.5459 127.375 29.5459C73.7949 29.5459 30.3594 72.9134 30.3594 126.41C30.3594 179.906 73.7949 223.274 127.375 223.274Z" fill="url(#paint4_radial_0_1)"/>
<path style="mix-blend-mode:multiply" d="M127.375 223.274C180.956 223.274 224.391 179.906 224.391 126.41C224.391 72.9134 180.956 29.5459 127.375 29.5459C73.7949 29.5459 30.3594 72.9134 30.3594 126.41C30.3594 179.906 73.7949 223.274 127.375 223.274Z" fill="url(#paint5_radial_0_1)"/>
<path style="mix-blend-mode:screen" d="M127.377 117.1C161.696 117.1 189.517 98.8396 189.517 76.3138C189.517 53.7881 161.696 35.5273 127.377 35.5273C93.0576 35.5273 65.2363 53.7881 65.2363 76.3138C65.2363 98.8396 93.0576 117.1 127.377 117.1Z" fill="url(#paint6_linear_0_1)"/>
<path style="mix-blend-mode:screen" d="M56.2725 107.147C61.8564 107.147 66.3829 102.627 66.3829 97.0523C66.3829 91.4773 61.8564 86.9578 56.2725 86.9578C50.6887 86.9578 46.1621 91.4773 46.1621 97.0523C46.1621 102.627 50.6887 107.147 56.2725 107.147Z" fill="url(#paint7_linear_0_1)"/>
<path style="mix-blend-mode:screen" d="M62.8291 62.5142C61.2568 64.0841 59.763 65.654 58.3164 67.3967C75.605 52.4823 97.9066 44.6536 120.739 45.484C143.572 46.3144 165.244 55.7422 181.4 71.8729C197.556 88.0036 206.999 109.642 207.831 132.439C208.662 155.236 200.822 177.503 185.884 194.764C187.598 193.398 189.17 191.828 190.742 190.258C207.195 173.218 216.292 150.411 216.077 126.742C215.861 103.074 206.35 80.436 189.589 63.6973C172.828 46.9585 150.156 37.4566 126.451 37.2354C102.746 37.0142 79.9005 46.0913 62.8291 62.5142Z" fill="url(#paint8_linear_0_1)"/>
<path style="mix-blend-mode:color-dodge" d="M222.363 90.1791C229.005 79.0416 212.571 57.0425 185.657 41.0428C158.743 25.0432 131.541 21.1017 124.899 32.2392C118.257 43.3767 134.691 65.3758 161.605 81.3755C188.519 97.3751 215.721 101.317 222.363 90.1791Z" fill="url(#paint9_radial_0_1)"/>
<defs>
<linearGradient id="paint0_linear_0_1" x1="213.888" y1="40.0329" x2="38.9682" y2="215.243" gradientUnits="userSpaceOnUse">
<stop stop-color="#E3E3E3"/>
<stop offset="0.02" stop-color="#D5D5D5"/>
<stop offset="0.05" stop-color="#CACACA"/>
<stop offset="0.08" stop-color="#C7C7C7"/>
<stop offset="0.22" stop-color="#8E8E8E"/>
<stop offset="0.28" stop-color="#ACACAC"/>
<stop offset="0.35" stop-color="#CDCDCD"/>
<stop offset="0.39" stop-color="#D9D9D9"/>
<stop offset="0.44" stop-color="#E0E0E0"/>
<stop offset="0.52" stop-color="#F3F3F3"/>
<stop offset="0.56" stop-color="white"/>
<stop offset="0.64" stop-color="#E5E5E5"/>
<stop offset="0.75" stop-color="#BFBFBF"/>
<stop offset="0.78" stop-color="#A8A8A8"/>
<stop offset="0.81" stop-color="#959595"/>
<stop offset="0.84" stop-color="#8E8E8E"/>
<stop offset="0.92" stop-color="#8E8E8E"/>
<stop offset="0.95" stop-color="#B6B6B6"/>
<stop offset="0.98" stop-color="#D7D7D7"/>
<stop offset="1" stop-color="#E3E3E3"/>
</linearGradient>
<linearGradient id="paint1_linear_0_1" x1="127.377" y1="245.378" x2="127.377" y2="12.6064" gradientUnits="userSpaceOnUse">
<stop stop-color="#E3E3E3"/>
<stop offset="0.02" stop-color="#D5D5D5"/>
<stop offset="0.05" stop-color="#CACACA"/>
<stop offset="0.08" stop-color="#C7C7C7"/>
<stop offset="0.22" stop-color="#8E8E8E"/>
<stop offset="0.28" stop-color="#ACACAC"/>
<stop offset="0.35" stop-color="#CDCDCD"/>
<stop offset="0.39" stop-color="#D9D9D9"/>
<stop offset="0.44" stop-color="#E0E0E0"/>
<stop offset="0.52" stop-color="#F3F3F3"/>
<stop offset="0.56" stop-color="white"/>
<stop offset="0.64" stop-color="#E5E5E5"/>
<stop offset="0.75" stop-color="#BFBFBF"/>
<stop offset="0.78" stop-color="#A8A8A8"/>
<stop offset="0.81" stop-color="#959595"/>
<stop offset="0.84" stop-color="#8E8E8E"/>
<stop offset="0.92" stop-color="#8E8E8E"/>
<stop offset="0.95" stop-color="#B6B6B6"/>
<stop offset="0.98" stop-color="#D7D7D7"/>
<stop offset="1" stop-color="#E3E3E3"/>
</linearGradient>
<linearGradient id="paint2_linear_0_1" x1="127.376" y1="248.549" x2="127.376" y2="4.28579" gradientUnits="userSpaceOnUse">
<stop stop-color="#C6C6C6"/>
<stop offset="0.01" stop-color="#BABABA"/>
<stop offset="0.03" stop-color="#999999"/>
<stop offset="0.05" stop-color="#646464"/>
<stop offset="0.08" stop-color="#181818"/>
<stop offset="0.16" stop-color="#181818"/>
<stop offset="0.18" stop-color="#1F1F1F"/>
<stop offset="0.2" stop-color="#323232"/>
<stop offset="0.23" stop-color="#525252"/>
<stop offset="0.25" stop-color="#7C7C7C"/>
<stop offset="0.31" stop-color="#A3A3A3"/>
<stop offset="0.4" stop-color="#E5E5E5"/>
<stop offset="0.44" stop-color="white"/>
<stop offset="0.47" stop-color="#EAEAEA"/>
<stop offset="0.53" stop-color="#CBCBCB"/>
<stop offset="0.58" stop-color="#B8B8B8"/>
<stop offset="0.61" stop-color="#B1B1B1"/>
<stop offset="0.63" stop-color="#A5A5A5"/>
<stop offset="0.67" stop-color="#848484"/>
<stop offset="0.73" stop-color="#505050"/>
<stop offset="0.78" stop-color="#181818"/>
<stop offset="0.89" stop-color="#777777"/>
<stop offset="0.92" stop-color="#8D8D8D"/>
<stop offset="0.94" stop-color="#909090"/>
<stop offset="0.96" stop-color="#9B9B9B"/>
<stop offset="0.98" stop-color="#ACACAC"/>
<stop offset="1" stop-color="#C6C6C6"/>
</linearGradient>
<linearGradient id="paint3_linear_0_1" x1="202.001" y1="51.9015" x2="62.3879" y2="191.749" gradientUnits="userSpaceOnUse">
<stop stop-color="#E3E3E3"/>
<stop offset="0.02" stop-color="#D5D5D5"/>
<stop offset="0.05" stop-color="#CACACA"/>
<stop offset="0.08" stop-color="#C7C7C7"/>
<stop offset="0.22" stop-color="#8E8E8E"/>
<stop offset="0.28" stop-color="#ACACAC"/>
<stop offset="0.35" stop-color="#CDCDCD"/>
<stop offset="0.39" stop-color="#D9D9D9"/>
<stop offset="0.44" stop-color="#E0E0E0"/>
<stop offset="0.52" stop-color="#F3F3F3"/>
<stop offset="0.56" stop-color="white"/>
<stop offset="0.64" stop-color="#E5E5E5"/>
<stop offset="0.75" stop-color="#BFBFBF"/>
<stop offset="0.78" stop-color="#A8A8A8"/>
<stop offset="0.81" stop-color="#959595"/>
<stop offset="0.84" stop-color="#8E8E8E"/>
<stop offset="0.92" stop-color="#8E8E8E"/>
<stop offset="0.95" stop-color="#B6B6B6"/>
<stop offset="0.98" stop-color="#D7D7D7"/>
<stop offset="1" stop-color="#E3E3E3"/>
</linearGradient>
<radialGradient id="paint4_radial_0_1" cx="0" cy="0" r="1" gradientUnits="userSpaceOnUse" gradientTransform="translate(127.375 126.41) scale(97.016 96.8639)">
<stop offset="0.41" stop-color="#FFB73B"/>
<stop offset="0.51" stop-color="#FFB339"/>
<stop offset="0.62" stop-color="#FFA532"/>
<stop offset="0.74" stop-color="#FF8F27"/>
<stop offset="0.86" stop-color="#FF7117"/>
<stop offset="0.98" stop-color="#FF4A03"/>
<stop offset="1" stop-color="#FF4300"/>
</radialGradient>
<radialGradient id="paint5_radial_0_1" cx="0" cy="0" r="1" gradientUnits="userSpaceOnUse" gradientTransform="translate(127.375 126.41) scale(97.016 96.8639)">
<stop offset="0.85" stop-color="white"/>
<stop offset="0.87" stop-color="#FEFBFC"/>
<stop offset="0.89" stop-color="#F9EFF2"/>
<stop offset="0.91" stop-color="#F2DAE2"/>
<stop offset="0.93" stop-color="#E7BDCB"/>
<stop offset="0.95" stop-color="#DA98AD"/>
<stop offset="0.96" stop-color="#CA6B89"/>
<stop offset="0.98" stop-color="#B7365F"/>
<stop offset="1" stop-color="#A30033"/>
</radialGradient>
<linearGradient id="paint6_linear_0_1" x1="127.377" y1="180.305" x2="127.377" y2="40.4726" gradientUnits="userSpaceOnUse">
<stop/>
<stop offset="0.14" stop-color="#040301"/>
<stop offset="0.27" stop-color="#0F0B06"/>
<stop offset="0.39" stop-color="#22190E"/>
<stop offset="0.51" stop-color="#3D2C18"/>
<stop offset="0.63" stop-color="#5F4626"/>
<stop offset="0.75" stop-color="#8A6437"/>
<stop offset="0.87" stop-color="#BC894B"/>
<stop offset="0.98" stop-color="#F4B262"/>
<stop offset="1" stop-color="#FFBA66"/>
</linearGradient>
<linearGradient id="paint7_linear_0_1" x1="35.1397" y1="83.7394" x2="64.3913" y2="102.227" gradientUnits="userSpaceOnUse">
<stop/>
<stop offset="0.14" stop-color="#040301"/>
<stop offset="0.27" stop-color="#0F0B06"/>
<stop offset="0.39" stop-color="#22190E"/>
<stop offset="0.51" stop-color="#3D2C18"/>
<stop offset="0.63" stop-color="#5F4626"/>
<stop offset="0.75" stop-color="#8A6437"/>
<stop offset="0.87" stop-color="#BC894B"/>
<stop offset="0.98" stop-color="#F4B262"/>
<stop offset="1" stop-color="#FFBA66"/>
</linearGradient>
<linearGradient id="paint8_linear_0_1" x1="122.103" y1="131.105" x2="190.663" y2="62.4374" gradientUnits="userSpaceOnUse">
<stop/>
<stop offset="0.14" stop-color="#040301"/>
<stop offset="0.27" stop-color="#0F0B06"/>
<stop offset="0.39" stop-color="#22190E"/>
<stop offset="0.51" stop-color="#3D2C18"/>
<stop offset="0.63" stop-color="#5F4626"/>
<stop offset="0.75" stop-color="#8A6437"/>
<stop offset="0.87" stop-color="#BC894B"/>
<stop offset="0.98" stop-color="#F4B262"/>
<stop offset="1" stop-color="#FFBA66"/>
</linearGradient>
<radialGradient id="paint9_radial_0_1" cx="0" cy="0" r="1" gradientUnits="userSpaceOnUse" gradientTransform="translate(175.96 59.7002) rotate(30.7305) scale(56.8952 23.573)">
<stop stop-color="#4F4F4F"/>
<stop offset="0.12" stop-color="#3D3D3D"/>
<stop offset="0.33" stop-color="#222222"/>
<stop offset="0.54" stop-color="#0F0F0F"/>
<stop offset="0.76" stop-color="#040404"/>
<stop offset="1"/>
</radialGradient>
</defs>
</svg>