<svg width="96" height="63" viewBox="0 0 96 63" fill="none" xmlns="http://www.w3.org/2000/svg">
<g clip-path="url(#clip0_2_1399)">
<path d="M76.1887 17.9975V7.48912C76.213 7.38992 76.2256 7.28812 76.2262 7.18589C76.2497 3.35155 59.2628 0.135611 38.285 0.00354057C17.3072 -0.12853 0.282271 2.87286 0.258829 6.7091C0.258536 6.83741 0.27654 6.96509 0.312278 7.08815H0.296337V19.9324C0.296337 22.6357 8.2879 24.9863 20.0701 26.1993V36.6409C8.13787 37.7376 0.0159639 39.9875 2.29275e-05 42.6351C-0.000734467 42.7643 0.0172771 42.8928 0.0534726 43.0166H0.0375311V55.8627C0.0375311 59.8043 17.0268 62.9997 37.9835 62.9997C58.9402 62.9997 75.9299 59.8052 75.9299 55.8627V43.4185C75.9425 43.3665 75.9519 43.3138 75.9581 43.2607C87.8669 42.0568 95.962 39.6914 95.962 36.9704V24.5262C95.9862 24.427 95.999 24.3252 96 24.223C96.016 21.5902 88.0056 19.2486 76.1887 17.9975Z" fill="#FFEB68"/>
<path d="M37.9409 49.8197C37.5896 49.8177 37.2394 49.8147 36.8902 49.8106L36.5906 51.8164C36.588 51.8317 36.5802 51.8456 36.5686 51.8556C36.5569 51.8656 36.5421 51.8711 36.5269 51.8711C36.5116 51.8711 36.4968 51.8656 36.4852 51.8556C36.4735 51.8456 36.4657 51.8317 36.4631 51.8164L36.163 49.8011C16.6996 49.515 1.07706 46.5742 0.0540267 43.0168H0.0380859V55.863C0.0380859 59.8046 17.0274 63 37.9841 63C58.9407 63 75.9305 59.8055 75.9305 55.863V43.4188C75.0373 47.1077 58.3622 49.9484 37.9409 49.8197Z" fill="#F59D0F"/>
<path d="M72.6458 48.2153C72.6458 48.1114 72.6053 48.0119 72.5331 47.9385C72.4609 47.865 72.363 47.8238 72.2609 47.8238C72.1588 47.8238 72.0609 47.865 71.9887 47.9385C71.9165 48.0119 71.876 48.1114 71.876 48.2153V55.9168C71.876 56.0206 71.9165 56.1202 71.9887 56.1936C72.0609 56.267 72.1588 56.3083 72.2609 56.3083C72.363 56.3083 72.4609 56.267 72.5331 56.1936C72.6053 56.1202 72.6458 56.0206 72.6458 55.9168V48.2153Z" fill="#DB2707"/>
<path d="M67.1077 49.9603C67.1077 49.8565 67.0672 49.7569 66.995 49.6835C66.9228 49.6101 66.8249 49.5689 66.7228 49.5689C66.6207 49.5689 66.5228 49.6101 66.4506 49.6835C66.3784 49.7569 66.3379 49.8565 66.3379 49.9603V57.6624C66.3379 57.7662 66.3784 57.8657 66.4506 57.9391C66.5228 58.0126 66.6207 58.0538 66.7228 58.0538C66.8249 58.0538 66.9228 58.0126 66.995 57.9391C67.0672 57.8657 67.1077 57.7662 67.1077 57.6624V49.9603Z" fill="#DB2707"/>
<path d="M60.8372 51.2891C60.8372 51.1853 60.7967 51.0857 60.7245 51.0123C60.6523 50.9389 60.5544 50.8977 60.4523 50.8977C60.3502 50.8977 60.2523 50.9389 60.1801 51.0123C60.1079 51.0857 60.0674 51.1853 60.0674 51.2891V58.9912C60.0674 59.095 60.1079 59.1945 60.1801 59.268C60.2523 59.3414 60.3502 59.3826 60.4523 59.3826C60.5544 59.3826 60.6523 59.3414 60.7245 59.268C60.7967 59.1945 60.8372 59.095 60.8372 58.9912V51.2891Z" fill="#DB2707"/>
<path d="M54.5697 52.0119C54.5697 51.9081 54.5291 51.8085 54.4569 51.7351C54.3847 51.6617 54.2868 51.6205 54.1847 51.6205C54.0826 51.6205 53.9847 51.6617 53.9125 51.7351C53.8404 51.8085 53.7998 51.9081 53.7998 52.0119V59.7135C53.7998 59.8173 53.8404 59.9169 53.9125 59.9903C53.9847 60.0637 54.0826 60.1049 54.1847 60.1049C54.2868 60.1049 54.3847 60.0637 54.4569 59.9903C54.5291 59.9169 54.5697 59.8173 54.5697 59.7135V52.0119Z" fill="#DB2707"/>
<path d="M48.3021 52.5025C48.3021 52.3987 48.2615 52.2992 48.1893 52.2258C48.1172 52.1523 48.0192 52.1111 47.9172 52.1111C47.8151 52.1111 47.7172 52.1523 47.645 52.2258C47.5728 52.2992 47.5322 52.3987 47.5322 52.5025V60.2051C47.5322 60.3089 47.5728 60.4084 47.645 60.4819C47.7172 60.5553 47.8151 60.5965 47.9172 60.5965C48.0192 60.5965 48.1172 60.5553 48.1893 60.4819C48.2615 60.4084 48.3021 60.3089 48.3021 60.2051V52.5025Z" fill="#DB2707"/>
<path d="M42.0345 52.7672C42.0345 52.6633 41.9939 52.5638 41.9218 52.4904C41.8496 52.417 41.7517 52.3757 41.6496 52.3757C41.5475 52.3757 41.4496 52.417 41.3774 52.4904C41.3052 52.5638 41.2646 52.6633 41.2646 52.7672V60.4692C41.2646 60.573 41.3052 60.6726 41.3774 60.746C41.4496 60.8194 41.5475 60.8606 41.6496 60.8606C41.7517 60.8606 41.8496 60.8194 41.9218 60.746C41.9939 60.6726 42.0345 60.573 42.0345 60.4692V52.7672Z" fill="#DB2707"/>
<path d="M4.09114 48.2153C4.09114 48.1114 4.05059 48.0119 3.9784 47.9385C3.90621 47.865 3.8083 47.8238 3.70622 47.8238C3.60413 47.8238 3.50622 47.865 3.43403 47.9385C3.36184 48.0119 3.32129 48.1114 3.32129 48.2153V55.9168C3.32129 56.0206 3.36184 56.1202 3.43403 56.1936C3.50622 56.267 3.60413 56.3083 3.70622 56.3083C3.8083 56.3083 3.90621 56.267 3.9784 56.1936C4.05059 56.1202 4.09114 56.0206 4.09114 55.9168V48.2153Z" fill="#DB2707"/>
<path d="M9.63118 49.9603C9.63118 49.8565 9.59063 49.7569 9.51844 49.6835C9.44625 49.6101 9.34834 49.5689 9.24625 49.5689C9.14417 49.5689 9.04626 49.6101 8.97407 49.6835C8.90188 49.7569 8.86133 49.8565 8.86133 49.9603V57.6624C8.86133 57.7662 8.90188 57.8657 8.97407 57.9391C9.04626 58.0126 9.14417 58.0538 9.24625 58.0538C9.34834 58.0538 9.44625 58.0126 9.51844 57.9391C9.59063 57.8657 9.63118 57.7662 9.63118 57.6624V49.9603Z" fill="#DB2707"/>
<path d="M15.8997 51.2891C15.8997 51.1853 15.8592 51.0857 15.787 51.0123C15.7148 50.9389 15.6169 50.8977 15.5148 50.8977C15.4127 50.8977 15.3148 50.9389 15.2426 51.0123C15.1704 51.0857 15.1299 51.1853 15.1299 51.2891V58.9912C15.1299 59.095 15.1704 59.1945 15.2426 59.268C15.3148 59.3414 15.4127 59.3826 15.5148 59.3826C15.6169 59.3826 15.7148 59.3414 15.787 59.268C15.8592 59.1945 15.8997 59.095 15.8997 58.9912V51.2891Z" fill="#DB2707"/>
<path d="M21.3975 59.7135C21.3975 59.8173 21.438 59.9169 21.5102 59.9903C21.5824 60.0637 21.6803 60.1049 21.7824 60.1049C21.8845 60.1049 21.9824 60.0637 22.0546 59.9903C22.1268 59.9169 22.1673 59.8173 22.1673 59.7135V56.6692L21.3975 56.7884V59.7135Z" fill="#DB2707"/>
<path d="M22.1673 52.0119C22.1673 51.9081 22.1268 51.8085 22.0546 51.7351C21.9824 51.6617 21.8845 51.6205 21.7824 51.6205C21.6803 51.6205 21.5824 51.6617 21.5102 51.7351C21.438 51.8085 21.3975 51.9081 21.3975 52.0119V56.4494L22.1673 56.5686V52.0119Z" fill="#DB2707"/>
<path d="M28.4349 52.5025C28.4349 52.3987 28.3943 52.2992 28.3221 52.2258C28.25 52.1523 28.1521 52.1111 28.05 52.1111C27.9479 52.1111 27.85 52.1523 27.7778 52.2258C27.7056 52.2992 27.665 52.3987 27.665 52.5025V60.2051C27.665 60.3089 27.7056 60.4084 27.7778 60.4819C27.85 60.5553 27.9479 60.5965 28.05 60.5965C28.1521 60.5965 28.25 60.5553 28.3221 60.4819C28.3943 60.4084 28.4349 60.3089 28.4349 60.2051V52.5025Z" fill="#DB2707"/>
<path d="M34.7032 52.7672C34.6997 52.6658 34.6577 52.5697 34.5859 52.4992C34.5141 52.4288 34.4183 52.3894 34.3185 52.3894C34.2188 52.3894 34.1229 52.4288 34.0511 52.4992C33.9794 52.5697 33.9373 52.6658 33.9338 52.7672V60.4692C33.932 60.5217 33.9406 60.5741 33.9592 60.6231C33.9777 60.6722 34.0057 60.717 34.0416 60.7548C34.0775 60.7926 34.1205 60.8226 34.1681 60.8432C34.2157 60.8637 34.2668 60.8743 34.3185 60.8743C34.3702 60.8743 34.4214 60.8637 34.4689 60.8432C34.5165 60.8226 34.5595 60.7926 34.5954 60.7548C34.6313 60.717 34.6594 60.6722 34.6779 60.6231C34.6964 60.5741 34.705 60.5217 34.7032 60.4692V52.7672Z" fill="#DB2707"/>
<path d="M81.6818 29.5609L81.424 31.2859C81.4214 31.3012 81.4135 31.3151 81.4019 31.3251C81.3902 31.3351 81.3754 31.3406 81.3602 31.3406C81.3449 31.3406 81.3302 31.3351 81.3185 31.3251C81.3068 31.3151 81.299 31.3012 81.2964 31.2859L81.0512 29.6467C74.6505 30.5016 66.65 30.9817 57.9734 30.9283C42.2482 30.8292 28.764 28.9978 23.0098 26.4713C25.0606 26.6391 27.2079 26.7769 29.4284 26.8775C30.7806 27.2199 32.3903 27.5395 34.2576 27.8364C36.4185 28.1801 38.8223 28.4748 41.4071 28.716L41.3424 28.2836C41.3319 28.2115 41.2989 28.1448 41.2482 28.0933C41.1975 28.0418 41.1319 28.0082 41.0611 27.9975L39.3155 27.7277L39.2902 27.7138C37.5447 27.5231 35.899 27.3043 34.3752 27.0621L34.1755 27.0296C35.5114 27.057 36.867 27.0705 38.2423 27.0702C39.2879 27.0702 40.3229 27.0624 41.3475 27.0468L41.6068 25.3122C41.6079 25.3017 41.6128 25.2919 41.6205 25.2849C41.6283 25.2778 41.6383 25.2738 41.6488 25.2738C41.6592 25.2738 41.6692 25.2778 41.677 25.2849C41.6847 25.2919 41.6896 25.3017 41.6907 25.3122L41.9486 27.0368C43.5077 27.0082 45.0372 26.9624 46.5372 26.8995C47.5729 27.4626 50.3621 27.7772 52.6445 27.3391C53.6863 27.1388 54.9245 26.8461 56.0933 26.2329C57.0557 26.1376 57.9934 26.0335 58.9065 25.9206C59.9051 26.7684 61.2212 27.1555 62.3248 27.4149C65.9139 28.2583 71.7787 26.9667 67.8924 25.7299C73.3203 26.1705 76.1756 24.3434 71.5429 23.715C71.2963 23.6811 71.0366 23.6478 70.7552 23.6158C73.9824 22.6103 75.9276 21.4426 76.1653 20.193C78.1261 20.3994 79.9672 20.6383 81.6579 20.9081C88.6485 22.02 91.1231 23.3731 91.1179 24.1942C91.1132 24.9771 88.8473 26.2153 82.5623 27.2165C82.6674 27.2619 82.7777 27.294 82.8905 27.3119L84.8391 27.6127C89.5121 26.6997 91.8803 25.5554 91.8887 24.2008C91.8985 22.5726 88.4966 21.2052 81.7775 20.1367C80.0587 19.8635 78.1861 19.6208 76.1911 19.412V7.49226C75.3003 11.1807 58.6237 14.0214 38.2025 13.8927C32.5509 13.8569 27.1887 13.5975 22.3708 13.1627C22.4192 13.2207 22.4867 13.259 22.5607 13.2705L24.182 13.5208C24.1911 13.5225 24.1993 13.5275 24.2052 13.5348C24.2111 13.542 24.2144 13.5512 24.2144 13.5606C24.2144 13.57 24.2111 13.5792 24.2052 13.5864C24.1993 13.5937 24.1911 13.5986 24.182 13.6004L22.5607 13.8507C22.4952 13.8609 22.4345 13.8921 22.3877 13.9398C22.3409 13.9875 22.3103 14.0492 22.3005 14.1158L22.066 15.694C22.1643 15.6994 22.2568 15.7428 22.3245 15.8155C22.3922 15.8881 22.4299 15.9844 22.4299 16.0845V23.7837C22.4317 23.8362 22.4231 23.8885 22.4045 23.9376C22.386 23.9867 22.358 24.0314 22.3221 24.0692C22.2862 24.107 22.2432 24.1371 22.1956 24.1576C22.148 24.1782 22.0969 24.1888 22.0452 24.1888C21.9935 24.1888 21.9423 24.1782 21.8948 24.1576C21.8472 24.1371 21.8042 24.107 21.7683 24.0692C21.7324 24.0314 21.7043 23.9867 21.6858 23.9376C21.6673 23.8885 21.6587 23.8362 21.6605 23.7837V16.0816C21.6609 15.9918 21.6916 15.9048 21.7477 15.8353C21.8037 15.7659 21.8815 15.7181 21.9681 15.7002L21.7336 14.1149C21.7236 14.0482 21.6929 13.9865 21.646 13.9389C21.5991 13.8912 21.5385 13.86 21.4729 13.8498L19.847 13.5975C19.8379 13.5958 19.8296 13.5908 19.8237 13.5836C19.8178 13.5763 19.8146 13.5672 19.8146 13.5577C19.8146 13.5483 19.8178 13.5392 19.8237 13.5319C19.8296 13.5246 19.8379 13.5197 19.847 13.5179L21.4683 13.2676C21.5172 13.26 21.5636 13.2406 21.6038 13.2111C21.6439 13.1816 21.6765 13.1428 21.6989 13.0979C9.57914 11.9507 1.05872 9.68311 0.311839 7.08699H0.295898V19.9326C0.295898 22.636 8.28746 24.9866 20.0697 26.1995V36.9712C20.0697 37.3264 20.2075 37.6758 20.4738 38.0168C18.2487 38.2118 16.1679 38.4487 14.2728 38.7257C7.54105 39.7098 4.12313 41.0339 4.11328 42.6621C4.10343 44.2903 7.50495 45.6578 14.224 46.7263C19.3945 47.5487 25.9561 48.0899 33.0653 48.2925L32.9851 48.2801C32.9701 48.2775 32.9564 48.2695 32.9466 48.2577C32.9368 48.2458 32.9314 48.2308 32.9314 48.2153C32.9314 48.1997 32.9368 48.1847 32.9466 48.1729C32.9564 48.161 32.9701 48.1531 32.9851 48.1504L35.0012 47.8391C35.2303 47.8038 35.4471 47.7103 35.6313 47.5673C27.5816 47.4324 20.095 46.8674 14.3455 45.9529C7.35491 44.841 4.88032 43.4879 4.88501 42.6669C4.8897 41.8458 7.38117 40.5242 14.3849 39.5005C16.4637 39.1968 18.7681 38.9412 21.2423 38.7377C23.1594 40.1537 27.328 41.401 32.9898 42.3365C28.5259 41.9832 26.4259 42.1429 24.8243 42.3102C19.9787 42.8161 22.1373 44.7085 27.7035 44.4081C23.3737 45.5386 28.7279 46.9756 32.6147 46.229C33.7625 46.0082 35.1493 45.6759 36.4185 44.9249L36.4654 44.6126C36.468 44.5974 36.4758 44.5835 36.4875 44.5735C36.4991 44.5635 36.5139 44.558 36.5291 44.558C36.5444 44.558 36.5592 44.5635 36.5708 44.5735C36.5825 44.5835 36.5903 44.5974 36.5929 44.6126L36.621 44.8034C37.1067 44.4974 37.5534 44.1318 37.9512 43.7149C38.9081 45.3688 40.7957 45.9558 42.2927 46.3076C45.8818 47.1506 51.7471 45.859 47.8608 44.6222C50.4962 44.8363 52.5249 44.5154 53.3848 44.0572C54.9036 44.0922 56.448 44.1096 58.018 44.1096C62.4608 44.1096 66.725 43.9666 70.6868 43.7025C69.7416 44.4825 67.0241 45.457 61.5864 46.2518C55.2743 47.1744 46.8842 47.6522 37.9563 47.5954L37.4565 47.5916C37.6342 47.7218 37.8397 47.8071 38.0562 47.8405L40.0723 48.1518C40.0873 48.1545 40.1009 48.1624 40.1108 48.1743C40.1206 48.1862 40.126 48.2012 40.126 48.2167C40.126 48.2322 40.1206 48.2472 40.1108 48.2591C40.1009 48.271 40.0873 48.2789 40.0723 48.2815L39.4159 48.3826C47.8299 48.3826 55.6948 47.9058 61.6971 47.0266C67.6683 46.1536 71.0323 45.0131 71.723 43.63C73.1814 43.5235 74.594 43.4011 75.9609 43.2629C87.8697 42.059 95.9649 39.6936 95.9649 36.9726V24.5284C95.4613 26.5972 89.9927 28.3994 81.6818 29.5609Z" fill="#F59D0F"/>
<path d="M57.987 28.7027C52.3884 28.6674 47.0032 28.4247 42.2111 28.0018C42.1458 28.0171 42.0866 28.052 42.0411 28.102C41.9956 28.152 41.966 28.2148 41.956 28.2821L41.8848 28.7589C46.7608 29.1981 52.2632 29.4498 57.9823 29.4856C58.4558 29.4887 58.9278 29.4903 59.3982 29.4903C67.2397 29.4903 74.6063 29.0779 80.4365 28.3131C80.2579 28.1809 80.0506 28.0944 79.8321 28.0609L78.1443 27.8001C72.3694 28.4314 65.3611 28.7494 57.987 28.7027Z" fill="#F59D0F"/>
<path d="M92.6781 29.3235C92.6781 29.2196 92.6375 29.1201 92.5653 29.0467C92.4931 28.9733 92.3952 28.932 92.2931 28.932C92.191 28.932 92.0931 28.9733 92.021 29.0467C91.9488 29.1201 91.9082 29.2196 91.9082 29.3235V37.0255C91.9082 37.1293 91.9488 37.2289 92.021 37.3023C92.0931 37.3757 92.191 37.417 92.2931 37.417C92.3952 37.417 92.4931 37.3757 92.5653 37.3023C92.6375 37.2289 92.6781 37.1293 92.6781 37.0255V29.3235Z" fill="#DB2707"/>
<path d="M86.3682 37.1285V38.7715C86.3682 38.8753 86.4087 38.9749 86.4809 39.0483C86.5531 39.1217 86.651 39.163 86.7531 39.163C86.8552 39.163 86.9531 39.1217 87.0253 39.0483C87.0975 38.9749 87.138 38.8753 87.138 38.7715V37.0074L87.124 37.0122L86.3682 37.1285Z" fill="#DB2707"/>
<path d="M87.138 36.9378V31.069C87.138 30.9652 87.0975 30.8656 87.0253 30.7922C86.9531 30.7188 86.8552 30.6775 86.7531 30.6775C86.651 30.6775 86.5531 30.7188 86.4809 30.7922C86.4087 30.8656 86.3682 30.9652 86.3682 31.069V36.8148L87.124 36.9316L87.138 36.9378Z" fill="#DB2707"/>
<path d="M80.8704 32.3968C80.8704 32.293 80.8299 32.1935 80.7577 32.1201C80.6855 32.0466 80.5876 32.0054 80.4855 32.0054C80.3834 32.0054 80.2855 32.0466 80.2133 32.1201C80.1411 32.1935 80.1006 32.293 80.1006 32.3968V40.0989C80.1006 40.2027 80.1411 40.3023 80.2133 40.3757C80.2855 40.4491 80.3834 40.4903 80.4855 40.4903C80.5876 40.4903 80.6855 40.4491 80.7577 40.3757C80.8299 40.3023 80.8704 40.2027 80.8704 40.0989V32.3968Z" fill="#DB2707"/>
<path d="M73.832 40.8222C73.832 40.926 73.8726 41.0255 73.9448 41.099C74.017 41.1724 74.1149 41.2136 74.217 41.2136C74.319 41.2136 74.4169 41.1724 74.4891 41.099C74.5613 41.0255 74.6019 40.926 74.6019 40.8222V34.0356L73.832 34.1543V40.8222Z" fill="#DB2707"/>
<path d="M74.6019 33.1201C74.6019 33.0163 74.5613 32.9167 74.4891 32.8433C74.4169 32.7699 74.319 32.7287 74.217 32.7287C74.1149 32.7287 74.017 32.7699 73.9448 32.8433C73.8726 32.9167 73.832 33.0163 73.832 33.1201V33.5969L74.6019 33.7161V33.1201Z" fill="#DB2707"/>
<path d="M67.5645 41.3128C67.5645 41.4166 67.605 41.5162 67.6772 41.5896C67.7494 41.663 67.8473 41.7042 67.9494 41.7042C68.0515 41.7042 68.1494 41.663 68.2216 41.5896C68.2938 41.5162 68.3343 41.4166 68.3343 41.3128V33.6107C68.3343 33.5069 68.2938 33.4074 68.2216 33.334C68.1494 33.2605 68.0515 33.2193 67.9494 33.2193C67.8473 33.2193 67.7494 33.2605 67.6772 33.334C67.605 33.4074 67.5645 33.5069 67.5645 33.6107V41.3128Z" fill="#DB2707"/>
<path d="M61.2969 41.5783C61.2969 41.6822 61.3374 41.7817 61.4096 41.8551C61.4818 41.9286 61.5797 41.9698 61.6818 41.9698C61.7839 41.9698 61.8818 41.9286 61.954 41.8551C62.0262 41.7817 62.0667 41.6822 62.0667 41.5783V33.8763C62.0667 33.7725 62.0262 33.6729 61.954 33.5995C61.8818 33.5261 61.7839 33.4849 61.6818 33.4849C61.5797 33.4849 61.4818 33.5261 61.4096 33.5995C61.3374 33.6729 61.2969 33.7725 61.2969 33.8763V41.5783Z" fill="#DB2707"/>
<path d="M23.7384 37.417C23.8405 37.4168 23.9383 37.3755 24.0105 37.3022C24.0827 37.2288 24.1232 37.1293 24.1234 37.0255V29.3235C24.1234 29.2196 24.0828 29.1201 24.0106 29.0467C23.9384 28.9733 23.8405 28.932 23.7384 28.932C23.6364 28.932 23.5384 28.9733 23.4663 29.0467C23.3941 29.1201 23.3535 29.2196 23.3535 29.3235V37.0255C23.3535 37.1293 23.3941 37.2289 23.4663 37.3023C23.5384 37.3757 23.6364 37.417 23.7384 37.417Z" fill="#DB2707"/>
<path d="M29.6644 38.7705V31.069C29.6644 30.9652 29.6238 30.8656 29.5516 30.7922C29.4795 30.7188 29.3815 30.6775 29.2795 30.6775C29.1774 30.6775 29.0795 30.7188 29.0073 30.7922C28.9351 30.8656 28.8945 30.9652 28.8945 31.069V38.7705C28.8945 38.8744 28.9351 38.9739 29.0073 39.0473C29.0795 39.1208 29.1774 39.162 29.2795 39.162C29.3815 39.162 29.4795 39.1208 29.5516 39.0473C29.6238 38.9739 29.6644 38.8744 29.6644 38.7705Z" fill="#DB2707"/>
<path d="M35.547 40.4899C35.5976 40.4899 35.6476 40.4799 35.6943 40.4602C35.741 40.4406 35.7834 40.4118 35.8192 40.3755C35.8549 40.3392 35.8833 40.2961 35.9027 40.2486C35.922 40.2012 35.932 40.1503 35.932 40.0989V32.3968C35.932 32.3454 35.922 32.2945 35.9027 32.247C35.8833 32.1996 35.855 32.1564 35.8192 32.1201C35.7835 32.0837 35.741 32.0549 35.6943 32.0352C35.6476 32.0155 35.5976 32.0054 35.547 32.0054C35.4965 32.0054 35.4464 32.0155 35.3997 32.0352C35.353 32.0549 35.3106 32.0837 35.2749 32.1201C35.2391 32.1564 35.2108 32.1996 35.1914 32.247C35.1721 32.2945 35.1621 32.3454 35.1621 32.3968V40.0989C35.1622 40.2026 35.2028 40.3021 35.275 40.3754C35.3472 40.4487 35.445 40.4899 35.547 40.4899Z" fill="#DB2707"/>
<path d="M41.8146 32.7287C41.7641 32.7287 41.714 32.7388 41.6673 32.7585C41.6206 32.7782 41.5782 32.807 41.5424 32.8433C41.5067 32.8797 41.4783 32.9228 41.459 32.9703C41.4396 33.0178 41.4297 33.0687 41.4297 33.1201V40.8222C41.4297 40.926 41.4702 41.0256 41.5424 41.099C41.6146 41.1724 41.7125 41.2136 41.8146 41.2136C41.9167 41.2136 42.0146 41.1724 42.0868 41.099C42.159 41.0256 42.1995 40.926 42.1995 40.8222V33.1201C42.1994 33.0163 42.1588 32.9169 42.0867 32.8435C42.0145 32.7701 41.9167 32.7288 41.8146 32.7287Z" fill="#DB2707"/>
<path d="M47.6973 41.3128C47.6973 41.4166 47.7378 41.5162 47.81 41.5896C47.8822 41.663 47.9801 41.7042 48.0822 41.7042C48.1843 41.7042 48.2822 41.663 48.3544 41.5896C48.4266 41.5162 48.4671 41.4166 48.4671 41.3128V33.6107C48.4671 33.5069 48.4266 33.4074 48.3544 33.334C48.2822 33.2605 48.1843 33.2193 48.0822 33.2193C47.9801 33.2193 47.8822 33.2605 47.81 33.334C47.7378 33.4074 47.6973 33.5069 47.6973 33.6107V41.3128Z" fill="#DB2707"/>
<path d="M53.9658 41.5783C53.9658 41.6822 54.0064 41.7817 54.0786 41.8551C54.1508 41.9286 54.2487 41.9698 54.3508 41.9698C54.4528 41.9698 54.5507 41.9286 54.6229 41.8551C54.6951 41.7817 54.7357 41.6822 54.7357 41.5783V33.8763C54.7357 33.7725 54.6951 33.6729 54.6229 33.5995C54.5507 33.5261 54.4528 33.4849 54.3508 33.4849C54.2487 33.4849 54.1508 33.5261 54.0786 33.5995C54.0064 33.6729 53.9658 33.7725 53.9658 33.8763V41.5783Z" fill="#DB2707"/>
<path d="M22.0511 11.3542L22.106 11.7195C26.9858 12.1591 32.4877 12.4108 38.2087 12.447C38.6828 12.4499 39.1548 12.4513 39.6246 12.4513C48.0564 12.4513 55.9406 11.9745 61.9527 11.0953C68.6844 10.1113 72.1028 8.78673 72.1127 7.15898C72.1225 5.53122 68.7205 4.16331 62.0014 3.09483C55.6644 2.0869 47.2387 1.50093 38.2776 1.44419C29.3164 1.38745 20.8832 1.86805 14.5336 2.79588C7.80181 3.77998 4.38389 5.10402 4.37404 6.73225C4.3642 8.36049 7.76571 9.72791 14.4848 10.7964C16.7259 11.153 19.2282 11.4567 21.9231 11.7023L21.9752 11.3538C21.9775 11.3453 21.9825 11.3379 21.9894 11.3326C21.9963 11.3273 22.0047 11.3245 22.0133 11.3246C22.022 11.3246 22.0303 11.3275 22.0372 11.3329C22.044 11.3383 22.0489 11.3458 22.0511 11.3542Z" fill="#F59D0F"/>
<path d="M5.14161 6.73703C5.14677 5.91648 7.63777 4.59434 14.6415 3.57068C15.1019 3.50329 15.5731 3.43845 16.055 3.37615L16.1516 2.72962C16.1542 2.71433 16.162 2.70046 16.1737 2.69046C16.1854 2.68047 16.2001 2.67498 16.2154 2.67498C16.2306 2.67498 16.2454 2.68047 16.2571 2.69046C16.2688 2.70046 16.2766 2.71433 16.2792 2.72962L16.3696 3.33562C22.0943 2.61233 29.249 2.22279 36.8584 2.22279C37.3273 2.22279 37.7989 2.22279 38.2706 2.22708C47.1966 2.28335 55.5815 2.86598 61.8819 3.86819C68.873 4.98006 71.3475 6.33319 71.3424 7.15422C71.3372 7.97525 68.8462 9.29691 61.843 10.3206C55.5304 11.2432 47.1361 11.7185 38.2129 11.6642C29.2898 11.6098 20.902 11.0253 14.6016 10.0231C7.61011 8.91119 5.13692 7.55806 5.14161 6.73703Z" fill="#FFEB68"/>
<path d="M72.1348 19.987C72.1348 20.0908 72.1753 20.1904 72.2475 20.2638C72.3197 20.3372 72.4176 20.3784 72.5197 20.3784C72.6218 20.3784 72.7197 20.3372 72.7919 20.2638C72.8641 20.1904 72.9046 20.0908 72.9046 19.987V12.2849C72.9046 12.1811 72.8641 12.0816 72.7919 12.0081C72.7197 11.9347 72.6218 11.8935 72.5197 11.8935C72.4176 11.8935 72.3197 11.9347 72.2475 12.0081C72.1753 12.0816 72.1348 12.1811 72.1348 12.2849V19.987Z" fill="#DB2707"/>
<path d="M66.5947 21.732C66.5947 21.8359 66.6353 21.9354 66.7075 22.0088C66.7797 22.0822 66.8776 22.1235 66.9797 22.1235C67.0817 22.1235 67.1796 22.0822 67.2518 22.0088C67.324 21.9354 67.3646 21.8359 67.3646 21.732V14.0305C67.3646 13.9266 67.324 13.8271 67.2518 13.7537C67.1796 13.6803 67.0817 13.639 66.9797 13.639C66.8776 13.639 66.7797 13.6803 66.7075 13.7537C66.6353 13.8271 66.5947 13.9266 66.5947 14.0305V21.732Z" fill="#DB2707"/>
<path d="M60.7121 14.9669C60.6615 14.9668 60.6114 14.9769 60.5647 14.9965C60.518 15.0162 60.4755 15.045 60.4398 15.0814C60.404 15.1177 60.3756 15.1609 60.3563 15.2084C60.337 15.256 60.3271 15.3069 60.3271 15.3583V23.0604C60.3306 23.1618 60.3727 23.2578 60.4444 23.3283C60.5162 23.3988 60.6121 23.4381 60.7118 23.4381C60.8116 23.4381 60.9075 23.3988 60.9792 23.3283C61.051 23.2578 61.0931 23.1618 61.0965 23.0604V15.3583C61.0966 15.3069 61.0867 15.256 61.0674 15.2086C61.0481 15.1611 61.0198 15.1179 60.9841 15.0816C60.9484 15.0452 60.906 15.0164 60.8593 14.9967C60.8126 14.977 60.7626 14.9669 60.7121 14.9669Z" fill="#DB2707"/>
<path d="M54.8284 23.7837V16.0816C54.8284 15.9778 54.7879 15.8782 54.7157 15.8048C54.6435 15.7314 54.5456 15.6902 54.4435 15.6902C54.3414 15.6902 54.2435 15.7314 54.1713 15.8048C54.0991 15.8782 54.0586 15.9778 54.0586 16.0816V23.7837C54.0586 23.8875 54.0991 23.987 54.1713 24.0605C54.2435 24.1339 54.3414 24.1751 54.4435 24.1751C54.5456 24.1751 54.6435 24.1339 54.7157 24.0605C54.7879 23.987 54.8284 23.8875 54.8284 23.7837Z" fill="#DB2707"/>
<path d="M47.791 24.2743C47.791 24.3781 47.8316 24.4777 47.9038 24.5511C47.9759 24.6245 48.0739 24.6657 48.1759 24.6657C48.278 24.6657 48.3759 24.6245 48.4481 24.5511C48.5203 24.4777 48.5609 24.3781 48.5609 24.2743V16.5722C48.5609 16.4684 48.5203 16.3688 48.4481 16.2954C48.3759 16.222 48.278 16.1808 48.1759 16.1808C48.0739 16.1808 47.9759 16.222 47.9038 16.2954C47.8316 16.3688 47.791 16.4684 47.791 16.5722V24.2743Z" fill="#DB2707"/>
<path d="M41.5234 24.5413C41.5234 24.6451 41.564 24.7447 41.6362 24.8181C41.7084 24.8915 41.8063 24.9327 41.9084 24.9327C42.0105 24.9327 42.1084 24.8915 42.1805 24.8181C42.2527 24.7447 42.2933 24.6451 42.2933 24.5413V16.8378C42.2933 16.734 42.2527 16.6344 42.1805 16.561C42.1084 16.4876 42.0105 16.4464 41.9084 16.4464C41.8063 16.4464 41.7084 16.4876 41.6362 16.561C41.564 16.6344 41.5234 16.734 41.5234 16.8378V24.5413Z" fill="#DB2707"/>
<path d="M4.3497 12.2849C4.34622 12.1835 4.30416 12.0875 4.2324 12.017C4.16063 11.9465 4.06477 11.9072 3.965 11.9072C3.86524 11.9072 3.76937 11.9465 3.69761 12.017C3.62585 12.0875 3.58379 12.1835 3.58031 12.2849V19.987C3.57851 20.0395 3.58712 20.0919 3.60565 20.1409C3.62417 20.19 3.65221 20.2348 3.68811 20.2726C3.72401 20.3104 3.76703 20.3404 3.8146 20.361C3.86217 20.3815 3.91332 20.3921 3.965 20.3921C4.01668 20.3921 4.06783 20.3815 4.11541 20.361C4.16298 20.3404 4.206 20.3104 4.2419 20.2726C4.2778 20.2348 4.30584 20.19 4.32436 20.1409C4.34288 20.0919 4.3515 20.0395 4.3497 19.987V12.2849Z" fill="#DB2707"/>
<path d="M9.12012 21.732C9.12012 21.8358 9.16067 21.9354 9.23286 22.0088C9.30505 22.0822 9.40296 22.1235 9.50504 22.1235C9.60713 22.1235 9.70504 22.0822 9.77723 22.0088C9.84942 21.9354 9.88997 21.8358 9.88997 21.732V17.1034L9.12012 16.9842V21.732Z" fill="#DB2707"/>
<path d="M9.88997 14.0305C9.88997 13.9266 9.84942 13.8271 9.77723 13.7537C9.70504 13.6803 9.60713 13.639 9.50504 13.639C9.40296 13.639 9.30505 13.6803 9.23286 13.7537C9.16067 13.8271 9.12012 13.9266 9.12012 14.0305V16.7577L9.88997 16.639V14.0305Z" fill="#DB2707"/>
<path d="M16.1585 15.3583C16.1585 15.2545 16.118 15.1549 16.0458 15.0815C15.9736 15.0081 15.8757 14.9669 15.7736 14.9669C15.6715 14.9669 15.5736 15.0081 15.5014 15.0815C15.4292 15.1549 15.3887 15.2545 15.3887 15.3583V23.0604C15.3887 23.1642 15.4292 23.2637 15.5014 23.3372C15.5736 23.4106 15.6715 23.4518 15.7736 23.4518C15.8757 23.4518 15.9736 23.4106 16.0458 23.3372C16.118 23.2637 16.1585 23.1642 16.1585 23.0604V15.3583Z" fill="#DB2707"/>
<path d="M21.9734 15.7612L21.9641 15.6983C21.8775 15.7162 21.7997 15.764 21.7436 15.8334C21.6876 15.9029 21.6569 15.9899 21.6565 16.0797V23.7837C21.6547 23.8362 21.6633 23.8885 21.6818 23.9376C21.7003 23.9867 21.7284 24.0314 21.7643 24.0692C21.8002 24.107 21.8432 24.1371 21.8908 24.1576C21.9383 24.1782 21.9895 24.1888 22.0412 24.1888C22.0929 24.1888 22.144 24.1782 22.1916 24.1576C22.2391 24.1371 22.2822 24.107 22.3181 24.0692C22.354 24.0314 22.382 23.9867 22.4005 23.9376C22.4191 23.8885 22.4277 23.8362 22.4259 23.7837V16.0816C22.4259 15.9815 22.3882 15.8853 22.3205 15.8126C22.2528 15.74 22.1603 15.6965 22.062 15.6911L22.0513 15.7612C22.0498 15.7706 22.0451 15.7792 22.038 15.7855C22.0308 15.7917 22.0217 15.7951 22.0123 15.7951C22.0029 15.7951 21.9939 15.7917 21.9867 15.7855C21.9796 15.7792 21.9749 15.7706 21.9734 15.7612Z" fill="#DB2707"/>
<path d="M27.9238 24.2743C27.9238 24.3257 27.9338 24.3766 27.9531 24.4241C27.9725 24.4716 28.0008 24.5147 28.0366 24.5511C28.0723 24.5874 28.1147 24.6162 28.1614 24.6359C28.2082 24.6556 28.2582 24.6657 28.3088 24.6657C28.3593 24.6657 28.4094 24.6556 28.4561 24.6359C28.5028 24.6162 28.5452 24.5874 28.5809 24.5511C28.6167 24.5147 28.645 24.4716 28.6644 24.4241C28.6837 24.3766 28.6937 24.3257 28.6937 24.2743V16.5722C28.6937 16.4684 28.6531 16.3688 28.5809 16.2954C28.5087 16.222 28.4108 16.1808 28.3088 16.1808C28.2067 16.1808 28.1088 16.222 28.0366 16.2954C27.9644 16.3688 27.9238 16.4684 27.9238 16.5722V24.2743Z" fill="#DB2707"/>
<path d="M34.1946 24.5413C34.1928 24.5938 34.2014 24.6461 34.2199 24.6952C34.2384 24.7443 34.2665 24.789 34.3024 24.8268C34.3383 24.8647 34.3813 24.8947 34.4289 24.9153C34.4764 24.9358 34.5276 24.9464 34.5793 24.9464C34.6309 24.9464 34.6821 24.9358 34.7297 24.9153C34.7772 24.8947 34.8203 24.8647 34.8562 24.8268C34.8921 24.789 34.9201 24.7443 34.9386 24.6952C34.9571 24.6461 34.9658 24.5938 34.964 24.5413V16.8378C34.9658 16.7853 34.9571 16.7329 34.9386 16.6839C34.9201 16.6348 34.8921 16.59 34.8562 16.5522C34.8203 16.5144 34.7772 16.4843 34.7297 16.4638C34.6821 16.4433 34.6309 16.4327 34.5793 16.4327C34.5276 16.4327 34.4764 16.4433 34.4289 16.4638C34.3813 16.4843 34.3383 16.5144 34.3024 16.5522C34.2665 16.59 34.2384 16.6348 34.2199 16.6839C34.2014 16.7329 34.1928 16.7853 34.1946 16.8378V24.5413Z" fill="#DB2707"/>
<path d="M42.5498 10.3759C46.1384 11.2193 52.0037 9.92769 48.1174 8.6909C53.5453 9.13193 56.4006 7.3044 51.7679 6.67599C50.0402 6.44141 47.6757 6.19921 41.7373 6.60543C45.6287 5.61991 46.3686 4.95145 46.6476 4.46751C47.3677 3.21642 40.0414 2.63473 38.2312 4.16618C36.6629 2.73152 29.2804 3.10485 29.8153 4.46846C30.0005 4.94001 30.4661 5.53504 34.1611 6.48385C29.0619 6.03281 26.7875 6.20254 25.0809 6.38086C20.2353 6.88674 22.3939 8.77911 27.9601 8.47873C23.6307 9.60968 28.9845 11.0481 32.8713 10.3001C34.5085 9.98539 36.632 9.44185 38.2078 7.78358C39.1638 9.43756 41.0523 10.0245 42.5498 10.3759Z" fill="#F59D0F"/>
<path d="M14.6899 5.95508L12.6738 6.26643C12.6588 6.26906 12.6452 6.27701 12.6353 6.28887C12.6255 6.30074 12.6201 6.31576 12.6201 6.33127C12.6201 6.34679 12.6255 6.3618 12.6353 6.37367C12.6452 6.38553 12.6588 6.39348 12.6738 6.39611L14.6899 6.70936C14.9811 6.75423 15.2506 6.8927 15.4589 7.10452C15.6672 7.31634 15.8034 7.59038 15.8475 7.88655L16.1537 9.93675C16.1562 9.95204 16.1641 9.9659 16.1757 9.9759C16.1874 9.9859 16.2022 9.99138 16.2174 9.99138C16.2327 9.99138 16.2474 9.9859 16.2591 9.9759C16.2708 9.9659 16.2786 9.95204 16.2812 9.93675L16.5873 7.88894C16.631 7.59263 16.7667 7.3183 16.9746 7.10606C17.1826 6.89382 17.4518 6.75481 17.7431 6.70936L19.7591 6.39802C19.7742 6.39539 19.7878 6.38744 19.7976 6.37557C19.8074 6.36371 19.8128 6.34869 19.8128 6.33318C19.8128 6.31766 19.8074 6.30265 19.7976 6.29078C19.7878 6.27892 19.7742 6.27097 19.7591 6.26833L17.7431 5.95699C17.4518 5.91205 17.1824 5.77356 16.9741 5.56175C16.7658 5.34995 16.6297 5.07594 16.5855 4.7798L16.3698 3.33751L16.2793 2.73152C16.2767 2.71623 16.2689 2.70236 16.2572 2.69236C16.2456 2.68236 16.2308 2.67688 16.2155 2.67688C16.2003 2.67688 16.1855 2.68236 16.1739 2.69236C16.1622 2.70236 16.1544 2.71623 16.1518 2.73152L16.0552 3.37804L15.8456 4.7798C15.8012 5.07535 15.6652 5.34877 15.4573 5.56018C15.2494 5.77159 14.9805 5.90995 14.6899 5.95508Z" fill="white"/>
<path d="M12.1587 17.6421C12.1725 17.5495 12.2152 17.4638 12.2804 17.3975C12.3456 17.3313 12.43 17.288 12.5211 17.2741L14.7753 16.9255C14.7882 16.9234 14.7999 16.9167 14.8083 16.9066C14.8168 16.8965 14.8214 16.8837 14.8214 16.8704C14.8214 16.8572 14.8168 16.8444 14.8083 16.8343C14.7999 16.8242 14.7882 16.8175 14.7753 16.8154L12.5211 16.4668C12.43 16.4529 12.3456 16.4096 12.2804 16.3434C12.2152 16.2771 12.1725 16.1914 12.1587 16.0988L11.8164 13.8064C11.8147 13.7929 11.8082 13.7806 11.7982 13.7717C11.7882 13.7628 11.7753 13.7579 11.762 13.7579C11.7487 13.7579 11.7359 13.7628 11.7259 13.7717C11.7158 13.7806 11.7094 13.7929 11.7076 13.8064L11.3654 16.0988C11.3515 16.1914 11.3088 16.2771 11.2436 16.3434C11.1784 16.4096 11.0941 16.4529 11.003 16.4668L9.89178 16.639L9.12192 16.7577L8.74825 16.8173C8.73539 16.8194 8.72368 16.8261 8.71523 16.8362C8.70679 16.8463 8.70215 16.8591 8.70215 16.8724C8.70215 16.8856 8.70679 16.8984 8.71523 16.9085C8.72368 16.9186 8.73539 16.9253 8.74825 16.9274L9.12098 16.9851L9.89084 17.1043L11.002 17.276C11.0931 17.2899 11.1775 17.3332 11.2427 17.3995C11.3079 17.4657 11.3506 17.5514 11.3644 17.644L11.7067 19.9364C11.7084 19.9499 11.7149 19.9622 11.7249 19.9711C11.7349 19.98 11.7478 19.9849 11.7611 19.9849C11.7744 19.9849 11.7872 19.98 11.7973 19.9711C11.8073 19.9622 11.8137 19.9499 11.8155 19.9364L12.1587 17.6421Z" fill="white"/>
<path d="M22.1068 11.7195L22.0514 11.3542C22.05 11.3448 22.0453 11.3362 22.0381 11.33C22.031 11.3238 22.0219 11.3204 22.0125 11.3204C22.0031 11.3204 21.994 11.3238 21.9869 11.33C21.9798 11.3362 21.975 11.3448 21.9736 11.3542L21.9216 11.7028L21.7279 13.003C21.7228 13.0362 21.7127 13.0683 21.6979 13.0983C21.6755 13.1432 21.6429 13.182 21.6027 13.2115C21.5626 13.2411 21.5162 13.2604 21.4672 13.2681L19.8478 13.5179C19.8387 13.5197 19.8305 13.5246 19.8246 13.5319C19.8187 13.5392 19.8154 13.5483 19.8154 13.5577C19.8154 13.5672 19.8187 13.5763 19.8246 13.5836C19.8305 13.5908 19.8387 13.5958 19.8478 13.5975L21.4691 13.8479C21.5347 13.858 21.5953 13.8893 21.6422 13.9369C21.6891 13.9846 21.7198 14.0463 21.7298 14.1129L21.9642 15.6983L21.9736 15.7612C21.975 15.7706 21.9798 15.7793 21.9869 15.7855C21.994 15.7917 22.0031 15.7951 22.0125 15.7951C22.0219 15.7951 22.031 15.7917 22.0381 15.7855C22.0453 15.7793 22.05 15.7706 22.0514 15.7612L22.0622 15.6911L22.2966 14.1129C22.3065 14.0463 22.3371 13.9846 22.3839 13.9369C22.4307 13.8892 22.4913 13.858 22.5568 13.8479L24.1781 13.5975C24.1872 13.5958 24.1955 13.5908 24.2014 13.5836C24.2073 13.5763 24.2105 13.5672 24.2105 13.5577C24.2105 13.5483 24.2073 13.5392 24.2014 13.5319C24.1955 13.5246 24.1872 13.5197 24.1781 13.5179L22.5568 13.2676C22.4913 13.2575 22.4307 13.2262 22.3839 13.1785C22.3371 13.1308 22.3065 13.0692 22.2966 13.0025L22.1068 11.7195Z" fill="white"/>
<path d="M82.8885 28.0605L84.9045 27.7491C84.9196 27.7465 84.9332 27.7385 84.9431 27.7267C84.9529 27.7148 84.9583 27.6998 84.9583 27.6843C84.9583 27.6688 84.9529 27.6537 84.9431 27.6419C84.9332 27.63 84.9196 27.6221 84.9045 27.6194L84.8389 27.6094L82.8885 27.3066C82.5971 27.2618 82.3275 27.1233 82.1191 26.9113C81.9108 26.6994 81.7746 26.4253 81.7304 26.129L81.4247 24.0788C81.4221 24.0635 81.4143 24.0496 81.4027 24.0396C81.391 24.0296 81.3762 24.0242 81.361 24.0242C81.3457 24.0242 81.331 24.0296 81.3193 24.0396C81.3076 24.0496 81.2998 24.0635 81.2972 24.0788L80.991 26.129C80.9468 26.4252 80.8106 26.6992 80.6024 26.9111C80.3941 27.1229 80.1247 27.2615 79.8335 27.3066L77.8174 27.6175C77.8024 27.6201 77.7887 27.6281 77.7789 27.64C77.7691 27.6518 77.7637 27.6668 77.7637 27.6824C77.7637 27.6979 77.7691 27.7129 77.7789 27.7248C77.7887 27.7366 77.8024 27.7446 77.8174 27.7472L78.1418 27.7977L79.8297 28.0585C80.121 28.1035 80.3906 28.242 80.599 28.4539C80.8073 28.6658 80.9436 28.9399 80.9878 29.2362L81.0487 29.6448L81.2939 31.284C81.2965 31.2993 81.3043 31.3132 81.316 31.3232C81.3277 31.3332 81.3424 31.3387 81.3577 31.3387C81.373 31.3387 81.3877 31.3332 81.3994 31.3232C81.4111 31.3132 81.4189 31.2993 81.4215 31.284L81.6793 29.559L81.7262 29.2362C81.7711 28.9397 81.9082 28.6657 82.1173 28.4541C82.3265 28.2425 82.5967 28.1046 82.8885 28.0605Z" fill="white"/>
<path d="M69.2479 33.934L71.5021 34.2821C71.5932 34.2962 71.6775 34.3396 71.7426 34.4059C71.8078 34.4722 71.8503 34.558 71.8641 34.6506L72.2068 36.943C72.2089 36.9561 72.2155 36.968 72.2254 36.9766C72.2353 36.9852 72.2479 36.9899 72.261 36.9899C72.274 36.9899 72.2866 36.9852 72.2965 36.9766C72.3064 36.968 72.313 36.9561 72.3151 36.943L72.6578 34.6506C72.6717 34.558 72.7142 34.4723 72.7794 34.406C72.8445 34.3397 72.9287 34.2962 73.0198 34.2821L73.8323 34.1567L74.6022 34.0379L75.274 33.934C75.2872 33.9322 75.2993 33.9257 75.3081 33.9155C75.3169 33.9053 75.3217 33.8922 75.3217 33.8787C75.3217 33.8652 75.3169 33.8521 75.3081 33.8419C75.2993 33.8317 75.2872 33.8252 75.274 33.8234L74.6022 33.7199L73.8323 33.6007L73.0198 33.4753C72.9287 33.4612 72.8445 33.4177 72.7794 33.3514C72.7142 33.2851 72.6717 33.1994 72.6578 33.1068L72.3151 30.8149C72.313 30.8018 72.3064 30.7899 72.2965 30.7813C72.2866 30.7727 72.274 30.768 72.261 30.768C72.2479 30.768 72.2353 30.7727 72.2254 30.7813C72.2155 30.7899 72.2089 30.8018 72.2068 30.8149L71.8641 33.1068C71.8503 33.1995 71.8078 33.2852 71.7426 33.3515C71.6775 33.4178 71.5932 33.4612 71.5021 33.4753L69.2479 33.8234C69.2347 33.8252 69.2226 33.8317 69.2138 33.8419C69.205 33.8521 69.2002 33.8652 69.2002 33.8787C69.2002 33.8922 69.205 33.9053 69.2138 33.9155C69.2226 33.9257 69.2347 33.9322 69.2479 33.934Z" fill="white"/>
<path d="M87.1378 36.9378L87.1238 36.933L86.368 36.8162L85.5029 36.6827C85.4374 36.6725 85.3767 36.6413 85.3299 36.5936C85.283 36.5459 85.2523 36.4842 85.2423 36.4176L84.9961 34.7693C84.9951 34.7595 84.9905 34.7505 84.9832 34.7439C84.976 34.7373 84.9667 34.7336 84.957 34.7336C84.9473 34.7336 84.9379 34.7373 84.9307 34.7439C84.9234 34.7505 84.9189 34.7595 84.9178 34.7693L84.6717 36.4176C84.6617 36.4842 84.6311 36.5459 84.5843 36.5935C84.5375 36.6412 84.4769 36.6725 84.4114 36.6827L82.7902 36.933C82.7809 36.9345 82.7724 36.9393 82.7663 36.9465C82.7602 36.9538 82.7568 36.963 82.7568 36.9726C82.7568 36.9821 82.7602 36.9914 82.7663 36.9986C82.7724 37.0059 82.7809 37.0107 82.7902 37.0121L84.4114 37.2629C84.4769 37.273 84.5375 37.3041 84.5844 37.3517C84.6312 37.3993 84.6618 37.461 84.6717 37.5276L84.9178 39.1763C84.9195 39.1856 84.9244 39.1939 84.9315 39.1999C84.9387 39.2059 84.9477 39.2092 84.957 39.2092C84.9662 39.2092 84.9752 39.2059 84.9824 39.1999C84.9895 39.1939 84.9944 39.1856 84.9961 39.1763L85.2423 37.5276C85.2522 37.4609 85.2829 37.3993 85.3298 37.3517C85.3767 37.3041 85.4374 37.273 85.5029 37.2629L86.368 37.129L87.1238 37.0121L87.1378 37.0074C87.1439 37.0039 87.1489 36.9988 87.1524 36.9927C87.1559 36.9866 87.1577 36.9796 87.1577 36.9726C87.1577 36.9655 87.1559 36.9586 87.1524 36.9524C87.1489 36.9463 87.1439 36.9413 87.1378 36.9378Z" fill="white"/>
<path d="M36.1571 49.7686L36.1622 49.8011L36.4632 51.8165C36.4658 51.8317 36.4736 51.8456 36.4853 51.8556C36.497 51.8656 36.5117 51.8711 36.527 51.8711C36.5422 51.8711 36.557 51.8656 36.5687 51.8556C36.5803 51.8456 36.5882 51.8317 36.5907 51.8165L36.8903 49.8106L36.8969 49.7686C36.9411 49.4724 37.0772 49.1984 37.2855 48.9865C37.4938 48.7746 37.7632 48.636 38.0545 48.591L39.4142 48.3812L40.0706 48.2801C40.0856 48.2775 40.0992 48.2695 40.1091 48.2577C40.1189 48.2458 40.1243 48.2308 40.1243 48.2153C40.1243 48.1997 40.1189 48.1847 40.1091 48.1729C40.0992 48.161 40.0856 48.1531 40.0706 48.1504L38.0545 47.8391C37.7632 47.7941 37.4937 47.6555 37.2854 47.4436C37.0772 47.2318 36.941 46.9576 36.8969 46.6614L36.6189 44.8019L36.5907 44.6112C36.5882 44.5959 36.5803 44.5821 36.5687 44.5721C36.557 44.5621 36.5422 44.5566 36.527 44.5566C36.5117 44.5566 36.497 44.5621 36.4853 44.5721C36.4736 44.5821 36.4658 44.5959 36.4632 44.6112L36.4163 44.9235L36.1571 46.659C36.113 46.9553 35.9769 47.2294 35.7686 47.4413C35.5603 47.6533 35.2908 47.7918 34.9995 47.8367L32.9834 48.148C32.9684 48.1507 32.9547 48.1586 32.9449 48.1705C32.9351 48.1823 32.9297 48.1974 32.9297 48.2129C32.9297 48.2284 32.9351 48.2434 32.9449 48.2553C32.9547 48.2671 32.9684 48.2751 32.9834 48.2777L33.0636 48.2901L34.9976 48.5886C35.2895 48.6334 35.5597 48.7722 35.7683 48.9845C35.977 49.1969 36.1132 49.4717 36.1571 49.7686Z" fill="white"/>
<path d="M15.736 42.92C15.7448 42.9166 15.7525 42.9105 15.7579 42.9025C15.7633 42.8946 15.7662 42.8851 15.7662 42.8755C15.7662 42.8658 15.7633 42.8563 15.7579 42.8484C15.7525 42.8404 15.7448 42.8343 15.736 42.8309L13.9168 42.5501C13.8433 42.5386 13.7753 42.5036 13.7228 42.45C13.6702 42.3965 13.6359 42.3273 13.6247 42.2525L13.3481 40.4031C13.3466 40.3924 13.3413 40.3827 13.3333 40.3757C13.3253 40.3686 13.3151 40.3648 13.3045 40.3648C13.2939 40.3648 13.2837 40.3686 13.2757 40.3757C13.2677 40.3827 13.2624 40.3924 13.2609 40.4031L12.9843 42.2525C12.9731 42.3273 12.9388 42.3965 12.8862 42.45C12.8337 42.5036 12.7657 42.5386 12.6922 42.5501L10.873 42.8309C10.8641 42.8343 10.8565 42.8404 10.8511 42.8484C10.8457 42.8563 10.8428 42.8658 10.8428 42.8755C10.8428 42.8851 10.8457 42.8946 10.8511 42.9025C10.8565 42.9105 10.8641 42.9166 10.873 42.92L12.6922 43.2009C12.7657 43.2123 12.8337 43.2474 12.8862 43.3009C12.9388 43.3544 12.9731 43.4236 12.9843 43.4984L13.2609 45.3479C13.2624 45.3585 13.2677 45.3682 13.2757 45.3752C13.2837 45.3823 13.2939 45.3861 13.3045 45.3861C13.3151 45.3861 13.3253 45.3823 13.3333 45.3752C13.3413 45.3682 13.3466 45.3585 13.3481 45.3479L13.6247 43.4984C13.6359 43.4236 13.6702 43.3544 13.7228 43.3009C13.7753 43.2474 13.8433 43.2123 13.9168 43.2009L15.736 42.92Z" fill="white"/>
<path d="M41.6909 30.0572L41.885 28.7585L41.9563 28.2817C41.9662 28.2143 41.9959 28.1516 42.0414 28.1016C42.0869 28.0516 42.1461 28.0166 42.2113 28.0013L42.2367 27.9965L43.9822 27.7267C43.9926 27.7256 44.0021 27.7206 44.0091 27.7127C44.0161 27.7048 44.0199 27.6946 44.0199 27.684C44.0199 27.6734 44.0161 27.6632 44.0091 27.6553C44.0021 27.6474 43.9926 27.6425 43.9822 27.6413L42.2367 27.3715C42.1658 27.3607 42.1002 27.3271 42.0496 27.2756C41.999 27.2241 41.9659 27.1574 41.9553 27.0854L41.9478 27.0349L41.69 25.3103C41.6889 25.2998 41.684 25.29 41.6762 25.2829C41.6685 25.2758 41.6584 25.2719 41.648 25.2719C41.6376 25.2719 41.6275 25.2758 41.6198 25.2829C41.612 25.29 41.6071 25.2998 41.6061 25.3103L41.3468 27.0449L41.3407 27.0854C41.3302 27.1575 41.2972 27.2242 41.2465 27.2757C41.1959 27.3272 41.1302 27.3608 41.0594 27.3715L39.3157 27.6404C39.3081 27.6415 39.3009 27.6446 39.2949 27.6496C39.2889 27.6545 39.2844 27.661 39.2818 27.6684C39.2792 27.6757 39.2786 27.6837 39.2801 27.6914C39.2816 27.699 39.2852 27.7061 39.2904 27.7119L39.3157 27.7257L41.0612 27.9956C41.1321 28.0063 41.1977 28.0398 41.2484 28.0914C41.299 28.1429 41.3321 28.2096 41.3426 28.2817L41.4073 28.7141L41.6079 30.0568C41.6097 30.0666 41.6148 30.0756 41.6223 30.082C41.6298 30.0885 41.6394 30.092 41.6492 30.0921C41.6591 30.0922 41.6687 30.0887 41.6763 30.0823C41.6839 30.076 41.6891 30.0671 41.6909 30.0572Z" fill="white"/>
<path d="M22.239 56.5815L22.1691 56.571L21.3992 56.4518L20.6177 56.3312C20.5521 56.321 20.4915 56.2897 20.4446 56.2421C20.3977 56.1944 20.367 56.1327 20.357 56.0661L20.1108 54.4178C20.1094 54.4084 20.1047 54.3998 20.0975 54.3935C20.0904 54.3873 20.0813 54.3839 20.0719 54.3839C20.0625 54.3839 20.0534 54.3873 20.0463 54.3935C20.0392 54.3998 20.0345 54.4084 20.033 54.4178L19.7864 56.0661C19.7765 56.1327 19.746 56.1944 19.6991 56.2421C19.6523 56.2898 19.5917 56.321 19.5262 56.3312L17.9035 56.5815C17.8944 56.5832 17.8862 56.5882 17.8802 56.5954C17.8743 56.6027 17.8711 56.6118 17.8711 56.6213C17.8711 56.6307 17.8743 56.6399 17.8802 56.6471C17.8862 56.6544 17.8944 56.6593 17.9035 56.6611L19.5248 56.9114C19.5903 56.9215 19.651 56.9527 19.6978 57.0004C19.7446 57.0481 19.7752 57.1098 19.785 57.1765L20.0316 58.8248C20.033 58.8342 20.0378 58.8428 20.0449 58.849C20.052 58.8552 20.0611 58.8586 20.0705 58.8586C20.0799 58.8586 20.089 58.8552 20.0961 58.849C20.1033 58.8428 20.108 58.8342 20.1094 58.8248L20.3556 57.1765C20.3655 57.1098 20.3962 57.0481 20.4431 57.0004C20.49 56.9527 20.5507 56.9215 20.6163 56.9114L21.3978 56.7908L22.1677 56.6716L22.2375 56.6611C22.2467 56.6595 22.255 56.6547 22.2611 56.6476C22.2671 56.6404 22.2705 56.6313 22.2707 56.6219C22.2708 56.6124 22.2678 56.6032 22.262 56.5959C22.2562 56.5885 22.248 56.5834 22.239 56.5815Z" fill="white"/>
</g>
<defs>
<clipPath id="clip0_2_1399">
<rect width="96" height="63" fill="white"/>
</clipPath>
</defs>
</svg>