<svg width="128" height="128" viewBox="0 0 128 128" fill="none" xmlns="http://www.w3.org/2000/svg">
<path d="M63.9761 0.272949C28.7941 0.272949 0.273438 28.7937 0.273438 63.9756C0.273438 99.1576 28.7941 127.678 63.9761 127.678C99.158 127.678 127.679 99.1576 127.679 63.9756C127.679 28.7937 99.1581 0.272949 63.9761 0.272949Z" fill="#F0A931"/>
<path d="M63.9761 0.272949C28.7941 0.272949 0.273438 28.7937 0.273438 63.9756C0.273438 99.1576 28.7941 127.678 63.9761 127.678C99.158 127.678 127.679 99.1576 127.679 63.9756C127.679 28.7937 99.1581 0.272949 63.9761 0.272949Z" fill="#F7CB40"/>
<path d="M115.792 62.6378C115.702 59.0812 115.253 55.6137 114.481 52.2699C114.385 51.8519 114.283 51.4359 114.177 51.0219C113.732 49.2914 113.197 47.5969 112.583 45.9413C111.874 44.0319 111.058 42.1745 110.138 40.3788C109.947 40.0062 109.752 39.6364 109.553 39.2691C107.412 35.3287 104.773 31.6989 101.724 28.4594C99.0603 25.6289 96.0826 23.0972 92.8447 20.9218C91.5004 20.0186 90.1122 19.1755 88.6827 18.3989C88.3154 18.1994 87.9455 18.0043 87.573 17.8134C80.4954 14.1883 72.4746 12.1429 63.9761 12.1429C63.973 12.1429 63.9698 12.143 63.9665 12.143C63.688 12.1431 63.411 12.1492 63.1335 12.1536C62.7818 12.1592 62.431 12.1684 62.0809 12.1811C62.0251 12.1831 61.9692 12.1852 61.9134 12.1874C61.6049 12.1995 61.2967 12.2131 60.9896 12.2305C60.8437 12.2389 60.6982 12.2488 60.5525 12.2583C60.3208 12.2735 60.0889 12.2874 59.8581 12.3055C59.4631 12.3366 59.0689 12.3707 58.6765 12.4105C56.934 12.5875 55.2171 12.8507 53.53 13.1959C51.8429 13.5412 50.1857 13.9684 48.5627 14.4732C47.7511 14.7256 46.9482 14.9974 46.1543 15.2881C44.1696 16.0148 42.2418 16.8594 40.3792 17.8134C40.0067 18.0042 39.6369 18.1994 39.2696 18.3988C38.5352 18.7978 37.8115 19.214 37.0991 19.6469C36.1762 20.2075 35.2745 20.7992 34.3906 21.4147C33.9097 21.7496 33.4327 22.0896 32.9638 22.4401C26.9768 26.9175 21.9901 32.659 18.3994 39.2689C18.1999 39.6362 18.0048 40.006 17.814 40.3786C17.1636 41.6483 16.5675 42.9501 16.0215 44.2778C15.8275 44.7497 15.6402 45.2249 15.4598 45.7036C14.8076 47.4346 14.242 49.2081 13.7754 51.0217C13.6689 51.4357 13.5673 51.8518 13.4708 52.2697C12.6989 55.6135 12.2505 59.0811 12.1605 62.6377C12.1492 63.0822 12.1436 63.5282 12.1436 63.9755C12.1436 64.3516 12.1488 64.7266 12.1578 65.1005C12.1663 65.4563 12.1782 65.8112 12.1929 66.1654C12.1941 66.1392 12.196 66.1133 12.1971 66.087C12.3922 70.9458 13.2482 75.6339 14.6914 80.0589C15.115 81.358 15.5875 82.6348 16.1087 83.8864C19.6571 92.4071 25.4137 99.7762 32.6645 105.281C33.5602 105.961 34.479 106.612 35.419 107.234C37.7153 108.753 40.1376 110.097 42.6703 111.24C43.721 111.715 44.7915 112.153 45.8782 112.558C51.1506 114.523 56.8281 115.655 62.7523 115.793C63.1592 115.802 63.5669 115.808 63.9761 115.808C64.9748 115.808 65.9662 115.777 66.951 115.721C93.4706 114.22 114.654 92.7843 115.759 66.1607C115.759 66.1623 115.759 66.1638 115.759 66.1654C115.774 65.8112 115.786 65.4563 115.794 65.1005C115.803 64.7266 115.809 64.3517 115.809 63.9755C115.809 63.5283 115.803 63.0824 115.792 62.6378Z" fill="#DB8D24"/>
<path d="M92.8447 20.9218C91.5004 20.0186 90.1122 19.1755 88.6827 18.3989C88.3154 18.1994 87.9455 18.0043 87.573 17.8134C80.4954 14.1883 72.4746 12.1429 63.9761 12.1429C63.973 12.1429 63.9698 12.143 63.9665 12.143C63.688 12.1431 63.411 12.1492 63.1335 12.1536C62.7818 12.1592 62.431 12.1684 62.0809 12.1811C62.0251 12.1831 61.9692 12.1852 61.9134 12.1874C61.6049 12.1995 61.2967 12.2131 60.9896 12.2305C60.8437 12.2389 60.6982 12.2488 60.5526 12.2583C60.3208 12.2735 60.0889 12.2874 59.8581 12.3055C59.4631 12.3366 59.0689 12.3707 58.6765 12.4105C56.934 12.5875 55.2171 12.8507 53.53 13.1959C51.8429 13.5412 50.1857 13.9684 48.5627 14.4732C47.7511 14.7256 46.9482 14.9974 46.1543 15.2881C44.1696 16.0148 42.2418 16.8594 40.3792 17.8134C40.0067 18.0042 39.6369 18.1994 39.2696 18.3988C38.5352 18.7978 37.8115 19.214 37.0991 19.6469C36.1762 20.2075 35.2745 20.7992 34.3906 21.4147C33.9097 21.7496 33.4327 22.0896 32.9638 22.4401C26.9768 26.9175 21.9901 32.659 18.3994 39.2689C18.1999 39.6362 18.0048 40.006 17.814 40.3786C17.1636 41.6483 16.5675 42.9501 16.0215 44.2778C15.8275 44.7497 15.6402 45.2249 15.4598 45.7036C14.8076 47.4346 14.242 49.2081 13.7754 51.0217C13.6689 51.4357 13.5673 51.8518 13.4708 52.2697C12.6989 55.6135 12.2505 59.0811 12.1605 62.6377C12.1492 63.0822 12.1436 63.5282 12.1436 63.9755C12.1436 64.3516 12.1488 64.7266 12.1578 65.1005C12.1663 65.4563 12.1782 65.8112 12.1929 66.1654C12.1941 66.1392 12.196 66.1133 12.1971 66.087C13.3851 38.5137 36.1103 16.5227 63.9762 16.5227C64.0386 16.5227 64.1005 16.5248 64.1628 16.525C75.0774 16.5636 85.1957 19.9758 93.5315 25.7733C96.7375 28.0031 99.6798 30.5849 102.302 33.4641C106.955 38.5728 110.601 44.6142 112.925 51.2762C114.561 55.9671 115.543 60.965 115.759 66.1607C115.759 66.1622 115.76 66.1638 115.76 66.1653C115.774 65.8111 115.786 65.4562 115.795 65.1005C115.804 64.7265 115.809 64.3516 115.809 63.9754C115.809 63.5281 115.803 63.0821 115.792 62.6376C115.702 59.081 115.254 55.6134 114.482 52.2696C114.385 51.8517 114.284 51.4357 114.177 51.0216C113.732 49.2912 113.197 47.5967 112.583 45.9411C111.874 44.0316 111.058 42.1743 110.138 40.3786C109.948 40.006 109.752 39.6362 109.553 39.2689C107.412 35.3285 104.774 31.6987 101.725 28.4592C99.0602 25.6288 96.0825 23.0971 92.8447 20.9218Z" fill="#B26916"/>
<path d="M98.5432 12.9337C101.765 15.1197 104.768 17.6019 107.515 20.3424L101.724 28.4594C99.0602 25.6289 96.0826 23.0972 92.8447 20.9217L98.5432 12.9337Z" fill="#F0A931"/>
<path d="M7.89392 89.5869C4.32586 81.7866 2.33496 73.1141 2.33496 63.9757C2.33496 29.9325 29.9324 2.33496 63.9756 2.33496C65.9854 2.33496 67.9718 2.43453 69.9324 2.62256L63.1331 12.1538C62.7813 12.1594 62.4305 12.1686 62.0805 12.1812C62.0246 12.1832 61.9687 12.1854 61.9129 12.1875C61.6044 12.1996 61.2963 12.2133 60.9892 12.2307C60.8432 12.239 60.6977 12.249 60.5521 12.2584C60.3204 12.2736 60.0884 12.2876 59.8576 12.3057C59.4627 12.3368 59.0685 12.3708 58.676 12.4107C56.9335 12.5877 55.2166 12.8509 53.5296 13.1961C51.8425 13.5413 50.1853 13.9685 48.5622 14.4733C47.7507 14.7258 46.9477 14.9976 46.1539 15.2883C44.1692 16.015 42.2413 16.8596 40.3788 17.8135C40.0062 18.0044 39.6364 18.1995 39.2692 18.399C38.5347 18.798 37.8111 19.2141 37.0986 19.6471C36.1758 20.2077 35.274 20.7994 34.3901 21.4149C33.9093 21.7498 33.4322 22.0897 32.9634 22.4403C26.9764 26.9177 21.9897 32.6592 18.399 39.2691C18.1995 39.6363 18.0044 40.0062 17.8135 40.3787C17.1632 41.6484 16.567 42.9503 16.021 44.278C15.8271 44.7499 15.6398 45.225 15.4594 45.7037C14.8071 47.4348 14.2415 49.2083 13.7749 51.0219C13.6684 51.4359 13.5668 51.8519 13.4704 52.2699C12.6985 55.6137 12.2501 59.0812 12.16 62.6378C12.1488 63.0824 12.1431 63.5284 12.1431 63.9757C12.1431 64.3518 12.1483 64.7267 12.1574 65.1007C12.1659 65.4564 12.1777 65.8114 12.1925 66.1656C12.1936 66.1394 12.1955 66.1134 12.1967 66.0871C12.3917 70.946 13.2478 75.6341 14.6909 80.059L7.89392 89.5869Z" fill="#F0A931"/>
<path d="M36.8819 119.354C33.3765 117.636 30.0573 115.596 26.9648 113.271L32.6642 105.281C33.5599 105.962 34.4787 106.613 35.4188 107.234C37.715 108.753 40.1373 110.097 42.67 111.241L36.8819 119.354Z" fill="#F0A931"/>
<path d="M63.9765 125.616C61.3081 125.616 58.6795 125.446 56.1006 125.118L62.7527 115.793C63.1596 115.802 63.5674 115.808 63.9765 115.808C64.9753 115.808 65.9666 115.777 66.9515 115.721C93.471 114.22 114.655 92.7845 115.76 66.1609C115.76 66.1624 115.76 66.164 115.76 66.1656C115.775 65.8114 115.786 65.4564 115.795 65.1007C115.804 64.7267 115.809 64.3518 115.809 63.9757C115.809 63.5284 115.804 63.0824 115.792 62.6379C115.702 59.0813 115.254 55.6137 114.482 52.2699C114.385 51.8519 114.284 51.4359 114.177 51.0219C113.732 49.2914 113.198 47.5969 112.583 45.9414L119.228 36.6266C123.316 44.8683 125.617 54.1524 125.617 63.9757C125.617 98.0188 98.0198 125.616 63.9765 125.616Z" fill="#F0A931"/>
</svg>